RedRose-Regular.ufo
<glyph name="exclam" format="2">
  <advance width="302"/>
  <unicode hex="0021"/>
  <outline>
    <contour>
      <point x="138" y="190" type="curve" smooth="yes"/>
      <point x="162" y="190"/>
      <point x="198" y="495"/>
      <point x="198" y="559" type="curve" smooth="yes"/>
      <point x="198" y="599"/>
      <point x="196" y="610"/>
      <point x="140" y="610" type="curve" smooth="yes"/>
      <point x="84" y="610"/>
      <point x="80" y="599"/>
      <point x="80" y="560" type="curve" smooth="yes"/>
      <point x="80" y="493"/>
      <point x="114" y="190"/>
    </contour>
    <component base="period" xOffset="50"/>
  </outline>
</glyph>
<glyph name="numbersign" format="2">
  <advance width="691"/>
  <unicode hex="0023"/>
  <outline>
    <contour>
      <point x="248" y="0" type="curve" smooth="yes"/>
      <point x="370" y="0" type="line" smooth="yes"/>
      <point x="362" y="0"/>
      <point x="359" y="17"/>
      <point x="379" y="60" type="curve" smooth="yes"/>
      <point x="406" y="119"/>
      <point x="552" y="483"/>
      <point x="579" y="539" type="curve" smooth="yes"/>
      <point x="600" y="583"/>
      <point x="627" y="600"/>
      <point x="641" y="600" type="curve" smooth="yes"/>
      <point x="518" y="600" type="line" smooth="yes"/>
      <point x="525" y="600"/>
      <point x="528" y="583"/>
      <point x="509" y="540" type="curve" smooth="yes"/>
      <point x="483" y="481"/>
      <point x="338" y="121"/>
      <point x="309" y="60" type="curve" smooth="yes"/>
      <point x="288" y="15"/>
      <point x="262" y="0"/>
    </contour>
    <contour>
      <point x="53" y="168" type="curve"/>
      <point x="62" y="172"/>
      <point x="100" y="178"/>
      <point x="173" y="178" type="curve" smooth="yes"/>
      <point x="559" y="178" type="line"/>
      <point x="559" y="206"/>
      <point x="570" y="234"/>
      <point x="579" y="248" type="curve" smooth="yes"/>
      <point x="576" y="244"/>
      <point x="547" y="238"/>
      <point x="479" y="238" type="curve" smooth="yes"/>
      <point x="204" y="238" type="line"/>
      <point x="73" y="238" type="line"/>
      <point x="73" y="212"/>
      <point x="62" y="183"/>
    </contour>
    <contour>
      <point x="50" y="0" type="curve" smooth="yes"/>
      <point x="172" y="0" type="line" smooth="yes"/>
      <point x="164" y="0"/>
      <point x="161" y="17"/>
      <point x="181" y="60" type="curve" smooth="yes"/>
      <point x="208" y="119"/>
      <point x="354" y="483"/>
      <point x="381" y="539" type="curve" smooth="yes"/>
      <point x="402" y="583"/>
      <point x="429" y="600"/>
      <point x="443" y="600" type="curve" smooth="yes"/>
      <point x="320" y="600" type="line" smooth="yes"/>
      <point x="327" y="600"/>
      <point x="330" y="583"/>
      <point x="311" y="540" type="curve" smooth="yes"/>
      <point x="285" y="481"/>
      <point x="140" y="121"/>
      <point x="111" y="60" type="curve" smooth="yes"/>
      <point x="90" y="15"/>
      <point x="64" y="0"/>
    </contour>
    <contour>
      <point x="113" y="348" type="curve"/>
      <point x="122" y="352"/>
      <point x="160" y="358"/>
      <point x="233" y="358" type="curve" smooth="yes"/>
      <point x="619" y="358" type="line"/>
      <point x="619" y="386"/>
      <point x="630" y="414"/>
      <point x="639" y="428" type="curve" smooth="yes"/>
      <point x="636" y="424"/>
      <point x="607" y="418"/>
      <point x="539" y="418" type="curve" smooth="yes"/>
      <point x="264" y="418" type="line"/>
      <point x="133" y="418" type="line"/>
      <point x="133" y="392"/>
      <point x="122" y="363"/>
    </contour>
  </outline>
</glyph>
<glyph name="dollar" format="2">
  <advance width="606"/>
  <unicode hex="0024"/>
  <outline>
    <contour>
      <point x="308" y="-11" type="curve" smooth="yes"/>
      <point x="481" y="-11"/>
      <point x="566" y="54"/>
      <point x="566" y="176" type="curve" smooth="yes"/>
      <point x="566" y="310"/>
      <point x="482" y="351"/>
      <point x="343" y="351" type="curve" smooth="yes"/>
      <point x="273" y="351" type="line" smooth="yes"/>
      <point x="196" y="351"/>
      <point x="162" y="374"/>
      <point x="162" y="437" type="curve" smooth="yes"/>
      <point x="162" y="508"/>
      <point x="204" y="529"/>
      <point x="308" y="529" type="curve" smooth="yes"/>
      <point x="444" y="529"/>
      <point x="513" y="477"/>
      <point x="527" y="437" type="curve"/>
      <point x="527" y="466" type="line"/>
      <point x="547" y="546" type="line"/>
      <point x="522" y="573"/>
      <point x="439" y="609"/>
      <point x="308" y="609" type="curve" smooth="yes"/>
      <point x="119" y="609"/>
      <point x="50" y="535"/>
      <point x="50" y="437" type="curve" smooth="yes"/>
      <point x="50" y="320"/>
      <point x="115" y="266"/>
      <point x="273" y="266" type="curve" smooth="yes"/>
      <point x="343" y="266" type="line" smooth="yes"/>
      <point x="421" y="266"/>
      <point x="454" y="243"/>
      <point x="454" y="176" type="curve" smooth="yes"/>
      <point x="454" y="99"/>
      <point x="418" y="69"/>
      <point x="308" y="69" type="curve" smooth="yes"/>
      <point x="153" y="69"/>
      <point x="75" y="137"/>
      <point x="60" y="188" type="curve"/>
      <point x="60" y="157" type="line"/>
      <point x="40" y="62" type="line"/>
      <point x="59" y="31"/>
      <point x="144" y="-11"/>
    </contour>
    <contour>
      <point x="250" y="-60" type="curve"/>
      <point x="353" y="-60" type="line"/>
      <point x="348" y="-55"/>
      <point x="342" y="-36"/>
      <point x="342" y="0" type="curve" smooth="yes"/>
      <point x="342" y="599" type="line" smooth="yes"/>
      <point x="342" y="636"/>
      <point x="354" y="656"/>
      <point x="363" y="660" type="curve"/>
      <point x="260" y="660" type="line"/>
      <point x="264" y="655"/>
      <point x="270" y="636"/>
      <point x="270" y="600" type="curve" smooth="yes"/>
      <point x="270" y="0" type="line" smooth="yes"/>
      <point x="270" y="-37"/>
      <point x="259" y="-56"/>
    </contour>
  </outline>
</glyph>
<glyph name="percent" format="2">
  <advance width="680"/>
  <unicode hex="0025"/>
  <outline>
    <contour>
      <point x="69" y="1" type="curve"/>
      <point x="191" y="1" type="line"/>
      <point x="179" y="4"/>
      <point x="173" y="22"/>
      <point x="200" y="61" type="curve" smooth="yes"/>
      <point x="240" y="118"/>
      <point x="502" y="476"/>
      <point x="546" y="540" type="curve" smooth="yes"/>
      <point x="577" y="584"/>
      <point x="599" y="601"/>
      <point x="608" y="601" type="curve" smooth="yes"/>
      <point x="485" y="601" type="line" smooth="yes"/>
      <point x="496" y="601"/>
      <point x="501" y="584"/>
      <point x="476" y="541" type="curve" smooth="yes"/>
      <point x="444" y="485"/>
      <point x="170" y="115"/>
      <point x="130" y="61" type="curve" smooth="yes"/>
      <point x="99" y="19"/>
      <point x="77" y="2"/>
    </contour>
    <contour>
      <point x="490" y="-10" type="curve" smooth="yes"/>
      <point x="586" y="-10"/>
      <point x="630" y="44"/>
      <point x="630" y="110" type="curve" smooth="yes"/>
      <point x="630" y="176"/>
      <point x="586" y="230"/>
      <point x="490" y="230" type="curve" smooth="yes"/>
      <point x="392" y="230"/>
      <point x="350" y="176"/>
      <point x="350" y="110" type="curve" smooth="yes"/>
      <point x="350" y="44"/>
      <point x="392" y="-10"/>
    </contour>
    <contour>
      <point x="490" y="50" type="curve" smooth="yes"/>
      <point x="436" y="50"/>
      <point x="430" y="88"/>
      <point x="430" y="110" type="curve" smooth="yes"/>
      <point x="430" y="132"/>
      <point x="436" y="170"/>
      <point x="490" y="170" type="curve" smooth="yes"/>
      <point x="541" y="170"/>
      <point x="550" y="132"/>
      <point x="550" y="110" type="curve" smooth="yes"/>
      <point x="550" y="88"/>
      <point x="541" y="50"/>
    </contour>
    <contour>
      <point x="190" y="369" type="curve" smooth="yes"/>
      <point x="286" y="369"/>
      <point x="330" y="423"/>
      <point x="330" y="489" type="curve" smooth="yes"/>
      <point x="330" y="555"/>
      <point x="286" y="609"/>
      <point x="190" y="609" type="curve" smooth="yes"/>
      <point x="92" y="609"/>
      <point x="50" y="555"/>
      <point x="50" y="489" type="curve" smooth="yes"/>
      <point x="50" y="423"/>
      <point x="92" y="369"/>
    </contour>
    <contour>
      <point x="190" y="429" type="curve" smooth="yes"/>
      <point x="136" y="429"/>
      <point x="130" y="467"/>
      <point x="130" y="489" type="curve" smooth="yes"/>
      <point x="130" y="511"/>
      <point x="136" y="549"/>
      <point x="190" y="549" type="curve" smooth="yes"/>
      <point x="241" y="549"/>
      <point x="250" y="511"/>
      <point x="250" y="489" type="curve" smooth="yes"/>
      <point x="250" y="467"/>
      <point x="241" y="429"/>
    </contour>
  </outline>
</glyph>
<glyph name="ampersand" format="2">
  <advance width="807"/>
  <unicode hex="0026"/>
  <outline>
    <contour>
      <point x="249" y="-10" type="curve" smooth="yes"/>
      <point x="410" y="-10"/>
      <point x="500" y="57"/>
      <point x="530" y="78" type="curve"/>
      <point x="573" y="39"/>
      <point x="585" y="10"/>
      <point x="582" y="0" type="curve"/>
      <point x="797" y="0" type="line" smooth="yes"/>
      <point x="785" y="0"/>
      <point x="747" y="19"/>
      <point x="683" y="70" type="curve" smooth="yes"/>
      <point x="643" y="102"/>
      <point x="626" y="119"/>
      <point x="598" y="146" type="curve"/>
      <point x="624" y="175"/>
      <point x="651" y="211"/>
      <point x="684" y="287" type="curve" smooth="yes"/>
      <point x="702" y="330"/>
      <point x="720" y="347"/>
      <point x="729" y="347" type="curve" smooth="yes"/>
      <point x="538" y="347" type="line"/>
      <point x="547" y="346"/>
      <point x="559" y="330"/>
      <point x="559" y="291" type="curve" smooth="yes"/>
      <point x="559" y="241"/>
      <point x="542" y="210"/>
      <point x="534" y="199" type="curve"/>
      <point x="487" y="238"/>
      <point x="414" y="283"/>
      <point x="375" y="322" type="curve"/>
      <point x="431" y="345"/>
      <point x="496" y="396"/>
      <point x="496" y="474" type="curve" smooth="yes"/>
      <point x="496" y="552"/>
      <point x="445" y="610"/>
      <point x="332" y="610" type="curve" smooth="yes"/>
      <point x="224" y="610"/>
      <point x="160" y="551"/>
      <point x="160" y="474" type="curve" smooth="yes"/>
      <point x="160" y="418"/>
      <point x="185" y="369"/>
      <point x="220" y="337" type="curve"/>
      <point x="219" y="335" type="line"/>
      <point x="184" y="325"/>
      <point x="40" y="279"/>
      <point x="40" y="150" type="curve" smooth="yes"/>
      <point x="40" y="23"/>
      <point x="144" y="-10"/>
    </contour>
    <contour>
      <point x="261" y="60" type="curve" smooth="yes"/>
      <point x="188" y="60"/>
      <point x="148" y="89"/>
      <point x="148" y="145" type="curve" smooth="yes"/>
      <point x="148" y="229"/>
      <point x="235" y="264"/>
      <point x="283" y="282" type="curve"/>
      <point x="338" y="236"/>
      <point x="427" y="177"/>
      <point x="475" y="131" type="curve"/>
      <point x="436" y="95"/>
      <point x="364" y="60"/>
    </contour>
    <contour>
      <point x="319" y="369" type="curve"/>
      <point x="300" y="382"/>
      <point x="270" y="414"/>
      <point x="270" y="468" type="curve" smooth="yes"/>
      <point x="270" y="507"/>
      <point x="290" y="540"/>
      <point x="332" y="540" type="curve" smooth="yes"/>
      <point x="374" y="540"/>
      <point x="393" y="512"/>
      <point x="393" y="474" type="curve" smooth="yes"/>
      <point x="393" y="418"/>
      <point x="351" y="379"/>
    </contour>
  </outline>
</glyph>
<glyph name="quotesingle" format="2">
  <advance width="160"/>
  <unicode hex="0027"/>
  <outline>
    <contour>
      <point x="80" y="400" type="curve" smooth="yes"/>
      <point x="101" y="400"/>
      <point x="120" y="525"/>
      <point x="120" y="562" type="curve" smooth="yes"/>
      <point x="120" y="576"/>
      <point x="111" y="590"/>
      <point x="90" y="590" type="curve" smooth="yes"/>
      <point x="71" y="590" type="line" smooth="yes"/>
      <point x="49" y="590"/>
      <point x="40" y="580"/>
      <point x="40" y="561" type="curve" smooth="yes"/>
      <point x="40" y="513"/>
      <point x="59" y="400"/>
    </contour>
  </outline>
</glyph>
<glyph name="parenright" format="2">
  <advance width="293"/>
  <unicode hex="0029"/>
  <outline>
    <contour>
      <point x="50" y="-90" type="curve"/>
      <point x="99" y="-90"/>
      <point x="263" y="9"/>
      <point x="263" y="299" type="curve" smooth="yes"/>
      <point x="263" y="589"/>
      <point x="99" y="679"/>
      <point x="50" y="679" type="curve"/>
      <point x="50" y="662"/>
      <point x="39" y="646"/>
      <point x="31" y="639" type="curve"/>
      <point x="41" y="639" type="line" smooth="yes"/>
      <point x="94" y="639"/>
      <point x="194" y="551"/>
      <point x="194" y="299" type="curve" smooth="yes"/>
      <point x="194" y="47"/>
      <point x="94" y="-50"/>
      <point x="41" y="-50" type="curve" smooth="yes"/>
      <point x="31" y="-50" type="line"/>
      <point x="39" y="-58"/>
      <point x="50" y="-75"/>
    </contour>
  </outline>
</glyph>
<glyph name="asterisk" format="2">
  <advance width="353"/>
  <unicode hex="002A"/>
  <outline>
    <contour>
      <point x="137" y="420" type="line"/>
      <point x="134" y="423"/>
      <point x="135" y="434"/>
      <point x="150" y="456" type="curve" smooth="yes"/>
      <point x="163" y="473"/>
      <point x="171" y="504"/>
      <point x="177" y="516" type="curve"/>
      <point x="183" y="504"/>
      <point x="192" y="473"/>
      <point x="204" y="457" type="curve" smooth="yes"/>
      <point x="220" y="435"/>
      <point x="221" y="424"/>
      <point x="218" y="421" type="curve"/>
      <point x="299" y="480" type="line"/>
      <point x="296" y="477"/>
      <point x="285" y="482"/>
      <point x="269" y="504" type="curve" smooth="yes"/>
      <point x="258" y="520"/>
      <point x="231" y="535"/>
      <point x="222" y="545" type="curve"/>
      <point x="235" y="547"/>
      <point x="266" y="547"/>
      <point x="284" y="553" type="curve" smooth="yes"/>
      <point x="310" y="561"/>
      <point x="321" y="559"/>
      <point x="323" y="555" type="curve"/>
      <point x="292" y="650" type="line" smooth="yes"/>
      <point x="293" y="646"/>
      <point x="286" y="638"/>
      <point x="260" y="629" type="curve" smooth="yes"/>
      <point x="239" y="623"/>
      <point x="215" y="604"/>
      <point x="203" y="598" type="curve"/>
      <point x="205" y="611"/>
      <point x="215" y="640"/>
      <point x="215" y="661" type="curve" smooth="yes"/>
      <point x="215" y="687"/>
      <point x="221" y="698"/>
      <point x="225" y="698" type="curve" smooth="yes"/>
      <point x="125" y="698" type="line" smooth="yes"/>
      <point x="129" y="698"/>
      <point x="135" y="688"/>
      <point x="135" y="661" type="curve" smooth="yes"/>
      <point x="135" y="640"/>
      <point x="146" y="612"/>
      <point x="148" y="599" type="curve"/>
      <point x="136" y="604"/>
      <point x="112" y="623"/>
      <point x="93" y="629" type="curve" smooth="yes"/>
      <point x="68" y="637"/>
      <point x="60" y="646"/>
      <point x="61" y="650" type="curve" smooth="yes"/>
      <point x="30" y="555" type="line" smooth="yes"/>
      <point x="31" y="559"/>
      <point x="42" y="561"/>
      <point x="68" y="553" type="curve" smooth="yes"/>
      <point x="88" y="546"/>
      <point x="123" y="549"/>
      <point x="136" y="547" type="curve"/>
      <point x="127" y="537"/>
      <point x="97" y="519"/>
      <point x="86" y="503" type="curve" smooth="yes"/>
      <point x="71" y="482"/>
      <point x="60" y="477"/>
      <point x="56" y="479" type="curve"/>
    </contour>
  </outline>
</glyph>
<glyph name="plus" format="2">
  <advance width="400"/>
  <unicode hex="002B"/>
  <outline>
    <contour>
      <point x="170" y="130" type="line"/>
      <point x="230" y="130" type="line"/>
      <point x="230" y="470" type="line"/>
      <point x="170" y="470" type="line"/>
    </contour>
    <contour>
      <point x="30" y="270" type="line"/>
      <point x="370" y="270" type="line"/>
      <point x="370" y="330" type="line"/>
      <point x="30" y="330" type="line"/>
    </contour>
  </outline>
</glyph>
<glyph name="comma" format="2">
  <advance width="251"/>
  <unicode hex="002C"/>
  <outline>
    <contour>
      <point x="81" y="-120" type="line"/>
      <point x="136" y="-115"/>
      <point x="201" y="-68"/>
      <point x="201" y="10" type="curve" smooth="yes"/>
      <point x="201" y="61"/>
      <point x="175" y="110"/>
      <point x="111" y="110" type="curve" smooth="yes"/>
      <point x="71" y="110"/>
      <point x="50" y="85"/>
      <point x="50" y="55" type="curve" smooth="yes"/>
      <point x="50" y="25"/>
      <point x="72" y="0"/>
      <point x="111" y="0" type="curve" smooth="yes"/>
      <point x="117" y="0"/>
      <point x="126" y="1"/>
      <point x="131" y="2" type="curve"/>
      <point x="137" y="-31"/>
      <point x="118" y="-72"/>
      <point x="61" y="-85" type="curve"/>
    </contour>
  </outline>
</glyph>
<glyph name="period" format="2">
  <advance width="222"/>
  <unicode hex="002E"/>
  <outline>
    <contour>
      <point x="111" y="-10" type="curve" smooth="yes"/>
      <point x="150" y="-10"/>
      <point x="172" y="15"/>
      <point x="172" y="45" type="curve" smooth="yes"/>
      <point x="172" y="75"/>
      <point x="151" y="100"/>
      <point x="111" y="100" type="curve" smooth="yes"/>
      <point x="71" y="100"/>
      <point x="50" y="75"/>
      <point x="50" y="45" type="curve" smooth="yes"/>
      <point x="50" y="15"/>
      <point x="72" y="-10"/>
    </contour>
  </outline>
</glyph>
<glyph name="zero" format="2">
  <advance width="616"/>
  <unicode hex="0030"/>
  <anchor x="308" y="307" name="center"/>
  <outline>
    <contour>
      <point x="305" y="-10" type="curve" smooth="yes"/>
      <point x="316" y="-10" type="line" smooth="yes"/>
      <point x="488" y="-10"/>
      <point x="576" y="97"/>
      <point x="576" y="303" type="curve" smooth="yes"/>
      <point x="576" y="504"/>
      <point x="488" y="610"/>
      <point x="316" y="610" type="curve" smooth="yes"/>
      <point x="305" y="610" type="line" smooth="yes"/>
      <point x="130" y="610"/>
      <point x="40" y="503"/>
      <point x="40" y="303" type="curve" smooth="yes"/>
      <point x="40" y="98"/>
      <point x="128" y="-10"/>
    </contour>
    <contour>
      <point x="305" y="71" type="line" smooth="yes"/>
      <point x="210" y="71"/>
      <point x="152" y="116"/>
      <point x="152" y="303" type="curve" smooth="yes"/>
      <point x="152" y="485"/>
      <point x="209" y="530"/>
      <point x="305" y="530" type="curve" smooth="yes"/>
      <point x="316" y="530" type="line" smooth="yes"/>
      <point x="410" y="530"/>
      <point x="464" y="483"/>
      <point x="464" y="303" type="curve" smooth="yes"/>
      <point x="464" y="118"/>
      <point x="410" y="71"/>
      <point x="316" y="71" type="curve" smooth="yes"/>
    </contour>
  </outline>
</glyph>
<glyph name="one" format="2">
  <advance width="343"/>
  <unicode hex="0031"/>
  <outline>
    <contour>
      <point x="130" y="0" type="curve" smooth="yes"/>
      <point x="283" y="0" type="line" smooth="yes"/>
      <point x="274" y="0"/>
      <point x="262" y="17"/>
      <point x="262" y="60" type="curve" smooth="yes"/>
      <point x="262" y="610" type="line"/>
      <point x="215" y="593"/>
      <point x="122" y="570"/>
      <point x="40" y="570" type="curve"/>
      <point x="40" y="480" type="line"/>
      <point x="150" y="500" type="line"/>
      <point x="150" y="60" type="line" smooth="yes"/>
      <point x="150" y="17"/>
      <point x="139" y="0"/>
    </contour>
  </outline>
</glyph>
<glyph name="two" format="2">
  <advance width="566"/>
  <unicode hex="0032"/>
  <outline>
    <contour>
      <point x="30" y="0" type="line"/>
      <point x="516" y="0" type="line"/>
      <point x="516" y="31" type="line"/>
      <point x="536" y="111" type="line"/>
      <point x="519" y="98"/>
      <point x="466" y="81"/>
      <point x="386" y="81" type="curve" smooth="yes"/>
      <point x="168" y="81" type="line"/>
      <point x="168" y="84" type="line"/>
      <point x="190" y="98"/>
      <point x="244" y="139"/>
      <point x="313" y="199" type="curve" smooth="yes"/>
      <point x="412" y="286"/>
      <point x="496" y="358"/>
      <point x="496" y="464" type="curve" smooth="yes"/>
      <point x="496" y="538"/>
      <point x="444" y="610"/>
      <point x="283" y="610" type="curve" smooth="yes"/>
      <point x="160" y="610"/>
      <point x="78" y="576"/>
      <point x="50" y="550" type="curve"/>
      <point x="70" y="457" type="line"/>
      <point x="70" y="437" type="line"/>
      <point x="106" y="477"/>
      <point x="189" y="530"/>
      <point x="285" y="530" type="curve" smooth="yes"/>
      <point x="355" y="530"/>
      <point x="384" y="499"/>
      <point x="384" y="449" type="curve" smooth="yes"/>
      <point x="384" y="366"/>
      <point x="281" y="305"/>
      <point x="185" y="205" type="curve" smooth="yes"/>
      <point x="94" y="111"/>
      <point x="43" y="39"/>
      <point x="30" y="11" type="curve"/>
    </contour>
  </outline>
</glyph>
<glyph name="three" format="2">
  <advance width="576"/>
  <unicode hex="0033"/>
  <outline>
    <contour>
      <point x="294" y="-10" type="curve" smooth="yes"/>
      <point x="468" y="-10"/>
      <point x="536" y="64"/>
      <point x="536" y="165" type="curve" smooth="yes"/>
      <point x="536" y="246"/>
      <point x="484" y="291"/>
      <point x="388" y="312" type="curve"/>
      <point x="388" y="314" type="line"/>
      <point x="451" y="339"/>
      <point x="496" y="390"/>
      <point x="496" y="459" type="curve" smooth="yes"/>
      <point x="496" y="549"/>
      <point x="451" y="610"/>
      <point x="283" y="610" type="curve" smooth="yes"/>
      <point x="165" y="610"/>
      <point x="81" y="576"/>
      <point x="50" y="550" type="curve"/>
      <point x="70" y="457" type="line"/>
      <point x="70" y="437" type="line"/>
      <point x="107" y="477"/>
      <point x="190" y="530"/>
      <point x="285" y="530" type="curve" smooth="yes"/>
      <point x="351" y="530"/>
      <point x="384" y="502"/>
      <point x="384" y="451" type="curve" smooth="yes"/>
      <point x="384" y="382"/>
      <point x="351" y="340"/>
      <point x="265" y="340" type="curve" smooth="yes"/>
      <point x="180" y="340" type="line"/>
      <point x="180" y="265" type="line"/>
      <point x="265" y="265" type="line" smooth="yes"/>
      <point x="378" y="265"/>
      <point x="424" y="233"/>
      <point x="424" y="172" type="curve" smooth="yes"/>
      <point x="424" y="108"/>
      <point x="384" y="70"/>
      <point x="276" y="70" type="curve" smooth="yes"/>
      <point x="164" y="70"/>
      <point x="88" y="114"/>
      <point x="61" y="147" type="curve"/>
      <point x="61" y="127" type="line"/>
      <point x="40" y="30" type="line"/>
      <point x="69" y="13"/>
      <point x="158" y="-10"/>
    </contour>
  </outline>
</glyph>
<glyph name="four" format="2">
  <advance width="663"/>
  <unicode hex="0034"/>
  <outline>
    <contour>
      <point x="370" y="0" type="curve" smooth="yes"/>
      <point x="523" y="0" type="line" smooth="yes"/>
      <point x="514" y="0"/>
      <point x="502" y="17"/>
      <point x="502" y="60" type="curve" smooth="yes"/>
      <point x="502" y="115" type="line"/>
      <point x="633" y="115" type="line"/>
      <point x="633" y="135" type="line"/>
      <point x="653" y="216" type="line"/>
      <point x="639" y="207"/>
      <point x="591" y="195"/>
      <point x="513" y="195" type="curve" smooth="yes"/>
      <point x="502" y="195" type="line"/>
      <point x="503" y="539" type="line" smooth="yes"/>
      <point x="503" y="583"/>
      <point x="514" y="600"/>
      <point x="523" y="600" type="curve" smooth="yes"/>
      <point x="319" y="600" type="line"/>
      <point x="326" y="601"/>
      <point x="320" y="576"/>
      <point x="278" y="507" type="curve" smooth="yes"/>
      <point x="208" y="389"/>
      <point x="87" y="225"/>
      <point x="46" y="170" type="curve" smooth="yes"/>
      <point x="27" y="144"/>
      <point x="14" y="124"/>
      <point x="10" y="115" type="curve"/>
      <point x="390" y="115" type="line"/>
      <point x="390" y="60" type="line" smooth="yes"/>
      <point x="390" y="17"/>
      <point x="379" y="0"/>
    </contour>
    <contour>
      <point x="163" y="195" type="line"/>
      <point x="163" y="198" type="line"/>
      <point x="225" y="265"/>
      <point x="347" y="453"/>
      <point x="388" y="539" type="curve"/>
      <point x="390" y="539" type="line"/>
      <point x="390" y="195" type="line"/>
    </contour>
  </outline>
</glyph>
<glyph name="five" format="2">
  <advance width="616"/>
  <unicode hex="0035"/>
  <outline>
    <contour>
      <point x="324" y="-10" type="curve" smooth="yes"/>
      <point x="499" y="-10"/>
      <point x="576" y="68"/>
      <point x="576" y="179" type="curve" smooth="yes"/>
      <point x="576" y="315"/>
      <point x="498" y="374"/>
      <point x="324" y="374" type="curve" smooth="yes"/>
      <point x="232" y="374" type="line" smooth="yes"/>
      <point x="192" y="374"/>
      <point x="192" y="374"/>
      <point x="192" y="404" type="curve" smooth="yes"/>
      <point x="192" y="520" type="line"/>
      <point x="344" y="520" type="line" smooth="yes"/>
      <point x="462" y="520"/>
      <point x="527" y="509"/>
      <point x="542" y="500" type="curve"/>
      <point x="522" y="580" type="line"/>
      <point x="522" y="600" type="line"/>
      <point x="80" y="600" type="line"/>
      <point x="80" y="278" type="line"/>
      <point x="106" y="287"/>
      <point x="182" y="298"/>
      <point x="295" y="298" type="curve" smooth="yes"/>
      <point x="409" y="298"/>
      <point x="464" y="260"/>
      <point x="464" y="187" type="curve" smooth="yes"/>
      <point x="464" y="110"/>
      <point x="421" y="70"/>
      <point x="306" y="70" type="curve" smooth="yes"/>
      <point x="177" y="70"/>
      <point x="90" y="114"/>
      <point x="60" y="147" type="curve"/>
      <point x="60" y="127" type="line"/>
      <point x="40" y="30" type="line"/>
      <point x="80" y="13"/>
      <point x="185" y="-10"/>
    </contour>
  </outline>
</glyph>
<glyph name="six" format="2">
  <advance width="616"/>
  <unicode hex="0036"/>
  <outline>
    <contour>
      <point x="323" y="-10" type="curve" smooth="yes"/>
      <point x="344" y="-10" type="line" smooth="yes"/>
      <point x="519" y="-10"/>
      <point x="576" y="93"/>
      <point x="576" y="193" type="curve" smooth="yes"/>
      <point x="576" y="330"/>
      <point x="505" y="395"/>
      <point x="354" y="395" type="curve" smooth="yes"/>
      <point x="226" y="395"/>
      <point x="164" y="321"/>
      <point x="152" y="300" type="curve"/>
      <point x="150" y="301" type="line"/>
      <point x="150" y="467"/>
      <point x="232" y="528"/>
      <point x="342" y="528" type="curve" smooth="yes"/>
      <point x="440" y="528"/>
      <point x="514" y="494"/>
      <point x="543" y="468" type="curve"/>
      <point x="543" y="488" type="line"/>
      <point x="563" y="568" type="line"/>
      <point x="534" y="586"/>
      <point x="454" y="610"/>
      <point x="343" y="610" type="curve" smooth="yes"/>
      <point x="152" y="610"/>
      <point x="40" y="503"/>
      <point x="40" y="314" type="curve" smooth="yes"/>
      <point x="40" y="92"/>
      <point x="152" y="-10"/>
    </contour>
    <contour>
      <point x="316" y="71" type="curve" smooth="yes"/>
      <point x="219" y="71"/>
      <point x="172" y="117"/>
      <point x="172" y="191" type="curve" smooth="yes"/>
      <point x="172" y="266"/>
      <point x="229" y="315"/>
      <point x="325" y="315" type="curve" smooth="yes"/>
      <point x="418" y="315"/>
      <point x="464" y="280"/>
      <point x="464" y="198" type="curve" smooth="yes"/>
      <point x="464" y="118"/>
      <point x="423" y="71"/>
    </contour>
  </outline>
</glyph>
<glyph name="seven" format="2">
  <advance width="575"/>
  <unicode hex="0037"/>
  <outline>
    <contour>
      <point x="139" y="0" type="curve"/>
      <point x="317" y="0" type="line" smooth="yes"/>
      <point x="311" y="0"/>
      <point x="308" y="16"/>
      <point x="317" y="63" type="curve" smooth="yes"/>
      <point x="332" y="139"/>
      <point x="476" y="466"/>
      <point x="511" y="524" type="curve" smooth="yes"/>
      <point x="530" y="555"/>
      <point x="553" y="586"/>
      <point x="565" y="600" type="curve"/>
      <point x="30" y="600" type="line"/>
      <point x="30" y="480" type="line" smooth="yes"/>
      <point x="30" y="497"/>
      <point x="63" y="520"/>
      <point x="150" y="520" type="curve" smooth="yes"/>
      <point x="418" y="520" type="line"/>
      <point x="418" y="518" type="line"/>
      <point x="390" y="486"/>
      <point x="339" y="426"/>
      <point x="289" y="311" type="curve" smooth="yes"/>
      <point x="255" y="232"/>
      <point x="232" y="166"/>
      <point x="200" y="96" type="curve" smooth="yes"/>
      <point x="169" y="27"/>
      <point x="147" y="1"/>
    </contour>
  </outline>
</glyph>
<glyph name="nine" format="2">
  <advance width="616"/>
  <unicode hex="0039"/>
  <outline>
    <contour>
      <point x="282" y="-10" type="curve" smooth="yes"/>
      <point x="464" y="-10"/>
      <point x="576" y="78"/>
      <point x="576" y="304" type="curve" smooth="yes"/>
      <point x="576" y="508"/>
      <point x="495" y="608"/>
      <point x="303" y="608" type="curve" smooth="yes"/>
      <point x="282" y="608" type="line" smooth="yes"/>
      <point x="91" y="608"/>
      <point x="40" y="502"/>
      <point x="40" y="405" type="curve" smooth="yes"/>
      <point x="40" y="286"/>
      <point x="105" y="203"/>
      <point x="272" y="203" type="curve" smooth="yes"/>
      <point x="377" y="203"/>
      <point x="441" y="245"/>
      <point x="465" y="281" type="curve"/>
      <point x="467" y="280" type="line"/>
      <point x="467" y="132"/>
      <point x="411" y="71"/>
      <point x="263" y="71" type="curve" smooth="yes"/>
      <point x="176" y="71"/>
      <point x="102" y="105"/>
      <point x="70" y="130" type="curve"/>
      <point x="70" y="110" type="line"/>
      <point x="50" y="30" type="line"/>
      <point x="82" y="13"/>
      <point x="167" y="-10"/>
    </contour>
    <contour>
      <point x="305" y="283" type="curve" smooth="yes"/>
      <point x="186" y="283"/>
      <point x="152" y="335"/>
      <point x="152" y="399" type="curve" smooth="yes"/>
      <point x="152" y="469"/>
      <point x="193" y="527"/>
      <point x="300" y="527" type="curve" smooth="yes"/>
      <point x="416" y="527"/>
      <point x="454" y="476"/>
      <point x="454" y="403" type="curve" smooth="yes"/>
      <point x="454" y="324"/>
      <point x="402" y="283"/>
    </contour>
  </outline>
</glyph>
<glyph name="less" format="2">
  <advance width="400"/>
  <unicode hex="003C"/>
  <outline>
    <contour>
      <point x="370" y="110" type="line"/>
      <point x="30" y="260" type="line"/>
      <point x="30" y="340" type="line"/>
      <point x="370" y="490" type="line"/>
      <point x="370" y="410" type="line"/>
      <point x="96" y="300" type="line"/>
      <point x="370" y="190" type="line"/>
    </contour>
  </outline>
</glyph>
<glyph name="question" format="2">
  <advance width="526"/>
  <unicode hex="003F"/>
  <outline>
    <contour>
      <point x="213" y="191" type="curve" smooth="yes"/>
      <point x="228" y="191"/>
      <point x="243" y="285"/>
      <point x="243" y="300" type="curve"/>
      <point x="360" y="320"/>
      <point x="446" y="389"/>
      <point x="446" y="473" type="curve" smooth="yes"/>
      <point x="446" y="541"/>
      <point x="389" y="609"/>
      <point x="253" y="609" type="curve" smooth="yes"/>
      <point x="157" y="609"/>
      <point x="98" y="592"/>
      <point x="80" y="579" type="curve"/>
      <point x="100" y="506" type="line"/>
      <point x="100" y="476" type="line"/>
      <point x="128" y="503"/>
      <point x="187" y="539"/>
      <point x="248" y="539" type="curve" smooth="yes"/>
      <point x="312" y="539"/>
      <point x="334" y="517"/>
      <point x="334" y="478" type="curve" smooth="yes"/>
      <point x="334" y="418"/>
      <point x="271" y="361"/>
      <point x="182" y="340" type="curve"/>
      <point x="182" y="237"/>
      <point x="200" y="191"/>
    </contour>
    <component base="period" xOffset="104"/>
  </outline>
</glyph>
<glyph name="B" format="2">
  <advance width="715"/>
  <unicode hex="0042"/>
  <outline>
    <contour>
      <point x="60" y="0" type="curve" smooth="yes"/>
      <point x="455" y="0" type="line" smooth="yes"/>
      <point x="621" y="0"/>
      <point x="685" y="75"/>
      <point x="685" y="174" type="curve" smooth="yes"/>
      <point x="685" y="256"/>
      <point x="640" y="310"/>
      <point x="554" y="330" type="curve"/>
      <point x="554" y="332" type="line"/>
      <point x="592" y="345"/>
      <point x="636" y="385"/>
      <point x="636" y="452" type="curve" smooth="yes"/>
      <point x="636" y="542"/>
      <point x="576" y="600"/>
      <point x="415" y="600" type="curve" smooth="yes"/>
      <point x="60" y="600" type="line"/>
      <point x="69" y="599"/>
      <point x="81" y="582"/>
      <point x="81" y="540" type="curve" smooth="yes"/>
      <point x="81" y="60" type="line" smooth="yes"/>
      <point x="81" y="17"/>
      <point x="69" y="0"/>
    </contour>
    <contour>
      <point x="233" y="81" type="line" smooth="yes"/>
      <point x="194" y="81"/>
      <point x="193" y="81"/>
      <point x="193" y="111" type="curve" smooth="yes"/>
      <point x="193" y="245" type="line" smooth="yes"/>
      <point x="193" y="276"/>
      <point x="194" y="276"/>
      <point x="234" y="276" type="curve" smooth="yes"/>
      <point x="407" y="276" type="line" smooth="yes"/>
      <point x="534" y="276"/>
      <point x="573" y="246"/>
      <point x="573" y="178" type="curve" smooth="yes"/>
      <point x="573" y="119"/>
      <point x="534" y="81"/>
      <point x="437" y="81" type="curve" smooth="yes"/>
    </contour>
    <contour>
      <point x="234" y="346" type="line" smooth="yes"/>
      <point x="194" y="346"/>
      <point x="193" y="346"/>
      <point x="193" y="376" type="curve" smooth="yes"/>
      <point x="193" y="490" type="line" smooth="yes"/>
      <point x="193" y="520"/>
      <point x="194" y="520"/>
      <point x="234" y="520" type="curve" smooth="yes"/>
      <point x="407" y="520" type="line" smooth="yes"/>
      <point x="493" y="520"/>
      <point x="525" y="492"/>
      <point x="525" y="438" type="curve" smooth="yes"/>
      <point x="525" y="372"/>
      <point x="491" y="346"/>
      <point x="416" y="346" type="curve" smooth="yes"/>
    </contour>
  </outline>
</glyph>
<glyph name="C" format="2">
  <advance width="691"/>
  <unicode hex="0043"/>
  <anchor x="390" y="0" name="bottom"/>
  <anchor x="390" y="600" name="top"/>
  <outline>
    <contour>
      <point x="388" y="-10" type="curve" smooth="yes"/>
      <point x="541" y="-10"/>
      <point x="628" y="19"/>
      <point x="651" y="40" type="curve"/>
      <point x="641" y="101" type="line"/>
      <point x="641" y="131" type="line"/>
      <point x="613" y="105"/>
      <point x="533" y="71"/>
      <point x="419" y="71" type="curve" smooth="yes"/>
      <point x="207" y="71"/>
      <point x="157" y="166"/>
      <point x="157" y="300" type="curve" smooth="yes"/>
      <point x="157" y="434"/>
      <point x="212" y="530"/>
      <point x="390" y="530" type="curve" smooth="yes"/>
      <point x="516" y="530"/>
      <point x="613" y="496"/>
      <point x="651" y="470" type="curve"/>
      <point x="631" y="560" type="line"/>
      <point x="631" y="580" type="line"/>
      <point x="601" y="593"/>
      <point x="515" y="610"/>
      <point x="388" y="610" type="curve" smooth="yes"/>
      <point x="145" y="610"/>
      <point x="45" y="485"/>
      <point x="45" y="300" type="curve" smooth="yes"/>
      <point x="45" y="85"/>
      <point x="158" y="-10"/>
    </contour>
  </outline>
</glyph>
<glyph name="E" format="2">
  <advance width="684"/>
  <unicode hex="0045"/>
  <anchor x="364" y="0" name="bottom"/>
  <anchor x="644" y="10" name="ogonek"/>
  <anchor x="364" y="600" name="top"/>
  <anchor x="90" y="600" name="topleft"/>
  <outline>
    <contour>
      <point x="60" y="0" type="curve" smooth="yes"/>
      <point x="644" y="0" type="line"/>
      <point x="644" y="31" type="line"/>
      <point x="664" y="121" type="line"/>
      <point x="649" y="104"/>
      <point x="601" y="81"/>
      <point x="524" y="81" type="curve" smooth="yes"/>
      <point x="233" y="81" type="line" smooth="yes"/>
      <point x="193" y="81"/>
      <point x="193" y="81"/>
      <point x="193" y="112" type="curve" smooth="yes"/>
      <point x="193" y="236" type="line" smooth="yes"/>
      <point x="193" y="266"/>
      <point x="194" y="266"/>
      <point x="233" y="266" type="curve" smooth="yes"/>
      <point x="518" y="266" type="line"/>
      <point x="518" y="295"/>
      <point x="529" y="340"/>
      <point x="538" y="366" type="curve"/>
      <point x="523" y="357"/>
      <point x="475" y="346"/>
      <point x="398" y="346" type="curve" smooth="yes"/>
      <point x="233" y="346" type="line" smooth="yes"/>
      <point x="194" y="346"/>
      <point x="193" y="346"/>
      <point x="193" y="376" type="curve" smooth="yes"/>
      <point x="193" y="490" type="line" smooth="yes"/>
      <point x="193" y="518"/>
      <point x="194" y="520"/>
      <point x="234" y="520" type="curve" smooth="yes"/>
      <point x="403" y="520" type="line" smooth="yes"/>
      <point x="521" y="520"/>
      <point x="609" y="499"/>
      <point x="643" y="484" type="curve"/>
      <point x="623" y="580" type="line"/>
      <point x="623" y="600" type="line"/>
      <point x="60" y="600" type="line"/>
      <point x="69" y="599"/>
      <point x="81" y="582"/>
      <point x="81" y="540" type="curve" smooth="yes"/>
      <point x="81" y="60" type="line" smooth="yes"/>
      <point x="81" y="17"/>
      <point x="69" y="0"/>
    </contour>
  </outline>
</glyph>
<glyph name="G" format="2">
  <advance width="742"/>
  <unicode hex="0047"/>
  <anchor x="384" y="0" name="bottom"/>
  <anchor x="384" y="600" name="top"/>
  <outline>
    <contour>
      <point x="338" y="-10" type="curve" smooth="yes"/>
      <point x="474" y="-10"/>
      <point x="529" y="18"/>
      <point x="561" y="53" type="curve"/>
      <point x="563" y="51" type="line"/>
      <point x="561" y="23" type="line"/>
      <point x="561" y="0" type="line"/>
      <point x="692" y="0" type="line" smooth="yes"/>
      <point x="683" y="0"/>
      <point x="672" y="17"/>
      <point x="672" y="60" type="curve" smooth="yes"/>
      <point x="672" y="256" type="line" smooth="yes"/>
      <point x="672" y="298"/>
      <point x="683" y="315"/>
      <point x="692" y="316" type="curve"/>
      <point x="377" y="316" type="line"/>
      <point x="377" y="296" type="line"/>
      <point x="367" y="217" type="line"/>
      <point x="379" y="226"/>
      <point x="424" y="238"/>
      <point x="499" y="238" type="curve" smooth="yes"/>
      <point x="531" y="238" type="line" smooth="yes"/>
      <point x="561" y="238"/>
      <point x="561" y="238"/>
      <point x="561" y="208" type="curve" smooth="yes"/>
      <point x="561" y="182" type="line" smooth="yes"/>
      <point x="561" y="121"/>
      <point x="515" y="71"/>
      <point x="379" y="71" type="curve" smooth="yes"/>
      <point x="220" y="71"/>
      <point x="157" y="153"/>
      <point x="157" y="298" type="curve" smooth="yes"/>
      <point x="157" y="435"/>
      <point x="229" y="530"/>
      <point x="390" y="530" type="curve" smooth="yes"/>
      <point x="520" y="530"/>
      <point x="615" y="496"/>
      <point x="651" y="470" type="curve"/>
      <point x="631" y="560" type="line"/>
      <point x="631" y="580" type="line"/>
      <point x="600" y="593"/>
      <point x="514" y="610"/>
      <point x="388" y="610" type="curve" smooth="yes"/>
      <point x="145" y="610"/>
      <point x="45" y="482"/>
      <point x="45" y="298" type="curve" smooth="yes"/>
      <point x="45" y="88"/>
      <point x="157" y="-10"/>
    </contour>
  </outline>
</glyph>
<glyph name="H" format="2">
  <advance width="766"/>
  <unicode hex="0048"/>
  <anchor x="375" y="0" name="bottom"/>
  <anchor x="375" y="460" name="center"/>
  <anchor x="375" y="600" name="top"/>
  <anchor x="30" y="600" name="topleft"/>
  <outline>
    <contour>
      <point x="60" y="0" type="curve" smooth="yes"/>
      <point x="214" y="0" type="line" smooth="yes"/>
      <point x="205" y="0"/>
      <point x="193" y="17"/>
      <point x="193" y="60" type="curve" smooth="yes"/>
      <point x="193" y="236" type="line" smooth="yes"/>
      <point x="193" y="265"/>
      <point x="194" y="266"/>
      <point x="234" y="266" type="curve" smooth="yes"/>
      <point x="533" y="266" type="line" smooth="yes"/>
      <point x="572" y="266"/>
      <point x="573" y="266"/>
      <point x="573" y="236" type="curve" smooth="yes"/>
      <point x="573" y="60" type="line" smooth="yes"/>
      <point x="573" y="17"/>
      <point x="561" y="0"/>
      <point x="552" y="0" type="curve" smooth="yes"/>
      <point x="706" y="0" type="line" smooth="yes"/>
      <point x="697" y="0"/>
      <point x="685" y="17"/>
      <point x="685" y="60" type="curve" smooth="yes"/>
      <point x="685" y="539" type="line" smooth="yes"/>
      <point x="685" y="583"/>
      <point x="697" y="600"/>
      <point x="706" y="600" type="curve"/>
      <point x="552" y="600" type="line"/>
      <point x="561" y="599"/>
      <point x="573" y="582"/>
      <point x="573" y="540" type="curve" smooth="yes"/>
      <point x="573" y="376" type="line" smooth="yes"/>
      <point x="573" y="345"/>
      <point x="573" y="346"/>
      <point x="533" y="346" type="curve" smooth="yes"/>
      <point x="234" y="346" type="line" smooth="yes"/>
      <point x="194" y="346"/>
      <point x="193" y="347"/>
      <point x="193" y="376" type="curve" smooth="yes"/>
      <point x="193" y="539" type="line" smooth="yes"/>
      <point x="193" y="583"/>
      <point x="205" y="600"/>
      <point x="214" y="600" type="curve" smooth="yes"/>
      <point x="60" y="600" type="line"/>
      <point x="69" y="599"/>
      <point x="81" y="582"/>
      <point x="81" y="540" type="curve" smooth="yes"/>
      <point x="81" y="60" type="line" smooth="yes"/>
      <point x="81" y="17"/>
      <point x="69" y="0"/>
    </contour>
  </outline>
</glyph>
<glyph name="I" format="2">
  <advance width="274"/>
  <unicode hex="0049"/>
  <anchor x="137" y="0" name="bottom"/>
  <anchor x="217" y="10" name="ogonek"/>
  <anchor x="137" y="600" name="top"/>
  <anchor x="30" y="600" name="topleft"/>
  <outline>
    <contour>
      <point x="60" y="0" type="curve" smooth="yes"/>
      <point x="214" y="0" type="line" smooth="yes"/>
      <point x="205" y="0"/>
      <point x="193" y="17"/>
      <point x="193" y="60" type="curve" smooth="yes"/>
      <point x="193" y="539" type="line" smooth="yes"/>
      <point x="193" y="583"/>
      <point x="205" y="600"/>
      <point x="214" y="600" type="curve" smooth="yes"/>
      <point x="60" y="600" type="line"/>
      <point x="69" y="599"/>
      <point x="81" y="582"/>
      <point x="81" y="540" type="curve" smooth="yes"/>
      <point x="81" y="60" type="line" smooth="yes"/>
      <point x="81" y="17"/>
      <point x="69" y="0"/>
    </contour>
  </outline>
</glyph>
<glyph name="J" format="2">
  <advance width="539"/>
  <unicode hex="004A"/>
  <anchor x="250" y="0" name="bottom"/>
  <anchor x="410" y="600" name="top"/>
  <outline>
    <contour>
      <point x="243" y="-10" type="curve" smooth="yes"/>
      <point x="380" y="-10"/>
      <point x="468" y="34"/>
      <point x="468" y="210" type="curve" smooth="yes"/>
      <point x="468" y="539" type="line" smooth="yes"/>
      <point x="468" y="583"/>
      <point x="480" y="600"/>
      <point x="489" y="600" type="curve" smooth="yes"/>
      <point x="335" y="600" type="line"/>
      <point x="344" y="599"/>
      <point x="356" y="582"/>
      <point x="356" y="540" type="curve" smooth="yes"/>
      <point x="356" y="210" type="line" smooth="yes"/>
      <point x="356" y="106"/>
      <point x="323" y="70"/>
      <point x="225" y="70" type="curve" smooth="yes"/>
      <point x="136" y="70"/>
      <point x="67" y="121"/>
      <point x="40" y="160" type="curve"/>
      <point x="40" y="140" type="line"/>
      <point x="20" y="37" type="line"/>
      <point x="49" y="17"/>
      <point x="130" y="-10"/>
    </contour>
  </outline>
</glyph>
<glyph name="K" format="2">
  <advance width="755"/>
  <unicode hex="004B"/>
  <anchor x="358" y="0" name="bottom"/>
  <anchor x="338" y="600" name="top"/>
  <outline>
    <contour>
      <point x="60" y="0" type="curve" smooth="yes"/>
      <point x="214" y="0" type="line" smooth="yes"/>
      <point x="205" y="0"/>
      <point x="193" y="17"/>
      <point x="193" y="60" type="curve" smooth="yes"/>
      <point x="193" y="233" type="line" smooth="yes"/>
      <point x="193" y="265"/>
      <point x="193" y="266"/>
      <point x="234" y="266" type="curve" smooth="yes"/>
      <point x="245" y="266" type="line" smooth="yes"/>
      <point x="414" y="266"/>
      <point x="523" y="154"/>
      <point x="559" y="55" type="curve" smooth="yes"/>
      <point x="574" y="16"/>
      <point x="560" y="0"/>
      <point x="545" y="0" type="curve" smooth="yes"/>
      <point x="755" y="0" type="line" smooth="yes"/>
      <point x="742" y="0"/>
      <point x="714" y="20"/>
      <point x="684" y="70" type="curve" smooth="yes"/>
      <point x="639" y="145"/>
      <point x="590" y="209"/>
      <point x="521" y="258" type="curve" smooth="yes"/>
      <point x="464" y="298"/>
      <point x="420" y="313"/>
      <point x="388" y="320" type="curve"/>
      <point x="388" y="323" type="line"/>
      <point x="404" y="330"/>
      <point x="438" y="343"/>
      <point x="479" y="378" type="curve" smooth="yes"/>
      <point x="524" y="417"/>
      <point x="556" y="456"/>
      <point x="609" y="539" type="curve" smooth="yes"/>
      <point x="637" y="583"/>
      <point x="666" y="600"/>
      <point x="680" y="600" type="curve" smooth="yes"/>
      <point x="467" y="600" type="line"/>
      <point x="478" y="599"/>
      <point x="489" y="582"/>
      <point x="477" y="539" type="curve" smooth="yes"/>
      <point x="447" y="426"/>
      <point x="336" y="346"/>
      <point x="244" y="346" type="curve" smooth="yes"/>
      <point x="234" y="346" type="line" smooth="yes"/>
      <point x="195" y="346"/>
      <point x="193" y="346"/>
      <point x="193" y="376" type="curve" smooth="yes"/>
      <point x="193" y="539" type="line" smooth="yes"/>
      <point x="193" y="583"/>
      <point x="205" y="600"/>
      <point x="214" y="600" type="curve" smooth="yes"/>
      <point x="60" y="600" type="line"/>
      <point x="69" y="599"/>
      <point x="81" y="582"/>
      <point x="81" y="540" type="curve" smooth="yes"/>
      <point x="81" y="60" type="line" smooth="yes"/>
      <point x="81" y="17"/>
      <point x="69" y="0"/>
    </contour>
  </outline>
</glyph>
<glyph name="L" format="2">
  <advance width="637"/>
  <unicode hex="004C"/>
  <anchor x="324" y="0" name="bottom"/>
  <anchor x="144" y="300" name="center"/>
  <anchor x="314" y="600" name="top"/>
  <anchor x="617" y="600" name="topright"/>
  <outline>
    <contour>
      <point x="60" y="0" type="curve" smooth="yes"/>
      <point x="607" y="0" type="line"/>
      <point x="607" y="21" type="line"/>
      <point x="627" y="121" type="line"/>
      <point x="612" y="104"/>
      <point x="564" y="81"/>
      <point x="487" y="81" type="curve" smooth="yes"/>
      <point x="234" y="81" type="line" smooth="yes"/>
      <point x="194" y="81"/>
      <point x="193" y="82"/>
      <point x="193" y="112" type="curve" smooth="yes"/>
      <point x="193" y="539" type="line" smooth="yes"/>
      <point x="193" y="583"/>
      <point x="205" y="600"/>
      <point x="214" y="600" type="curve" smooth="yes"/>
      <point x="60" y="600" type="line"/>
      <point x="69" y="599"/>
      <point x="81" y="582"/>
      <point x="81" y="540" type="curve" smooth="yes"/>
      <point x="81" y="60" type="line" smooth="yes"/>
      <point x="81" y="17"/>
      <point x="69" y="0"/>
    </contour>
  </outline>
</glyph>
<glyph name="M" format="2">
  <advance width="947"/>
  <unicode hex="004D"/>
  <outline>
    <contour>
      <point x="60" y="0" type="curve" smooth="yes"/>
      <point x="214" y="0" type="line" smooth="yes"/>
      <point x="205" y="0"/>
      <point x="193" y="17"/>
      <point x="193" y="60" type="curve" smooth="yes"/>
      <point x="193" y="474" type="line"/>
      <point x="196" y="474" type="line"/>
      <point x="266" y="329"/>
      <point x="367" y="115"/>
      <point x="392" y="60" type="curve" smooth="yes"/>
      <point x="412" y="16"/>
      <point x="409" y="0"/>
      <point x="402" y="0" type="curve" smooth="yes"/>
      <point x="542" y="0" type="line"/>
      <point x="535" y="1"/>
      <point x="533" y="18"/>
      <point x="552" y="60" type="curve" smooth="yes"/>
      <point x="581" y="126"/>
      <point x="683" y="335"/>
      <point x="752" y="474" type="curve"/>
      <point x="754" y="474" type="line"/>
      <point x="754" y="60" type="line" smooth="yes"/>
      <point x="754" y="17"/>
      <point x="743" y="0"/>
      <point x="734" y="0" type="curve" smooth="yes"/>
      <point x="887" y="0" type="line" smooth="yes"/>
      <point x="878" y="0"/>
      <point x="866" y="17"/>
      <point x="866" y="60" type="curve" smooth="yes"/>
      <point x="866" y="539" type="line" smooth="yes"/>
      <point x="866" y="583"/>
      <point x="878" y="600"/>
      <point x="887" y="600" type="curve" smooth="yes"/>
      <point x="703" y="600" type="line" smooth="yes"/>
      <point x="705" y="600"/>
      <point x="701" y="583"/>
      <point x="682" y="540" type="curve" smooth="yes"/>
      <point x="663" y="497"/>
      <point x="552" y="270"/>
      <point x="473" y="110" type="curve"/>
      <point x="472" y="110" type="line"/>
      <point x="395" y="268"/>
      <point x="286" y="493"/>
      <point x="266" y="538" type="curve" smooth="yes"/>
      <point x="246" y="583"/>
      <point x="242" y="600"/>
      <point x="245" y="600" type="curve" smooth="yes"/>
      <point x="60" y="600" type="line"/>
      <point x="69" y="599"/>
      <point x="81" y="582"/>
      <point x="81" y="540" type="curve" smooth="yes"/>
      <point x="81" y="60" type="line" smooth="yes"/>
      <point x="81" y="17"/>
      <point x="69" y="0"/>
    </contour>
  </outline>
</glyph>
<glyph name="N" format="2">
  <advance width="766"/>
  <unicode hex="004E"/>
  <anchor x="385" y="0" name="bottom"/>
  <anchor x="385" y="600" name="top"/>
  <outline>
    <contour>
      <point x="60" y="0" type="curve" smooth="yes"/>
      <point x="214" y="0" type="line" smooth="yes"/>
      <point x="205" y="0"/>
      <point x="193" y="17"/>
      <point x="193" y="60" type="curve" smooth="yes"/>
      <point x="193" y="477" type="line"/>
      <point x="196" y="477" type="line"/>
      <point x="312" y="336"/>
      <point x="484" y="125"/>
      <point x="535" y="62" type="curve" smooth="yes"/>
      <point x="566" y="24"/>
      <point x="576" y="4"/>
      <point x="575" y="0" type="curve"/>
      <point x="706" y="0" type="line" smooth="yes"/>
      <point x="697" y="0"/>
      <point x="685" y="17"/>
      <point x="685" y="60" type="curve" smooth="yes"/>
      <point x="685" y="539" type="line" smooth="yes"/>
      <point x="685" y="583"/>
      <point x="697" y="600"/>
      <point x="706" y="600" type="curve" smooth="yes"/>
      <point x="552" y="600" type="line"/>
      <point x="561" y="599"/>
      <point x="573" y="582"/>
      <point x="573" y="540" type="curve" smooth="yes"/>
      <point x="573" y="165" type="line"/>
      <point x="571" y="165" type="line"/>
      <point x="448" y="308"/>
      <point x="277" y="509"/>
      <point x="254" y="538" type="curve" smooth="yes"/>
      <point x="223" y="576"/>
      <point x="214" y="596"/>
      <point x="215" y="600" type="curve"/>
      <point x="60" y="600" type="line"/>
      <point x="69" y="599"/>
      <point x="81" y="582"/>
      <point x="81" y="540" type="curve" smooth="yes"/>
      <point x="81" y="60" type="line" smooth="yes"/>
      <point x="81" y="17"/>
      <point x="69" y="0"/>
    </contour>
  </outline>
</glyph>
<glyph name="O" format="2">
  <advance width="766"/>
  <unicode hex="004F"/>
  <anchor x="383" y="0" name="bottom"/>
  <anchor x="383" y="300" name="center"/>
  <anchor x="487" y="3" name="ogonek"/>
  <anchor x="383" y="600" name="top"/>
  <anchor x="35" y="600" name="topleft"/>
  <anchor x="731" y="510" name="topright"/>
  <outline>
    <contour>
      <point x="370" y="-10" type="curve" smooth="yes"/>
      <point x="401" y="-10" type="line" smooth="yes"/>
      <point x="625" y="-10"/>
      <point x="721" y="105"/>
      <point x="721" y="303" type="curve" smooth="yes"/>
      <point x="721" y="493"/>
      <point x="626" y="610"/>
      <point x="401" y="610" type="curve" smooth="yes"/>
      <point x="370" y="610" type="line" smooth="yes"/>
      <point x="140" y="610"/>
      <point x="45" y="492"/>
      <point x="45" y="303" type="curve" smooth="yes"/>
      <point x="45" y="106"/>
      <point x="141" y="-10"/>
    </contour>
    <contour>
      <point x="380" y="71" type="line" smooth="yes"/>
      <point x="231" y="71"/>
      <point x="157" y="130"/>
      <point x="157" y="303" type="curve" smooth="yes"/>
      <point x="157" y="469"/>
      <point x="229" y="530"/>
      <point x="380" y="530" type="curve" smooth="yes"/>
      <point x="391" y="530" type="line" smooth="yes"/>
      <point x="538" y="530"/>
      <point x="609" y="472"/>
      <point x="609" y="303" type="curve" smooth="yes"/>
      <point x="609" y="129"/>
      <point x="540" y="71"/>
      <point x="391" y="71" type="curve" smooth="yes"/>
    </contour>
  </outline>
</glyph>
<glyph name="P" format="2">
  <advance width="663"/>
  <unicode hex="0050"/>
  <outline>
    <contour>
      <point x="61" y="0" type="curve" smooth="yes"/>
      <point x="214" y="0" type="line" smooth="yes"/>
      <point x="205" y="0"/>
      <point x="193" y="17"/>
      <point x="193" y="60" type="curve" smooth="yes"/>
      <point x="193" y="201" type="line"/>
      <point x="388" y="201" type="line" smooth="yes"/>
      <point x="568" y="201"/>
      <point x="628" y="278"/>
      <point x="628" y="403" type="curve" smooth="yes"/>
      <point x="628" y="521"/>
      <point x="570" y="600"/>
      <point x="388" y="600" type="curve" smooth="yes"/>
      <point x="60" y="600" type="line"/>
      <point x="69" y="599"/>
      <point x="81" y="582"/>
      <point x="81" y="540" type="curve" smooth="yes"/>
      <point x="81" y="60" type="line" smooth="yes"/>
      <point x="81" y="17"/>
      <point x="70" y="0"/>
    </contour>
    <contour>
      <point x="234" y="280" type="line" smooth="yes"/>
      <point x="193" y="280"/>
      <point x="193" y="281"/>
      <point x="193" y="308" type="curve" smooth="yes"/>
      <point x="193" y="492" type="line" smooth="yes"/>
      <point x="193" y="519"/>
      <point x="193" y="519"/>
      <point x="234" y="519" type="curve" smooth="yes"/>
      <point x="367" y="519" type="line" smooth="yes"/>
      <point x="485" y="519"/>
      <point x="517" y="477"/>
      <point x="517" y="403" type="curve" smooth="yes"/>
      <point x="517" y="332"/>
      <point x="496" y="280"/>
      <point x="367" y="280" type="curve" smooth="yes"/>
    </contour>
  </outline>
</glyph>
<glyph name="R" format="2">
  <advance width="740"/>
  <unicode hex="0052"/>
  <anchor x="353" y="0" name="bottom"/>
  <anchor x="333" y="600" name="top"/>
  <outline>
    <contour>
      <point x="61" y="0" type="curve" smooth="yes"/>
      <point x="214" y="0" type="line" smooth="yes"/>
      <point x="205" y="0"/>
      <point x="193" y="17"/>
      <point x="193" y="60" type="curve" smooth="yes"/>
      <point x="193" y="191" type="line" smooth="yes"/>
      <point x="193" y="218"/>
      <point x="193" y="221"/>
      <point x="234" y="221" type="curve" smooth="yes"/>
      <point x="245" y="221" type="line" smooth="yes"/>
      <point x="405" y="221"/>
      <point x="497" y="151"/>
      <point x="539" y="55" type="curve" smooth="yes"/>
      <point x="556" y="16"/>
      <point x="541" y="1"/>
      <point x="525" y="0" type="curve"/>
      <point x="735" y="0" type="line"/>
      <point x="722" y="1"/>
      <point x="694" y="21"/>
      <point x="664" y="70" type="curve" smooth="yes"/>
      <point x="617" y="146"/>
      <point x="554" y="217"/>
      <point x="465" y="241" type="curve"/>
      <point x="465" y="244" type="line"/>
      <point x="584" y="260"/>
      <point x="628" y="338"/>
      <point x="628" y="413" type="curve" smooth="yes"/>
      <point x="628" y="530"/>
      <point x="573" y="600"/>
      <point x="388" y="600" type="curve" smooth="yes"/>
      <point x="60" y="600" type="line"/>
      <point x="69" y="599"/>
      <point x="81" y="582"/>
      <point x="81" y="540" type="curve" smooth="yes"/>
      <point x="81" y="60" type="line" smooth="yes"/>
      <point x="81" y="17"/>
      <point x="70" y="0"/>
    </contour>
    <contour>
      <point x="234" y="301" type="line" smooth="yes"/>
      <point x="193" y="301"/>
      <point x="193" y="301"/>
      <point x="193" y="328" type="curve" smooth="yes"/>
      <point x="193" y="493" type="line" smooth="yes"/>
      <point x="193" y="519"/>
      <point x="193" y="519"/>
      <point x="234" y="519" type="curve" smooth="yes"/>
      <point x="367" y="519" type="line" smooth="yes"/>
      <point x="472" y="519"/>
      <point x="517" y="487"/>
      <point x="517" y="413" type="curve" smooth="yes"/>
      <point x="517" y="339"/>
      <point x="463" y="301"/>
      <point x="357" y="301" type="curve" smooth="yes"/>
    </contour>
  </outline>
</glyph>
<glyph name="S" format="2">
  <advance width="706"/>
  <unicode hex="0053"/>
  <anchor x="338" y="0" name="bottom"/>
  <anchor x="338" y="600" name="top"/>
  <outline>
    <contour>
      <point x="374" y="-10" type="curve" smooth="yes"/>
      <point x="566" y="-10"/>
      <point x="666" y="55"/>
      <point x="666" y="160" type="curve" smooth="yes"/>
      <point x="666" y="277"/>
      <point x="589" y="324"/>
      <point x="374" y="349" type="curve" smooth="yes"/>
      <point x="238" y="365"/>
      <point x="162" y="385"/>
      <point x="162" y="452" type="curve" smooth="yes"/>
      <point x="162" y="502"/>
      <point x="203" y="530"/>
      <point x="328" y="530" type="curve" smooth="yes"/>
      <point x="477" y="530"/>
      <point x="590" y="496"/>
      <point x="633" y="470" type="curve"/>
      <point x="603" y="560" type="line"/>
      <point x="603" y="580" type="line"/>
      <point x="560" y="593"/>
      <point x="452" y="610"/>
      <point x="313" y="610" type="curve" smooth="yes"/>
      <point x="133" y="610"/>
      <point x="50" y="539"/>
      <point x="50" y="446" type="curve" smooth="yes"/>
      <point x="50" y="335"/>
      <point x="126" y="288"/>
      <point x="323" y="263" type="curve" smooth="yes"/>
      <point x="475" y="244"/>
      <point x="554" y="225"/>
      <point x="554" y="161" type="curve" smooth="yes"/>
      <point x="554" y="106"/>
      <point x="519" y="70"/>
      <point x="356" y="70" type="curve" smooth="yes"/>
      <point x="173" y="70"/>
      <point x="68" y="114"/>
      <point x="40" y="147" type="curve"/>
      <point x="60" y="40" type="line"/>
      <point x="60" y="20" type="line"/>
      <point x="109" y="7"/>
      <point x="228" y="-10"/>
    </contour>
  </outline>
</glyph>
<glyph name="T" format="2">
  <advance width="638"/>
  <unicode hex="0054"/>
  <anchor x="319" y="0" name="bottom"/>
  <anchor x="319" y="300" name="center"/>
  <anchor x="319" y="600" name="top"/>
  <outline>
    <contour>
      <point x="242" y="0" type="curve" smooth="yes"/>
      <point x="396" y="0" type="line" smooth="yes"/>
      <point x="387" y="0"/>
      <point x="375" y="17"/>
      <point x="375" y="60" type="curve" smooth="yes"/>
      <point x="375" y="490" type="line" smooth="yes"/>
      <point x="375" y="519"/>
      <point x="375" y="520"/>
      <point x="416" y="520" type="curve" smooth="yes"/>
      <point x="488" y="520" type="line" smooth="yes"/>
      <point x="565" y="520"/>
      <point x="613" y="499"/>
      <point x="628" y="484" type="curve"/>
      <point x="608" y="580" type="line"/>
      <point x="608" y="600" type="line"/>
      <point x="30" y="600" type="line"/>
      <point x="30" y="580" type="line"/>
      <point x="10" y="484" type="line"/>
      <point x="25" y="499"/>
      <point x="73" y="520"/>
      <point x="150" y="520" type="curve" smooth="yes"/>
      <point x="223" y="520" type="line" smooth="yes"/>
      <point x="263" y="520"/>
      <point x="263" y="519"/>
      <point x="263" y="490" type="curve" smooth="yes"/>
      <point x="263" y="60" type="line" smooth="yes"/>
      <point x="263" y="17"/>
      <point x="251" y="0"/>
    </contour>
  </outline>
</glyph>
<glyph name="U" format="2">
  <advance width="735"/>
  <unicode hex="0055"/>
  <anchor x="368" y="0" name="bottom"/>
  <anchor x="451" y="2" name="ogonek"/>
  <anchor x="368" y="600" name="top"/>
  <anchor x="715" y="600" name="topright"/>
  <outline>
    <contour>
      <point x="363" y="-10" type="curve" smooth="yes"/>
      <point x="373" y="-10" type="line" smooth="yes"/>
      <point x="572" y="-10"/>
      <point x="665" y="91"/>
      <point x="665" y="259" type="curve" smooth="yes"/>
      <point x="665" y="540" type="line" smooth="yes"/>
      <point x="665" y="582"/>
      <point x="676" y="599"/>
      <point x="685" y="600" type="curve"/>
      <point x="533" y="600" type="line" smooth="yes"/>
      <point x="542" y="600"/>
      <point x="553" y="583"/>
      <point x="553" y="541" type="curve" smooth="yes"/>
      <point x="553" y="261" type="line" smooth="yes"/>
      <point x="553" y="119"/>
      <point x="489" y="71"/>
      <point x="375" y="71" type="curve" smooth="yes"/>
      <point x="364" y="71" type="line" smooth="yes"/>
      <point x="251" y="71"/>
      <point x="182" y="121"/>
      <point x="182" y="261" type="curve" smooth="yes"/>
      <point x="182" y="541" type="line" smooth="yes"/>
      <point x="182" y="583"/>
      <point x="193" y="599"/>
      <point x="202" y="600" type="curve"/>
      <point x="50" y="600" type="line" smooth="yes"/>
      <point x="59" y="600"/>
      <point x="70" y="584"/>
      <point x="70" y="541" type="curve" smooth="yes"/>
      <point x="70" y="259" type="line" smooth="yes"/>
      <point x="70" y="91"/>
      <point x="160" y="-10"/>
    </contour>
  </outline>
</glyph>
<glyph name="V" format="2">
  <advance width="737"/>
  <unicode hex="0056"/>
  <outline>
    <contour>
      <point x="290" y="0" type="curve" smooth="yes"/>
      <point x="450" y="0" type="line" smooth="yes"/>
      <point x="443" y="0"/>
      <point x="438" y="17"/>
      <point x="450" y="61" type="curve" smooth="yes"/>
      <point x="466" y="121"/>
      <point x="651" y="483"/>
      <point x="680" y="541" type="curve" smooth="yes"/>
      <point x="701" y="583"/>
      <point x="719" y="600"/>
      <point x="727" y="600" type="curve" smooth="yes"/>
      <point x="548" y="600" type="line" smooth="yes"/>
      <point x="559" y="600"/>
      <point x="567" y="583"/>
      <point x="548" y="540" type="curve" smooth="yes"/>
      <point x="530" y="497"/>
      <point x="436" y="270"/>
      <point x="371" y="110" type="curve"/>
      <point x="370" y="110" type="line"/>
      <point x="306" y="268"/>
      <point x="215" y="493"/>
      <point x="195" y="538" type="curve" smooth="yes"/>
      <point x="175" y="583"/>
      <point x="183" y="600"/>
      <point x="195" y="600" type="curve" smooth="yes"/>
      <point x="10" y="600" type="line"/>
      <point x="19" y="599"/>
      <point x="38" y="581"/>
      <point x="61" y="538" type="curve" smooth="yes"/>
      <point x="94" y="477"/>
      <point x="274" y="104"/>
      <point x="290" y="61" type="curve" smooth="yes"/>
      <point x="306" y="17"/>
      <point x="299" y="0"/>
    </contour>
  </outline>
</glyph>
<glyph name="W" format="2">
  <advance width="1176"/>
  <unicode hex="0057"/>
  <anchor x="588" y="0" name="bottom"/>
  <anchor x="588" y="600" name="top"/>
  <outline>
    <contour>
      <point x="266" y="0" type="curve"/>
      <point x="436" y="0" type="line"/>
      <point x="429" y="1"/>
      <point x="424" y="19"/>
      <point x="436" y="62" type="curve" smooth="yes"/>
      <point x="448" y="105"/>
      <point x="528" y="337"/>
      <point x="585" y="500" type="curve"/>
      <point x="587" y="500" type="line"/>
      <point x="644" y="337"/>
      <point x="725" y="106"/>
      <point x="738" y="62" type="curve" smooth="yes"/>
      <point x="751" y="18"/>
      <point x="746" y="1"/>
      <point x="738" y="0" type="curve"/>
      <point x="908" y="0" type="line"/>
      <point x="900" y="1"/>
      <point x="894" y="18"/>
      <point x="908" y="62" type="curve" smooth="yes"/>
      <point x="927" y="122"/>
      <point x="1084" y="477"/>
      <point x="1116" y="538" type="curve" smooth="yes"/>
      <point x="1138" y="580"/>
      <point x="1157" y="598"/>
      <point x="1166" y="600" type="curve"/>
      <point x="985" y="600" type="line" smooth="yes"/>
      <point x="993" y="600"/>
      <point x="999" y="583"/>
      <point x="985" y="538" type="curve" smooth="yes"/>
      <point x="971" y="493"/>
      <point x="886" y="267"/>
      <point x="826" y="108" type="curve"/>
      <point x="824" y="108" type="line"/>
      <point x="771" y="266"/>
      <point x="696" y="492"/>
      <point x="683" y="537" type="curve" smooth="yes"/>
      <point x="669" y="583"/>
      <point x="675" y="600"/>
      <point x="683" y="600" type="curve" smooth="yes"/>
      <point x="492" y="600" type="line"/>
      <point x="499" y="599"/>
      <point x="504" y="582"/>
      <point x="492" y="538" type="curve" smooth="yes"/>
      <point x="478" y="487"/>
      <point x="403" y="263"/>
      <point x="351" y="108" type="curve"/>
      <point x="349" y="108" type="line"/>
      <point x="291" y="267"/>
      <point x="207" y="494"/>
      <point x="192" y="538" type="curve" smooth="yes"/>
      <point x="177" y="582"/>
      <point x="182" y="599"/>
      <point x="191" y="600" type="curve"/>
      <point x="10" y="600" type="line"/>
      <point x="21" y="599"/>
      <point x="43" y="582"/>
      <point x="61" y="540" type="curve" smooth="yes"/>
      <point x="92" y="470"/>
      <point x="250" y="102"/>
      <point x="266" y="59" type="curve" smooth="yes"/>
      <point x="281" y="19"/>
      <point x="275" y="2"/>
    </contour>
  </outline>
</glyph>
<glyph name="X" format="2">
  <advance width="722"/>
  <unicode hex="0058"/>
  <outline>
    <contour>
      <point x="10" y="0" type="curve"/>
      <point x="198" y="0" type="line"/>
      <point x="188" y="1"/>
      <point x="187" y="18"/>
      <point x="219" y="60" type="curve" smooth="yes"/>
      <point x="261" y="115"/>
      <point x="350" y="228"/>
      <point x="361" y="243" type="curve"/>
      <point x="363" y="243" type="line"/>
      <point x="375" y="227"/>
      <point x="472" y="109"/>
      <point x="507" y="62" type="curve" smooth="yes"/>
      <point x="539" y="18"/>
      <point x="538" y="1"/>
      <point x="528" y="0" type="curve"/>
      <point x="712" y="0" type="line"/>
      <point x="704" y="2"/>
      <point x="679" y="20"/>
      <point x="640" y="62" type="curve" smooth="yes"/>
      <point x="602" y="103"/>
      <point x="499" y="222"/>
      <point x="432" y="301" type="curve"/>
      <point x="503" y="381"/>
      <point x="573" y="461"/>
      <point x="644" y="541" type="curve" smooth="yes"/>
      <point x="682" y="583"/>
      <point x="705" y="600"/>
      <point x="711" y="600" type="curve" smooth="yes"/>
      <point x="524" y="600" type="line" smooth="yes"/>
      <point x="533" y="600"/>
      <point x="534" y="584"/>
      <point x="503" y="540" type="curve" smooth="yes"/>
      <point x="464" y="484"/>
      <point x="375" y="368"/>
      <point x="364" y="353" type="curve"/>
      <point x="362" y="353" type="line"/>
      <point x="350" y="369"/>
      <point x="262" y="490"/>
      <point x="226" y="538" type="curve" smooth="yes"/>
      <point x="190" y="585"/>
      <point x="193" y="601"/>
      <point x="205" y="600" type="curve"/>
      <point x="10" y="600" type="line"/>
      <point x="18" y="599"/>
      <point x="43" y="582"/>
      <point x="82" y="538" type="curve" smooth="yes"/>
      <point x="119" y="496"/>
      <point x="224" y="378"/>
      <point x="292" y="301" type="curve"/>
      <point x="220" y="220"/>
      <point x="149" y="140"/>
      <point x="77" y="59" type="curve" smooth="yes"/>
      <point x="40" y="18"/>
      <point x="17" y="1"/>
    </contour>
  </outline>
</glyph>
<glyph name="Z" format="2">
  <advance width="676"/>
  <unicode hex="005A"/>
  <anchor x="343" y="0" name="bottom"/>
  <anchor x="343" y="600" name="top"/>
  <outline>
    <contour>
      <point x="10" y="0" type="curve"/>
      <point x="646" y="0" type="line"/>
      <point x="646" y="31" type="line"/>
      <point x="666" y="121" type="line"/>
      <point x="654" y="104"/>
      <point x="611" y="81"/>
      <point x="536" y="81" type="curve" smooth="yes"/>
      <point x="198" y="81" type="line"/>
      <point x="198" y="84" type="line"/>
      <point x="307" y="211"/>
      <point x="490" y="424"/>
      <point x="592" y="544" type="curve" smooth="yes"/>
      <point x="615" y="571"/>
      <point x="631" y="592"/>
      <point x="636" y="600" type="curve"/>
      <point x="40" y="600" type="line"/>
      <point x="40" y="480" type="line"/>
      <point x="45" y="497"/>
      <point x="83" y="520"/>
      <point x="170" y="520" type="curve" smooth="yes"/>
      <point x="439" y="520" type="line"/>
      <point x="439" y="518" type="line"/>
      <point x="314" y="373"/>
      <point x="122" y="147"/>
      <point x="50" y="58" type="curve" smooth="yes"/>
      <point x="24" y="27"/>
      <point x="12" y="6"/>
    </contour>
  </outline>
</glyph>
<glyph name="bracketleft" format="2">
  <advance width="210"/>
  <unicode hex="005B"/>
  <outline>
    <contour>
      <point x="170" y="-80" type="curve"/>
      <point x="30" y="-80" type="line" smooth="yes"/>
      <point x="34" y="-80"/>
      <point x="40" y="-63"/>
      <point x="40" y="-20" type="curve" smooth="yes"/>
      <point x="40" y="628" type="line" smooth="yes"/>
      <point x="40" y="672"/>
      <point x="34" y="689"/>
      <point x="30" y="689" type="curve" smooth="yes"/>
      <point x="170" y="689" type="line"/>
      <point x="170" y="666"/>
      <point x="176" y="647"/>
      <point x="180" y="639" type="curve"/>
      <point x="99" y="649" type="line"/>
      <point x="99" y="-40" type="line"/>
      <point x="180" y="-30" type="line"/>
      <point x="176" y="-38"/>
      <point x="170" y="-57"/>
    </contour>
  </outline>
</glyph>
<glyph name="backslash" format="2">
  <advance width="405"/>
  <unicode hex="005C"/>
  <outline>
    <contour>
      <point x="375" y="-60" type="line"/>
      <point x="295" y="-60" type="line"/>
      <point x="30" y="688" type="line"/>
      <point x="111" y="688" type="line"/>
    </contour>
  </outline>
</glyph>
<glyph name="asciicircum" format="2">
  <advance width="382"/>
  <unicode hex="005E"/>
  <outline>
    <contour>
      <point x="30" y="341" type="curve"/>
      <point x="100" y="341" type="line"/>
      <point x="194" y="519" type="line"/>
      <point x="282" y="341" type="line"/>
      <point x="352" y="341" type="line"/>
      <point x="303" y="427"/>
      <point x="235" y="545"/>
      <point x="227" y="560" type="curve" smooth="yes"/>
      <point x="220" y="574"/>
      <point x="221" y="580"/>
      <point x="224" y="581" type="curve"/>
      <point x="164" y="581" type="line" smooth="yes"/>
      <point x="167" y="581"/>
      <point x="167" y="575"/>
      <point x="160" y="560" type="curve" smooth="yes"/>
      <point x="154" y="548"/>
      <point x="82" y="428"/>
    </contour>
  </outline>
</glyph>
<glyph name="a" format="2">
  <advance width="605"/>
  <unicode hex="0061"/>
  <anchor x="308" y="0" name="bottom"/>
  <anchor x="543" y="7" name="ogonek"/>
  <anchor x="308" y="468" name="top"/>
  <outline>
    <contour>
      <point x="237" y="-10" type="curve" smooth="yes"/>
      <point x="326" y="-10"/>
      <point x="399" y="10"/>
      <point x="443" y="50" type="curve"/>
      <point x="445" y="49" type="line"/>
      <point x="443" y="30" type="line"/>
      <point x="443" y="0" type="line"/>
      <point x="565" y="0" type="line"/>
      <point x="556" y="9"/>
      <point x="545" y="22"/>
      <point x="545" y="60" type="curve" smooth="yes"/>
      <point x="545" y="260" type="line" smooth="yes"/>
      <point x="545" y="408"/>
      <point x="471" y="478"/>
      <point x="303" y="478" type="curve" smooth="yes"/>
      <point x="170" y="478"/>
      <point x="88" y="446"/>
      <point x="70" y="438" type="curve"/>
      <point x="80" y="363" type="line"/>
      <point x="80" y="343" type="line"/>
      <point x="93" y="356"/>
      <point x="176" y="408"/>
      <point x="295" y="408" type="curve" smooth="yes"/>
      <point x="404" y="408"/>
      <point x="442" y="362"/>
      <point x="443" y="244" type="curve"/>
      <point x="422" y="258"/>
      <point x="359" y="286"/>
      <point x="255" y="286" type="curve" smooth="yes"/>
      <point x="109" y="286"/>
      <point x="40" y="229"/>
      <point x="40" y="136" type="curve" smooth="yes"/>
      <point x="40" y="46"/>
      <point x="91" y="-10"/>
    </contour>
    <contour>
      <point x="270" y="61" type="curve" smooth="yes"/>
      <point x="179" y="61"/>
      <point x="141" y="84"/>
      <point x="141" y="136" type="curve" smooth="yes"/>
      <point x="141" y="189"/>
      <point x="178" y="216"/>
      <point x="281" y="216" type="curve" smooth="yes"/>
      <point x="391" y="216"/>
      <point x="443" y="184"/>
      <point x="443" y="144" type="curve" smooth="yes"/>
      <point x="443" y="96"/>
      <point x="378" y="61"/>
    </contour>
  </outline>
</glyph>
<glyph name="b" format="2">
  <advance width="607"/>
  <unicode hex="0062"/>
  <outline>
    <contour>
      <point x="324" y="-10" type="curve" smooth="yes"/>
      <point x="512" y="-10"/>
      <point x="572" y="94"/>
      <point x="572" y="233" type="curve" smooth="yes"/>
      <point x="572" y="372"/>
      <point x="509" y="478"/>
      <point x="324" y="478" type="curve" smooth="yes"/>
      <point x="251" y="478"/>
      <point x="194" y="452"/>
      <point x="168" y="427" type="curve"/>
      <point x="166" y="429" type="line"/>
      <point x="168" y="448" type="line"/>
      <point x="168" y="690" type="line"/>
      <point x="46" y="690" type="line"/>
      <point x="55" y="689"/>
      <point x="66" y="672"/>
      <point x="66" y="630" type="curve" smooth="yes"/>
      <point x="66" y="60" type="line" smooth="yes"/>
      <point x="66" y="17"/>
      <point x="55" y="0"/>
      <point x="46" y="0" type="curve" smooth="yes"/>
      <point x="168" y="0" type="line"/>
      <point x="168" y="19" type="line"/>
      <point x="166" y="38" type="line"/>
      <point x="168" y="39" type="line"/>
      <point x="202" y="8"/>
      <point x="251" y="-10"/>
    </contour>
    <contour>
      <point x="314" y="61" type="curve" smooth="yes"/>
      <point x="202" y="61"/>
      <point x="168" y="127"/>
      <point x="168" y="233" type="curve" smooth="yes"/>
      <point x="168" y="329"/>
      <point x="194" y="408"/>
      <point x="314" y="408" type="curve" smooth="yes"/>
      <point x="437" y="408"/>
      <point x="470" y="343"/>
      <point x="470" y="233" type="curve" smooth="yes"/>
      <point x="470" y="123"/>
      <point x="438" y="61"/>
    </contour>
  </outline>
</glyph>
<glyph name="c" format="2">
  <advance width="560"/>
  <unicode hex="0063"/>
  <anchor x="283" y="0" name="bottom"/>
  <anchor x="283" y="468" name="top"/>
  <outline>
    <contour>
      <point x="306" y="-10" type="curve" smooth="yes"/>
      <point x="418" y="-10"/>
      <point x="494" y="17"/>
      <point x="520" y="38" type="curve"/>
      <point x="510" y="106" type="line"/>
      <point x="510" y="126" type="line"/>
      <point x="488" y="98"/>
      <point x="424" y="61"/>
      <point x="330" y="61" type="curve" smooth="yes"/>
      <point x="217" y="61"/>
      <point x="136" y="95"/>
      <point x="136" y="232" type="curve" smooth="yes"/>
      <point x="136" y="372"/>
      <point x="216" y="407"/>
      <point x="303" y="407" type="curve" smooth="yes"/>
      <point x="416" y="407"/>
      <point x="493" y="369"/>
      <point x="520" y="341" type="curve"/>
      <point x="500" y="428" type="line"/>
      <point x="500" y="448" type="line"/>
      <point x="473" y="460"/>
      <point x="400" y="477"/>
      <point x="296" y="477" type="curve" smooth="yes"/>
      <point x="125" y="477"/>
      <point x="35" y="396"/>
      <point x="35" y="233" type="curve" smooth="yes"/>
      <point x="35" y="95"/>
      <point x="97" y="-10"/>
    </contour>
  </outline>
</glyph>
<glyph name="e" format="2">
  <advance width="560"/>
  <unicode hex="0065"/>
  <anchor x="278" y="0" name="bottom"/>
  <anchor x="475" y="20" name="ogonek"/>
  <anchor x="278" y="468" name="top"/>
  <outline>
    <contour>
      <point x="297" y="-10" type="curve" smooth="yes"/>
      <point x="404" y="-10"/>
      <point x="481" y="13"/>
      <point x="510" y="30" type="curve"/>
      <point x="500" y="96" type="line"/>
      <point x="500" y="116" type="line"/>
      <point x="478" y="92"/>
      <point x="412" y="61"/>
      <point x="312" y="61" type="curve" smooth="yes"/>
      <point x="196" y="61"/>
      <point x="137" y="122"/>
      <point x="137" y="221" type="curve"/>
      <point x="400" y="221" type="line" smooth="yes"/>
      <point x="487" y="221"/>
      <point x="520" y="215"/>
      <point x="520" y="211" type="curve" smooth="yes"/>
      <point x="520" y="258" type="line" smooth="yes"/>
      <point x="520" y="356"/>
      <point x="488" y="478"/>
      <point x="291" y="478" type="curve" smooth="yes"/>
      <point x="121" y="478"/>
      <point x="35" y="384"/>
      <point x="35" y="233" type="curve" smooth="yes"/>
      <point x="35" y="95"/>
      <point x="86" y="-10"/>
    </contour>
    <contour>
      <point x="177" y="287" type="line" smooth="yes"/>
      <point x="156" y="287"/>
      <point x="149" y="294"/>
      <point x="149" y="307" type="curve" smooth="yes"/>
      <point x="149" y="359"/>
      <point x="204" y="408"/>
      <point x="291" y="408" type="curve" smooth="yes"/>
      <point x="393" y="408"/>
      <point x="420" y="338"/>
      <point x="420" y="287" type="curve"/>
    </contour>
  </outline>
</glyph>
<glyph name="f" format="2">
  <advance width="403"/>
  <unicode hex="0066"/>
  <outline>
    <contour>
      <point x="70.206" y="0" type="curve" smooth="yes"/>
      <point x="212.206" y="0" type="line" smooth="yes"/>
      <point x="204" y="0"/>
      <point x="192" y="17"/>
      <point x="192.206" y="60" type="curve" smooth="yes"/>
      <point x="192" y="398" type="line"/>
      <point x="363" y="398" type="line"/>
      <point x="363" y="426"/>
      <point x="375" y="454"/>
      <point x="383.206" y="468.002" type="curve"/>
      <point x="213.206" y="468.002" type="line" smooth="yes"/>
      <point x="182.003" y="468.002"/>
      <point x="182" y="469.002"/>
      <point x="182" y="498.002" type="curve" smooth="yes"/>
      <point x="182" y="560.002" type="line" smooth="yes"/>
      <point x="182" y="629.002"/>
      <point x="207" y="649"/>
      <point x="263" y="649" type="curve" smooth="yes"/>
      <point x="349" y="649"/>
      <point x="433" y="610"/>
      <point x="433.206" y="600.002" type="curve"/>
      <point x="413" y="679" type="line"/>
      <point x="413.206" y="700.002" type="line"/>
      <point x="386" y="709"/>
      <point x="322" y="720"/>
      <point x="250.206" y="720.002" type="curve" smooth="yes"/>
      <point x="143.872" y="720.002"/>
      <point x="80" y="676.002"/>
      <point x="80" y="571.002" type="curve" smooth="yes"/>
      <point x="80" y="519.336"/>
      <point x="97" y="476.002"/>
      <point x="100.625" y="470.002" type="curve"/>
      <point x="100" y="468.002" type="line"/>
      <point x="0" y="468.002" type="line"/>
      <point x="0" y="398" type="line"/>
      <point x="90" y="398" type="line"/>
      <point x="90.206" y="60" type="line" smooth="yes"/>
      <point x="90" y="17"/>
      <point x="79" y="0"/>
    </contour>
  </outline>
</glyph>
<glyph name="h" format="2">
  <advance width="599"/>
  <unicode hex="0068"/>
  <anchor x="298" y="0" name="bottom"/>
  <anchor x="158" y="564" name="center"/>
  <anchor x="118" y="668" name="top"/>
  <outline>
    <contour>
      <point x="46" y="0" type="curve" smooth="yes"/>
      <point x="188" y="0" type="line" smooth="yes"/>
      <point x="179" y="0"/>
      <point x="168" y="17"/>
      <point x="168" y="60" type="curve" smooth="yes"/>
      <point x="168" y="247" type="line" smooth="yes"/>
      <point x="168" y="364"/>
      <point x="244" y="408"/>
      <point x="319" y="408" type="curve" smooth="yes"/>
      <point x="388" y="408"/>
      <point x="437" y="374"/>
      <point x="437" y="256" type="curve" smooth="yes"/>
      <point x="437" y="60" type="line" smooth="yes"/>
      <point x="437" y="17"/>
      <point x="426" y="0"/>
      <point x="417" y="0" type="curve" smooth="yes"/>
      <point x="559" y="0" type="line" smooth="yes"/>
      <point x="550" y="0"/>
      <point x="539" y="17"/>
      <point x="539" y="60" type="curve" smooth="yes"/>
      <point x="539" y="259" type="line" smooth="yes"/>
      <point x="539" y="410"/>
      <point x="471" y="478"/>
      <point x="347" y="478" type="curve" smooth="yes"/>
      <point x="252" y="478"/>
      <point x="197" y="439"/>
      <point x="168" y="402" type="curve"/>
      <point x="166" y="404" type="line"/>
      <point x="168" y="417" type="line"/>
      <point x="168" y="690" type="line"/>
      <point x="46" y="690" type="line"/>
      <point x="55" y="689"/>
      <point x="66" y="672"/>
      <point x="66" y="630" type="curve" smooth="yes"/>
      <point x="66" y="60" type="line" smooth="yes"/>
      <point x="66" y="17"/>
      <point x="55" y="0"/>
    </contour>
  </outline>
</glyph>
<glyph name="i" format="2">
  <advance width="228"/>
  <unicode hex="0069"/>
  <anchor x="117" y="0" name="bottom"/>
  <outline>
    <contour>
      <point x="46" y="0" type="curve" smooth="yes"/>
      <point x="188" y="0" type="line" smooth="yes"/>
      <point x="179" y="0"/>
      <point x="168" y="17"/>
      <point x="168" y="60" type="curve" smooth="yes"/>
      <point x="168" y="468" type="line"/>
      <point x="46" y="468" type="line"/>
      <point x="55" y="467"/>
      <point x="66" y="450"/>
      <point x="66" y="408" type="curve" smooth="yes"/>
      <point x="66" y="60" type="line" smooth="yes"/>
      <point x="66" y="17"/>
      <point x="55" y="0"/>
    </contour>
    <contour>
      <point x="107" y="564" type="curve" smooth="yes"/>
      <point x="146" y="564"/>
      <point x="168" y="589"/>
      <point x="168" y="619" type="curve" smooth="yes"/>
      <point x="168" y="649"/>
      <point x="147" y="674"/>
      <point x="107" y="674" type="curve" smooth="yes"/>
      <point x="67" y="674"/>
      <point x="46" y="649"/>
      <point x="46" y="619" type="curve" smooth="yes"/>
      <point x="46" y="589"/>
      <point x="68" y="564"/>
    </contour>
  </outline>
</glyph>
<glyph name="j" format="2">
  <advance width="228"/>
  <unicode hex="006A"/>
  <outline>
    <contour>
      <point x="6" y="-244" type="curve" smooth="yes"/>
      <point x="89" y="-244"/>
      <point x="168" y="-190"/>
      <point x="168" y="-9" type="curve" smooth="yes"/>
      <point x="168" y="468" type="line"/>
      <point x="46" y="468" type="line"/>
      <point x="55" y="467"/>
      <point x="66" y="450"/>
      <point x="66" y="408" type="curve" smooth="yes"/>
      <point x="66" y="-55" type="line" smooth="yes"/>
      <point x="66" y="-138"/>
      <point x="56" y="-175"/>
      <point x="8" y="-175" type="curve" smooth="yes"/>
      <point x="-34" y="-175"/>
      <point x="-69" y="-146"/>
      <point x="-84" y="-124" type="curve"/>
      <point x="-84" y="-154" type="line"/>
      <point x="-104" y="-224" type="line"/>
      <point x="-91" y="-233"/>
      <point x="-52" y="-244"/>
    </contour>
    <contour>
      <point x="107" y="564" type="curve" smooth="yes"/>
      <point x="146" y="564"/>
      <point x="168" y="589"/>
      <point x="168" y="619" type="curve" smooth="yes"/>
      <point x="168" y="649"/>
      <point x="147" y="674"/>
      <point x="107" y="674" type="curve" smooth="yes"/>
      <point x="67" y="674"/>
      <point x="46" y="649"/>
      <point x="46" y="619" type="curve" smooth="yes"/>
      <point x="46" y="589"/>
      <point x="68" y="564"/>
    </contour>
  </outline>
</glyph>
<glyph name="k" format="2">
  <advance width="561"/>
  <unicode hex="006B"/>
  <anchor x="283" y="0" name="bottom"/>
  <anchor x="273" y="468" name="top"/>
  <outline>
    <contour>
      <point x="46" y="0" type="curve" smooth="yes"/>
      <point x="188" y="0" type="line" smooth="yes"/>
      <point x="179" y="0"/>
      <point x="168" y="17"/>
      <point x="168" y="60" type="curve" smooth="yes"/>
      <point x="168" y="169" type="line" smooth="yes"/>
      <point x="168" y="199"/>
      <point x="168" y="199"/>
      <point x="209" y="199" type="curve" smooth="yes"/>
      <point x="293" y="199"/>
      <point x="348" y="140"/>
      <point x="383" y="70" type="curve" smooth="yes"/>
      <point x="408" y="20"/>
      <point x="407" y="1"/>
      <point x="399" y="0" type="curve"/>
      <point x="561" y="0" type="line" smooth="yes"/>
      <point x="552" y="0"/>
      <point x="529" y="17"/>
      <point x="503" y="60" type="curve" smooth="yes"/>
      <point x="449" y="149"/>
      <point x="399" y="210"/>
      <point x="305" y="242" type="curve"/>
      <point x="385" y="275"/>
      <point x="414" y="323"/>
      <point x="460" y="407" type="curve" smooth="yes"/>
      <point x="484" y="451"/>
      <point x="503" y="468"/>
      <point x="511" y="468" type="curve" smooth="yes"/>
      <point x="348" y="468" type="line" smooth="yes"/>
      <point x="354" y="468"/>
      <point x="358" y="451"/>
      <point x="348" y="407" type="curve" smooth="yes"/>
      <point x="325" y="311"/>
      <point x="270" y="270"/>
      <point x="209" y="270" type="curve" smooth="yes"/>
      <point x="169" y="270"/>
      <point x="168" y="271"/>
      <point x="168" y="301" type="curve" smooth="yes"/>
      <point x="168" y="690" type="line"/>
      <point x="46" y="690" type="line"/>
      <point x="55" y="689"/>
      <point x="66" y="672"/>
      <point x="66" y="630" type="curve" smooth="yes"/>
      <point x="66" y="60" type="line" smooth="yes"/>
      <point x="66" y="17"/>
      <point x="55" y="0"/>
    </contour>
  </outline>
</glyph>
<glyph name="l" format="2">
  <advance width="242"/>
  <unicode hex="006C"/>
  <anchor x="121" y="0" name="bottom"/>
  <anchor x="121" y="364" name="center"/>
  <anchor x="121" y="668" name="top"/>
  <anchor x="212" y="468" name="topright"/>
  <outline>
    <contour>
      <point x="50" y="0" type="curve" smooth="yes"/>
      <point x="192" y="0" type="line" smooth="yes"/>
      <point x="183" y="0"/>
      <point x="172" y="17"/>
      <point x="172" y="60" type="curve" smooth="yes"/>
      <point x="172" y="710" type="line"/>
      <point x="154" y="701"/>
      <point x="109" y="690"/>
      <point x="50" y="690" type="curve"/>
      <point x="59" y="689"/>
      <point x="70" y="672"/>
      <point x="70" y="630" type="curve" smooth="yes"/>
      <point x="70" y="60" type="line" smooth="yes"/>
      <point x="70" y="17"/>
      <point x="59" y="0"/>
    </contour>
  </outline>
</glyph>
<glyph name="m" format="2">
  <advance width="929"/>
  <unicode hex="006D"/>
  <outline>
    <contour>
      <point x="46" y="0" type="curve" smooth="yes"/>
      <point x="188" y="0" type="line" smooth="yes"/>
      <point x="179" y="0"/>
      <point x="168" y="17"/>
      <point x="168" y="60" type="curve" smooth="yes"/>
      <point x="168" y="247" type="line" smooth="yes"/>
      <point x="168" y="364"/>
      <point x="224" y="408"/>
      <point x="299" y="408" type="curve" smooth="yes"/>
      <point x="368" y="408"/>
      <point x="417" y="374"/>
      <point x="417" y="256" type="curve" smooth="yes"/>
      <point x="417" y="60" type="line" smooth="yes"/>
      <point x="417" y="17"/>
      <point x="406" y="0"/>
      <point x="397" y="0" type="curve" smooth="yes"/>
      <point x="539" y="0" type="line" smooth="yes"/>
      <point x="530" y="0"/>
      <point x="519" y="17"/>
      <point x="519" y="60" type="curve" smooth="yes"/>
      <point x="519" y="259" type="line" smooth="yes"/>
      <point x="519" y="410"/>
      <point x="451" y="478"/>
      <point x="327" y="478" type="curve" smooth="yes"/>
      <point x="232" y="478"/>
      <point x="197" y="439"/>
      <point x="168" y="402" type="curve"/>
      <point x="166" y="404" type="line"/>
      <point x="168" y="417" type="line"/>
      <point x="168" y="478" type="line"/>
      <point x="150" y="469"/>
      <point x="104" y="458"/>
      <point x="46" y="458" type="curve"/>
      <point x="55" y="457"/>
      <point x="66" y="440"/>
      <point x="66" y="398" type="curve" smooth="yes"/>
      <point x="66" y="60" type="line" smooth="yes"/>
      <point x="66" y="17"/>
      <point x="55" y="0"/>
    </contour>
    <contour>
      <point x="747" y="0" type="curve" smooth="yes"/>
      <point x="889" y="0" type="line" smooth="yes"/>
      <point x="880" y="0"/>
      <point x="869" y="17"/>
      <point x="869" y="60" type="curve" smooth="yes"/>
      <point x="869" y="259" type="line" smooth="yes"/>
      <point x="869" y="410"/>
      <point x="801" y="478"/>
      <point x="677" y="478" type="curve" smooth="yes"/>
      <point x="531" y="478"/>
      <point x="487" y="376"/>
      <point x="478" y="348" type="curve"/>
      <point x="519" y="248" type="line"/>
      <point x="519" y="364"/>
      <point x="572" y="408"/>
      <point x="649" y="408" type="curve" smooth="yes"/>
      <point x="718" y="408"/>
      <point x="767" y="374"/>
      <point x="767" y="256" type="curve" smooth="yes"/>
      <point x="767" y="60" type="line" smooth="yes"/>
      <point x="767" y="17"/>
      <point x="756" y="0"/>
    </contour>
  </outline>
</glyph>
<glyph name="n" format="2">
  <advance width="599"/>
  <unicode hex="006E"/>
  <anchor x="298" y="0" name="bottom"/>
  <anchor x="298" y="468" name="top"/>
  <outline>
    <contour>
      <point x="46" y="0" type="curve" smooth="yes"/>
      <point x="188" y="0" type="line" smooth="yes"/>
      <point x="179" y="0"/>
      <point x="168" y="17"/>
      <point x="168" y="60" type="curve" smooth="yes"/>
      <point x="168" y="247" type="line" smooth="yes"/>
      <point x="168" y="364"/>
      <point x="244" y="408"/>
      <point x="319" y="408" type="curve" smooth="yes"/>
      <point x="388" y="408"/>
      <point x="437" y="374"/>
      <point x="437" y="256" type="curve" smooth="yes"/>
      <point x="437" y="60" type="line" smooth="yes"/>
      <point x="437" y="17"/>
      <point x="426" y="0"/>
      <point x="417" y="0" type="curve" smooth="yes"/>
      <point x="559" y="0" type="line" smooth="yes"/>
      <point x="550" y="0"/>
      <point x="539" y="17"/>
      <point x="539" y="60" type="curve" smooth="yes"/>
      <point x="539" y="259" type="line" smooth="yes"/>
      <point x="539" y="410"/>
      <point x="471" y="478"/>
      <point x="347" y="478" type="curve" smooth="yes"/>
      <point x="252" y="478"/>
      <point x="197" y="439"/>
      <point x="168" y="402" type="curve"/>
      <point x="166" y="404" type="line"/>
      <point x="168" y="417" type="line"/>
      <point x="168" y="478" type="line"/>
      <point x="150" y="469"/>
      <point x="104" y="458"/>
      <point x="46" y="458" type="curve"/>
      <point x="55" y="457"/>
      <point x="66" y="440"/>
      <point x="66" y="398" type="curve" smooth="yes"/>
      <point x="66" y="60" type="line" smooth="yes"/>
      <point x="66" y="17"/>
      <point x="55" y="0"/>
    </contour>
  </outline>
</glyph>
<glyph name="o" format="2">
  <advance width="586"/>
  <unicode hex="006F"/>
  <anchor x="293" y="0" name="bottom"/>
  <anchor x="293" y="234" name="center"/>
  <anchor x="378" y="10" name="ogonek"/>
  <anchor x="293" y="468" name="top"/>
  <anchor x="561" y="398" name="topright"/>
  <outline>
    <contour>
      <point x="293" y="-10" type="curve" smooth="yes"/>
      <point x="494" y="-10"/>
      <point x="551" y="94"/>
      <point x="551" y="233" type="curve" smooth="yes"/>
      <point x="551" y="372"/>
      <point x="491" y="478"/>
      <point x="293" y="478" type="curve" smooth="yes"/>
      <point x="95" y="478"/>
      <point x="35" y="372"/>
      <point x="35" y="233" type="curve" smooth="yes"/>
      <point x="35" y="94"/>
      <point x="92" y="-10"/>
    </contour>
    <contour>
      <point x="293" y="61" type="curve" smooth="yes"/>
      <point x="169" y="61"/>
      <point x="137" y="125"/>
      <point x="137" y="232" type="curve" smooth="yes"/>
      <point x="137" y="339"/>
      <point x="170" y="408"/>
      <point x="293" y="408" type="curve" smooth="yes"/>
      <point x="416" y="408"/>
      <point x="449" y="343"/>
      <point x="449" y="233" type="curve" smooth="yes"/>
      <point x="449" y="123"/>
      <point x="417" y="61"/>
    </contour>
  </outline>
</glyph>
<glyph name="q" format="2">
  <advance width="612"/>
  <unicode hex="0071"/>
  <outline>
    <contour>
      <point x="429" y="-244" type="curve"/>
      <point x="451" y="-235"/>
      <point x="502" y="-224"/>
      <point x="560" y="-224" type="curve" smooth="yes"/>
      <point x="552" y="-224"/>
      <point x="541" y="-207"/>
      <point x="541" y="-164" type="curve" smooth="yes"/>
      <point x="541" y="406" type="line" smooth="yes"/>
      <point x="541" y="450"/>
      <point x="553" y="467"/>
      <point x="562" y="468" type="curve"/>
      <point x="439" y="468" type="line"/>
      <point x="439" y="441" type="line"/>
      <point x="441" y="422" type="line"/>
      <point x="439" y="421" type="line"/>
      <point x="408" y="454"/>
      <point x="356" y="478"/>
      <point x="276" y="478" type="curve" smooth="yes"/>
      <point x="86" y="478"/>
      <point x="35" y="372"/>
      <point x="35" y="233" type="curve" smooth="yes"/>
      <point x="35" y="94"/>
      <point x="86" y="-10"/>
      <point x="276" y="-10" type="curve" smooth="yes"/>
      <point x="356" y="-10"/>
      <point x="408" y="16"/>
      <point x="439" y="51" type="curve"/>
      <point x="441" y="50" type="line"/>
      <point x="439" y="31" type="line"/>
      <point x="439" y="-164" type="line" smooth="yes"/>
      <point x="439" y="-205"/>
      <point x="433" y="-234"/>
    </contour>
    <contour>
      <point x="283" y="61" type="curve" smooth="yes"/>
      <point x="167" y="61"/>
      <point x="136" y="125"/>
      <point x="136" y="232" type="curve" smooth="yes"/>
      <point x="136" y="339"/>
      <point x="171" y="408"/>
      <point x="283" y="408" type="curve" smooth="yes"/>
      <point x="417" y="408"/>
      <point x="439" y="303"/>
      <point x="439" y="233" type="curve" smooth="yes"/>
      <point x="439" y="154"/>
      <point x="418" y="61"/>
    </contour>
  </outline>
</glyph>
<glyph name="r" format="2">
  <advance width="469"/>
  <unicode hex="0072"/>
  <anchor x="234" y="0" name="bottom"/>
  <anchor x="264" y="468" name="top"/>
  <outline>
    <contour>
      <point x="46" y="0" type="curve" smooth="yes"/>
      <point x="188" y="0" type="line" smooth="yes"/>
      <point x="179" y="0"/>
      <point x="168" y="17"/>
      <point x="168" y="60" type="curve" smooth="yes"/>
      <point x="168" y="260" type="line" smooth="yes"/>
      <point x="168" y="359"/>
      <point x="217" y="398"/>
      <point x="270" y="398" type="curve" smooth="yes"/>
      <point x="340" y="398"/>
      <point x="402" y="355"/>
      <point x="429" y="323" type="curve"/>
      <point x="429" y="353" type="line"/>
      <point x="449" y="437" type="line"/>
      <point x="429" y="455"/>
      <point x="380" y="478"/>
      <point x="318" y="478" type="curve" smooth="yes"/>
      <point x="246" y="478"/>
      <point x="198" y="448"/>
      <point x="168" y="409" type="curve"/>
      <point x="166" y="411" type="line"/>
      <point x="168" y="428" type="line"/>
      <point x="168" y="478" type="line"/>
      <point x="150" y="469"/>
      <point x="104" y="458"/>
      <point x="46" y="458" type="curve"/>
      <point x="55" y="457"/>
      <point x="66" y="440"/>
      <point x="66" y="398" type="curve" smooth="yes"/>
      <point x="66" y="60" type="line" smooth="yes"/>
      <point x="66" y="17"/>
      <point x="55" y="0"/>
    </contour>
  </outline>
</glyph>
<glyph name="s" format="2">
  <advance width="570"/>
  <unicode hex="0073"/>
  <anchor x="288" y="0" name="bottom"/>
  <anchor x="288" y="468" name="top"/>
  <outline>
    <contour>
      <point x="305" y="-10" type="curve" smooth="yes"/>
      <point x="473" y="-10"/>
      <point x="536" y="48"/>
      <point x="536" y="130" type="curve" smooth="yes"/>
      <point x="536" y="206"/>
      <point x="499" y="254"/>
      <point x="330" y="272" type="curve" smooth="yes"/>
      <point x="161" y="290"/>
      <point x="143" y="309"/>
      <point x="143" y="349" type="curve" smooth="yes"/>
      <point x="143" y="384"/>
      <point x="168" y="408"/>
      <point x="267" y="408" type="curve" smooth="yes"/>
      <point x="391" y="408"/>
      <point x="483" y="376"/>
      <point x="517" y="352" type="curve"/>
      <point x="497" y="428" type="line"/>
      <point x="497" y="448" type="line"/>
      <point x="466" y="461"/>
      <point x="378" y="478"/>
      <point x="254" y="478" type="curve" smooth="yes"/>
      <point x="81" y="478"/>
      <point x="41" y="408"/>
      <point x="41" y="344" type="curve" smooth="yes"/>
      <point x="41" y="262"/>
      <point x="81" y="216"/>
      <point x="250" y="196" type="curve" smooth="yes"/>
      <point x="403" y="178"/>
      <point x="435" y="166"/>
      <point x="435" y="124" type="curve" smooth="yes"/>
      <point x="435" y="87"/>
      <point x="415" y="60"/>
      <point x="291" y="60" type="curve" smooth="yes"/>
      <point x="165" y="60"/>
      <point x="74" y="98"/>
      <point x="40" y="126" type="curve"/>
      <point x="61" y="40" type="line"/>
      <point x="61" y="20" type="line"/>
      <point x="92" y="7"/>
      <point x="179" y="-10"/>
    </contour>
  </outline>
</glyph>
<glyph name="t" format="2">
  <advance width="413"/>
  <unicode hex="0074"/>
  <anchor x="217" y="0" name="bottom"/>
  <anchor x="193" y="284" name="center"/>
  <anchor x="174" y="558" name="top"/>
  <anchor x="373" y="468" name="topright"/>
  <outline>
    <contour>
      <point x="241" y="-10" type="curve" smooth="yes"/>
      <point x="318" y="-10"/>
      <point x="372" y="17"/>
      <point x="392" y="38" type="curve"/>
      <point x="382" y="95" type="line"/>
      <point x="382" y="126" type="line"/>
      <point x="364" y="98"/>
      <point x="321" y="61"/>
      <point x="272" y="61" type="curve" smooth="yes"/>
      <point x="237" y="61"/>
      <point x="212" y="69"/>
      <point x="212" y="131" type="curve" smooth="yes"/>
      <point x="212" y="398" type="line"/>
      <point x="383" y="398" type="line"/>
      <point x="383" y="426"/>
      <point x="394" y="454"/>
      <point x="403" y="468" type="curve"/>
      <point x="212" y="468" type="line"/>
      <point x="212" y="601" type="line"/>
      <point x="140" y="601" type="line"/>
      <point x="140" y="497"/>
      <point x="111" y="468"/>
      <point x="20" y="468" type="curve"/>
      <point x="20" y="398" type="line"/>
      <point x="110" y="398" type="line"/>
      <point x="110" y="116" type="line" smooth="yes"/>
      <point x="110" y="26"/>
      <point x="149" y="-10"/>
    </contour>
  </outline>
</glyph>
<glyph name="v" format="2">
  <advance width="570"/>
  <unicode hex="0076"/>
  <outline>
    <contour>
      <point x="206" y="0" type="curve" smooth="yes"/>
      <point x="366" y="0" type="line" smooth="yes"/>
      <point x="359" y="0"/>
      <point x="354" y="16"/>
      <point x="366" y="60" type="curve" smooth="yes"/>
      <point x="382" y="120"/>
      <point x="494" y="351"/>
      <point x="523" y="409" type="curve" smooth="yes"/>
      <point x="544" y="451"/>
      <point x="562" y="468"/>
      <point x="570" y="468" type="curve" smooth="yes"/>
      <point x="413" y="468" type="line" smooth="yes"/>
      <point x="424" y="468"/>
      <point x="432" y="451"/>
      <point x="413" y="408" type="curve" smooth="yes"/>
      <point x="394" y="365"/>
      <point x="330" y="207"/>
      <point x="287" y="99" type="curve"/>
      <point x="286" y="99" type="line"/>
      <point x="245" y="205"/>
      <point x="183" y="361"/>
      <point x="163" y="406" type="curve" smooth="yes"/>
      <point x="143" y="451"/>
      <point x="151" y="468"/>
      <point x="163" y="468" type="curve" smooth="yes"/>
      <point x="0" y="468" type="line"/>
      <point x="8" y="467"/>
      <point x="28" y="449"/>
      <point x="51" y="406" type="curve" smooth="yes"/>
      <point x="84" y="345"/>
      <point x="190" y="103"/>
      <point x="206" y="60" type="curve" smooth="yes"/>
      <point x="222" y="16"/>
      <point x="215" y="0"/>
    </contour>
  </outline>
</glyph>
<glyph name="w" format="2">
  <advance width="964"/>
  <unicode hex="0077"/>
  <anchor x="482" y="0" name="bottom"/>
  <anchor x="482" y="468" name="top"/>
  <outline>
    <contour>
      <point x="205" y="0" type="curve" smooth="yes"/>
      <point x="365" y="0" type="line" smooth="yes"/>
      <point x="358" y="0"/>
      <point x="353" y="16"/>
      <point x="365" y="60" type="curve" smooth="yes"/>
      <point x="374" y="95"/>
      <point x="436" y="255"/>
      <point x="480" y="366" type="curve"/>
      <point x="483" y="366" type="line"/>
      <point x="527" y="249"/>
      <point x="588" y="85"/>
      <point x="597" y="60" type="curve" smooth="yes"/>
      <point x="613" y="16"/>
      <point x="606" y="0"/>
      <point x="597" y="0" type="curve" smooth="yes"/>
      <point x="757" y="0" type="line" smooth="yes"/>
      <point x="750" y="0"/>
      <point x="745" y="16"/>
      <point x="757" y="60" type="curve" smooth="yes"/>
      <point x="773" y="120"/>
      <point x="888" y="351"/>
      <point x="917" y="409" type="curve" smooth="yes"/>
      <point x="938" y="451"/>
      <point x="956" y="468"/>
      <point x="964" y="468" type="curve" smooth="yes"/>
      <point x="807" y="468" type="line" smooth="yes"/>
      <point x="818" y="468"/>
      <point x="826" y="451"/>
      <point x="807" y="408" type="curve" smooth="yes"/>
      <point x="788" y="365"/>
      <point x="722" y="207"/>
      <point x="678" y="99" type="curve"/>
      <point x="677" y="99" type="line"/>
      <point x="639" y="205"/>
      <point x="581" y="361"/>
      <point x="561" y="406" type="curve" smooth="yes"/>
      <point x="541" y="451"/>
      <point x="549" y="468"/>
      <point x="561" y="468" type="curve" smooth="yes"/>
      <point x="401" y="468" type="line" smooth="yes"/>
      <point x="412" y="468"/>
      <point x="420" y="451"/>
      <point x="401" y="408" type="curve" smooth="yes"/>
      <point x="383" y="365"/>
      <point x="325" y="207"/>
      <point x="286" y="99" type="curve"/>
      <point x="285" y="99" type="line"/>
      <point x="244" y="205"/>
      <point x="183" y="361"/>
      <point x="163" y="406" type="curve" smooth="yes"/>
      <point x="143" y="451"/>
      <point x="151" y="468"/>
      <point x="163" y="468" type="curve" smooth="yes"/>
      <point x="0" y="468" type="line"/>
      <point x="8" y="467"/>
      <point x="28" y="449"/>
      <point x="51" y="406" type="curve" smooth="yes"/>
      <point x="84" y="345"/>
      <point x="189" y="103"/>
      <point x="205" y="60" type="curve" smooth="yes"/>
      <point x="221" y="16"/>
      <point x="214" y="0"/>
    </contour>
  </outline>
</glyph>
<glyph name="x" format="2">
  <advance width="592"/>
  <unicode hex="0078"/>
  <outline>
    <contour>
      <point x="8" y="0" type="curve" smooth="yes"/>
      <point x="172" y="0" type="line" smooth="yes"/>
      <point x="161" y="0"/>
      <point x="159" y="17"/>
      <point x="192" y="60" type="curve" smooth="yes"/>
      <point x="215" y="91"/>
      <point x="262" y="150"/>
      <point x="291" y="187" type="curve"/>
      <point x="293" y="187" type="line"/>
      <point x="326" y="150"/>
      <point x="378" y="91"/>
      <point x="400" y="62" type="curve" smooth="yes"/>
      <point x="434" y="17"/>
      <point x="432" y="0"/>
      <point x="420" y="0" type="curve" smooth="yes"/>
      <point x="584" y="0" type="line" smooth="yes"/>
      <point x="574" y="0"/>
      <point x="548" y="17"/>
      <point x="512" y="62" type="curve" smooth="yes"/>
      <point x="475" y="109"/>
      <point x="402" y="188"/>
      <point x="358" y="235" type="curve"/>
      <point x="401" y="283"/>
      <point x="471" y="363"/>
      <point x="507" y="409" type="curve" smooth="yes"/>
      <point x="541" y="451"/>
      <point x="571" y="468"/>
      <point x="584" y="468" type="curve" smooth="yes"/>
      <point x="417" y="468" type="line" smooth="yes"/>
      <point x="427" y="468"/>
      <point x="429" y="451"/>
      <point x="397" y="408" type="curve" smooth="yes"/>
      <point x="372" y="375"/>
      <point x="325" y="320"/>
      <point x="297" y="287" type="curve"/>
      <point x="295" y="287" type="line"/>
      <point x="263" y="322"/>
      <point x="213" y="378"/>
      <point x="192" y="406" type="curve" smooth="yes"/>
      <point x="159" y="449"/>
      <point x="161" y="467"/>
      <point x="172" y="468" type="curve"/>
      <point x="8" y="468" type="line"/>
      <point x="17" y="467"/>
      <point x="42" y="450"/>
      <point x="79" y="406" type="curve" smooth="yes"/>
      <point x="116" y="363"/>
      <point x="185" y="283"/>
      <point x="228" y="235" type="curve"/>
      <point x="188" y="186"/>
      <point x="123" y="105"/>
      <point x="86" y="59" type="curve" smooth="yes"/>
      <point x="52" y="17"/>
      <point x="22" y="0"/>
    </contour>
  </outline>
</glyph>
<glyph name="y" format="2">
  <advance width="544"/>
  <unicode hex="0079"/>
  <anchor x="411" y="0" name="bottom"/>
  <anchor x="251" y="468" name="top"/>
  <outline>
    <contour>
      <point x="52" y="-244" type="curve" smooth="yes"/>
      <point x="164" y="-244"/>
      <point x="232" y="-176"/>
      <point x="294" y="-41" type="curve" smooth="yes"/>
      <point x="343" y="66"/>
      <point x="468" y="350"/>
      <point x="497" y="408" type="curve" smooth="yes"/>
      <point x="518" y="450"/>
      <point x="536" y="467"/>
      <point x="544" y="468" type="curve"/>
      <point x="387" y="468" type="line"/>
      <point x="398" y="467"/>
      <point x="406" y="450"/>
      <point x="387" y="407" type="curve" smooth="yes"/>
      <point x="368" y="364"/>
      <point x="303" y="204"/>
      <point x="260" y="96" type="curve"/>
      <point x="259" y="96" type="line"/>
      <point x="219" y="200"/>
      <point x="158" y="355"/>
      <point x="138" y="405" type="curve" smooth="yes"/>
      <point x="120" y="450"/>
      <point x="127" y="468"/>
      <point x="138" y="468" type="curve" smooth="yes"/>
      <point x="-25" y="468" type="line"/>
      <point x="-17" y="466"/>
      <point x="3" y="448"/>
      <point x="26" y="405" type="curve" smooth="yes"/>
      <point x="59" y="344"/>
      <point x="186" y="23"/>
      <point x="209" y="-9" type="curve"/>
      <point x="206" y="-18"/>
      <point x="197" y="-38"/>
      <point x="184" y="-64" type="curve" smooth="yes"/>
      <point x="149" y="-131"/>
      <point x="116" y="-174"/>
      <point x="48" y="-174" type="curve" smooth="yes"/>
      <point x="-13" y="-174"/>
      <point x="-54" y="-117"/>
      <point x="-68" y="-74" type="curve"/>
      <point x="-68" y="-104" type="line"/>
      <point x="-88" y="-209" type="line"/>
      <point x="-75" y="-224"/>
      <point x="-28" y="-244"/>
    </contour>
  </outline>
</glyph>
<glyph name="braceleft" format="2">
  <advance width="271"/>
  <unicode hex="007B"/>
  <outline>
    <contour>
      <point x="231" y="-80" type="curve"/>
      <point x="182" y="-80" type="line" smooth="yes"/>
      <point x="125" y="-80"/>
      <point x="102" y="-40"/>
      <point x="102" y="20" type="curve" smooth="yes"/>
      <point x="102" y="214" type="line" smooth="yes"/>
      <point x="102" y="285"/>
      <point x="59" y="309"/>
      <point x="30" y="294" type="curve"/>
      <point x="30" y="324" type="line"/>
      <point x="60" y="314"/>
      <point x="102" y="338"/>
      <point x="102" y="414" type="curve" smooth="yes"/>
      <point x="102" y="588" type="line" smooth="yes"/>
      <point x="102" y="649"/>
      <point x="125" y="689"/>
      <point x="182" y="689" type="curve" smooth="yes"/>
      <point x="231" y="689" type="line"/>
      <point x="231" y="665"/>
      <point x="237" y="646"/>
      <point x="241" y="639" type="curve"/>
      <point x="234" y="643"/>
      <point x="218" y="649"/>
      <point x="201" y="649" type="curve" smooth="yes"/>
      <point x="178" y="649"/>
      <point x="161" y="639"/>
      <point x="161" y="579" type="curve" smooth="yes"/>
      <point x="161" y="429" type="line" smooth="yes"/>
      <point x="161" y="358"/>
      <point x="131" y="319"/>
      <point x="108" y="310" type="curve"/>
      <point x="108" y="308" type="line"/>
      <point x="131" y="300"/>
      <point x="161" y="265"/>
      <point x="161" y="199" type="curve" smooth="yes"/>
      <point x="161" y="30" type="line" smooth="yes"/>
      <point x="161" y="-29"/>
      <point x="177" y="-40"/>
      <point x="201" y="-40" type="curve" smooth="yes"/>
      <point x="219" y="-40"/>
      <point x="234" y="-34"/>
      <point x="241" y="-30" type="curve"/>
      <point x="237" y="-38"/>
      <point x="231" y="-57"/>
    </contour>
  </outline>
</glyph>
<glyph name="braceright" format="2">
  <advance width="271"/>
  <unicode hex="007D"/>
  <outline>
    <contour>
      <point x="40" y="-80" type="curve"/>
      <point x="89" y="-80" type="line" smooth="yes"/>
      <point x="146" y="-80"/>
      <point x="169" y="-40"/>
      <point x="169" y="20" type="curve" smooth="yes"/>
      <point x="169" y="214" type="line" smooth="yes"/>
      <point x="169" y="285"/>
      <point x="212" y="309"/>
      <point x="241" y="294" type="curve"/>
      <point x="241" y="324" type="line"/>
      <point x="211" y="314"/>
      <point x="169" y="338"/>
      <point x="169" y="414" type="curve" smooth="yes"/>
      <point x="169" y="588" type="line" smooth="yes"/>
      <point x="169" y="649"/>
      <point x="146" y="689"/>
      <point x="89" y="689" type="curve" smooth="yes"/>
      <point x="40" y="689" type="line"/>
      <point x="40" y="665"/>
      <point x="34" y="646"/>
      <point x="30" y="639" type="curve"/>
      <point x="37" y="643"/>
      <point x="53" y="649"/>
      <point x="70" y="649" type="curve" smooth="yes"/>
      <point x="93" y="649"/>
      <point x="110" y="639"/>
      <point x="110" y="579" type="curve" smooth="yes"/>
      <point x="110" y="429" type="line" smooth="yes"/>
      <point x="110" y="358"/>
      <point x="140" y="319"/>
      <point x="163" y="310" type="curve"/>
      <point x="163" y="308" type="line"/>
      <point x="140" y="300"/>
      <point x="110" y="265"/>
      <point x="110" y="199" type="curve" smooth="yes"/>
      <point x="110" y="30" type="line" smooth="yes"/>
      <point x="110" y="-29"/>
      <point x="94" y="-40"/>
      <point x="70" y="-40" type="curve" smooth="yes"/>
      <point x="52" y="-40"/>
      <point x="37" y="-34"/>
      <point x="30" y="-30" type="curve"/>
      <point x="34" y="-38"/>
      <point x="40" y="-57"/>
    </contour>
  </outline>
</glyph>
<glyph name="exclamdown" format="2">
  <advance width="282"/>
  <unicode hex="00A1"/>
  <outline>
    <contour>
      <point x="138" y="-140" type="curve" smooth="yes"/>
      <point x="194" y="-140"/>
      <point x="198" y="-109"/>
      <point x="198" y="-70" type="curve" smooth="yes"/>
      <point x="198" y="-3"/>
      <point x="164" y="280"/>
      <point x="140" y="280" type="curve" smooth="yes"/>
      <point x="116" y="280"/>
      <point x="80" y="-5"/>
      <point x="80" y="-69" type="curve" smooth="yes"/>
      <point x="80" y="-109"/>
      <point x="82" y="-140"/>
    </contour>
    <component base="period" xOffset="30" yOffset="380"/>
  </outline>
</glyph>
<glyph name="cent" format="2">
  <advance width="560"/>
  <unicode hex="00A2"/>
  <outline>
    <contour>
      <point x="306" y="-10" type="curve" smooth="yes"/>
      <point x="418" y="-10"/>
      <point x="494" y="17"/>
      <point x="520" y="38" type="curve"/>
      <point x="510" y="106" type="line"/>
      <point x="510" y="136" type="line"/>
      <point x="488" y="104"/>
      <point x="424" y="61"/>
      <point x="330" y="61" type="curve" smooth="yes"/>
      <point x="217" y="61"/>
      <point x="136" y="95"/>
      <point x="136" y="232" type="curve" smooth="yes"/>
      <point x="136" y="372"/>
      <point x="216" y="407"/>
      <point x="303" y="407" type="curve" smooth="yes"/>
      <point x="410" y="407"/>
      <point x="490" y="369"/>
      <point x="520" y="341" type="curve"/>
      <point x="500" y="428" type="line"/>
      <point x="500" y="458" type="line"/>
      <point x="465" y="466"/>
      <point x="385" y="477"/>
      <point x="296" y="477" type="curve" smooth="yes"/>
      <point x="125" y="477"/>
      <point x="35" y="396"/>
      <point x="35" y="233" type="curve" smooth="yes"/>
      <point x="35" y="95"/>
      <point x="97" y="-10"/>
    </contour>
    <contour>
      <point x="270" y="-60" type="curve"/>
      <point x="373" y="-60" type="line"/>
      <point x="368" y="-55"/>
      <point x="362" y="-36"/>
      <point x="362" y="0" type="curve" smooth="yes"/>
      <point x="362" y="479" type="line" smooth="yes"/>
      <point x="362" y="516"/>
      <point x="374" y="536"/>
      <point x="383" y="540" type="curve"/>
      <point x="280" y="540" type="line"/>
      <point x="284" y="535"/>
      <point x="290" y="516"/>
      <point x="290" y="480" type="curve" smooth="yes"/>
      <point x="290" y="0" type="line" smooth="yes"/>
      <point x="290" y="-37"/>
      <point x="279" y="-56"/>
    </contour>
  </outline>
</glyph>
<glyph name="sterling" format="2">
  <advance width="607"/>
  <unicode hex="00A3"/>
  <outline>
    <contour>
      <point x="50" y="270" type="curve"/>
      <point x="59" y="274"/>
      <point x="97" y="280"/>
      <point x="170" y="280" type="curve" smooth="yes"/>
      <point x="406" y="280" type="line"/>
      <point x="406" y="308"/>
      <point x="417" y="336"/>
      <point x="426" y="350" type="curve"/>
      <point x="419" y="346"/>
      <point x="387" y="340"/>
      <point x="326" y="340" type="curve" smooth="yes"/>
      <point x="70" y="340" type="line"/>
      <point x="70" y="314"/>
      <point x="59" y="285"/>
    </contour>
    <contour>
      <point x="70" y="0" type="curve"/>
      <point x="537" y="0" type="line"/>
      <point x="537" y="31" type="line"/>
      <point x="557" y="121" type="line"/>
      <point x="542" y="104"/>
      <point x="497" y="81"/>
      <point x="427" y="81" type="curve" smooth="yes"/>
      <point x="218" y="81" type="line"/>
      <point x="218" y="84" type="line"/>
      <point x="233" y="93"/>
      <point x="252" y="136"/>
      <point x="252" y="220" type="curve" smooth="yes"/>
      <point x="252" y="370" type="line" smooth="yes"/>
      <point x="252" y="504"/>
      <point x="298" y="530"/>
      <point x="351" y="530" type="curve" smooth="yes"/>
      <point x="400" y="530"/>
      <point x="439" y="502"/>
      <point x="455" y="480" type="curve"/>
      <point x="455" y="510" type="line"/>
      <point x="465" y="580" type="line"/>
      <point x="452" y="593"/>
      <point x="412" y="610"/>
      <point x="351" y="610" type="curve" smooth="yes"/>
      <point x="241" y="610"/>
      <point x="140" y="532"/>
      <point x="140" y="370" type="curve" smooth="yes"/>
      <point x="140" y="130" type="line" smooth="yes"/>
      <point x="140" y="63"/>
      <point x="113" y="22"/>
    </contour>
  </outline>
</glyph>
<glyph name="yen" format="2">
  <advance width="721"/>
  <unicode hex="00A5"/>
  <outline>
    <contour>
      <point x="270" y="0" type="curve" smooth="yes"/>
      <point x="437" y="0" type="line" smooth="yes"/>
      <point x="428" y="0"/>
      <point x="417" y="16"/>
      <point x="417" y="60" type="curve" smooth="yes"/>
      <point x="417" y="280" type="line"/>
      <point x="474" y="366"/>
      <point x="565" y="497"/>
      <point x="604" y="541" type="curve" smooth="yes"/>
      <point x="635" y="576"/>
      <point x="661" y="595"/>
      <point x="671" y="600" type="curve"/>
      <point x="453" y="600" type="line" smooth="yes"/>
      <point x="469" y="600"/>
      <point x="483" y="583"/>
      <point x="463" y="540" type="curve" smooth="yes"/>
      <point x="438" y="487"/>
      <point x="391" y="384"/>
      <point x="362" y="322" type="curve"/>
      <point x="361" y="322" type="line"/>
      <point x="330" y="389"/>
      <point x="283" y="493"/>
      <point x="265" y="538" type="curve" smooth="yes"/>
      <point x="247" y="583"/>
      <point x="254" y="600"/>
      <point x="265" y="600" type="curve" smooth="yes"/>
      <point x="50" y="600" type="line"/>
      <point x="61" y="594"/>
      <point x="88" y="573"/>
      <point x="122" y="538" type="curve" smooth="yes"/>
      <point x="161" y="498"/>
      <point x="249" y="367"/>
      <point x="305" y="280" type="curve"/>
      <point x="305" y="207"/>
      <point x="305" y="133"/>
      <point x="305" y="60" type="curve" smooth="yes"/>
      <point x="305" y="16"/>
      <point x="285" y="0"/>
    </contour>
    <contour>
      <point x="120" y="210" type="curve"/>
      <point x="129" y="214"/>
      <point x="167" y="220"/>
      <point x="240" y="220" type="curve" smooth="yes"/>
      <point x="606" y="220" type="line"/>
      <point x="606" y="248"/>
      <point x="617" y="276"/>
      <point x="626" y="290" type="curve"/>
      <point x="619" y="286"/>
      <point x="587" y="280"/>
      <point x="526" y="280" type="curve" smooth="yes"/>
      <point x="140" y="280" type="line"/>
      <point x="140" y="247"/>
      <point x="129" y="221"/>
    </contour>
    <contour>
      <point x="100" y="340" type="curve"/>
      <point x="109" y="344"/>
      <point x="147" y="350"/>
      <point x="220" y="350" type="curve" smooth="yes"/>
      <point x="316" y="350" type="line"/>
      <point x="316" y="410" type="line"/>
      <point x="120" y="410" type="line"/>
      <point x="120" y="384"/>
      <point x="109" y="355"/>
    </contour>
    <contour>
      <point x="420" y="350" type="line"/>
      <point x="606" y="350" type="line"/>
      <point x="606" y="370"/>
      <point x="617" y="402"/>
      <point x="626" y="420" type="curve"/>
      <point x="619" y="416"/>
      <point x="587" y="410"/>
      <point x="526" y="410" type="curve" smooth="yes"/>
      <point x="420" y="410" type="line"/>
    </contour>
  </outline>
</glyph>
<glyph name="brokenbar" format="2">
  <advance width="170"/>
  <unicode hex="00A6"/>
  <outline>
    <contour>
      <point x="50" y="370" type="line"/>
      <point x="120" y="370" type="line"/>
      <point x="120" y="690" type="line"/>
      <point x="50" y="690" type="line"/>
    </contour>
    <contour>
      <point x="50" y="-110" type="line"/>
      <point x="120" y="-110" type="line"/>
      <point x="120" y="210" type="line"/>
      <point x="50" y="210" type="line"/>
    </contour>
  </outline>
</glyph>
<glyph name="section" format="2">
  <advance width="424"/>
  <unicode hex="00A7"/>
  <outline>
    <contour>
      <point x="199" y="-50" type="curve" smooth="yes"/>
      <point x="314" y="-50"/>
      <point x="356" y="14"/>
      <point x="356" y="77" type="curve" smooth="yes"/>
      <point x="356" y="110"/>
      <point x="347" y="135"/>
      <point x="330" y="155" type="curve"/>
      <point x="348" y="170"/>
      <point x="374" y="200"/>
      <point x="374" y="251" type="curve" smooth="yes"/>
      <point x="374" y="313"/>
      <point x="351" y="366"/>
      <point x="252" y="410" type="curve" smooth="yes"/>
      <point x="165" y="449"/>
      <point x="142" y="473"/>
      <point x="142" y="507" type="curve" smooth="yes"/>
      <point x="142" y="533"/>
      <point x="162" y="553"/>
      <point x="209" y="553" type="curve" smooth="yes"/>
      <point x="270" y="553"/>
      <point x="311" y="524"/>
      <point x="326" y="502" type="curve"/>
      <point x="326" y="531" type="line"/>
      <point x="336" y="601" type="line"/>
      <point x="320" y="610"/>
      <point x="274" y="623"/>
      <point x="209" y="623" type="curve" smooth="yes"/>
      <point x="103" y="623"/>
      <point x="60" y="575"/>
      <point x="60" y="506" type="curve" smooth="yes"/>
      <point x="60" y="464"/>
      <point x="93" y="415"/>
      <point x="146" y="388" type="curve"/>
      <point x="146" y="385" type="line"/>
      <point x="102" y="385"/>
      <point x="50" y="355"/>
      <point x="50" y="302" type="curve" smooth="yes"/>
      <point x="50" y="253"/>
      <point x="73" y="220"/>
      <point x="153" y="180" type="curve" smooth="yes"/>
      <point x="252" y="131"/>
      <point x="274" y="109"/>
      <point x="274" y="70" type="curve" smooth="yes"/>
      <point x="274" y="39"/>
      <point x="252" y="20"/>
      <point x="209" y="20" type="curve" smooth="yes"/>
      <point x="144" y="20"/>
      <point x="97" y="53"/>
      <point x="80" y="78" type="curve"/>
      <point x="80" y="48" type="line"/>
      <point x="70" y="-29" type="line"/>
      <point x="83" y="-38"/>
      <point x="127" y="-50"/>
    </contour>
    <contour>
      <point x="298" y="189" type="curve"/>
      <point x="276" y="206"/>
      <point x="247" y="220"/>
      <point x="211" y="236" type="curve" smooth="yes"/>
      <point x="149" y="263"/>
      <point x="132" y="283"/>
      <point x="132" y="309" type="curve" smooth="yes"/>
      <point x="132" y="346"/>
      <point x="191" y="355"/>
      <point x="241" y="328" type="curve" smooth="yes"/>
      <point x="290" y="302"/>
      <point x="304" y="261"/>
      <point x="304" y="222" type="curve" smooth="yes"/>
      <point x="304" y="210"/>
      <point x="302" y="199"/>
    </contour>
  </outline>
</glyph>
<glyph name="copyright" format="2">
  <advance width="776"/>
  <unicode hex="00A9"/>
  <anchor x="379.933" y="170" name="bottom"/>
  <anchor x="379.933" y="427.868" name="top"/>
  <outline>
    <contour>
      <point x="392.606" y="164.49" type="curve" smooth="yes"/>
      <point x="455" y="164"/>
      <point x="496" y="180"/>
      <point x="510.52" y="190.938" type="curve"/>
      <point x="505" y="248" type="line"/>
      <point x="505" y="259" type="line"/>
      <point x="491" y="244"/>
      <point x="455" y="224"/>
      <point x="406" y="224" type="curve" smooth="yes"/>
      <point x="349" y="224"/>
      <point x="319" y="242"/>
      <point x="319" y="298" type="curve" smooth="yes"/>
      <point x="319" y="355"/>
      <point x="348" y="374"/>
      <point x="391" y="374" type="curve" smooth="yes"/>
      <point x="450" y="374"/>
      <point x="494" y="353"/>
      <point x="511" y="338" type="curve"/>
      <point x="499.5" y="405.828" type="line"/>
      <point x="499.5" y="416.848" type="line"/>
      <point x="485" y="424"/>
      <point x="444" y="433"/>
      <point x="387.096" y="432.827" type="curve" smooth="yes"/>
      <point x="292.875" y="432.827"/>
      <point x="243.285" y="388.196"/>
      <point x="243.285" y="298.383" type="curve" smooth="yes"/>
      <point x="243.285" y="222.345"/>
      <point x="277.447" y="164.49"/>
    </contour>
    <component base="circle" xOffset="20"/>
  </outline>
</glyph>
<glyph name="guillemetleft" format="2">
  <advance width="460"/>
  <unicode hex="00AB"/>
  <outline>
    <contour>
      <point x="260" y="130" type="line"/>
      <point x="180" y="130" type="line"/>
      <point x="50" y="300" type="line"/>
      <point x="180" y="470" type="line"/>
      <point x="260" y="470" type="line"/>
      <point x="130" y="300" type="line"/>
    </contour>
    <contour>
      <point x="410" y="130" type="line"/>
      <point x="330" y="130" type="line"/>
      <point x="200" y="300" type="line"/>
      <point x="330" y="470" type="line"/>
      <point x="410" y="470" type="line"/>
      <point x="280" y="300" type="line"/>
    </contour>
  </outline>
</glyph>
<glyph name="logicalnot" format="2">
  <advance width="526"/>
  <unicode hex="00AC"/>
  <outline>
    <contour>
      <point x="415" y="160" type="line"/>
      <point x="476" y="160" type="line"/>
      <point x="476" y="360" type="line"/>
      <point x="50" y="360" type="line"/>
      <point x="50" y="300" type="line"/>
      <point x="415" y="300" type="line"/>
    </contour>
  </outline>
</glyph>
<glyph name="registered" format="2">
  <advance width="361"/>
  <unicode hex="00AE"/>
  <anchor x="183.508" y="470" name="bottom"/>
  <outline>
    <contour>
      <point x="113.603" y="470" type="curve" smooth="yes"/>
      <point x="152" y="470" type="line" smooth="yes"/>
      <point x="150" y="470"/>
      <point x="147" y="474"/>
      <point x="147" y="484" type="curve" smooth="yes"/>
      <point x="147" y="516" type="line" smooth="yes"/>
      <point x="147" y="522"/>
      <point x="147" y="523"/>
      <point x="157" y="523" type="curve" smooth="yes"/>
      <point x="160" y="523" type="line" smooth="yes"/>
      <point x="198" y="523"/>
      <point x="215" y="506"/>
      <point x="225" y="483" type="curve" smooth="yes"/>
      <point x="229" y="474"/>
      <point x="226" y="470"/>
      <point x="222" y="470" type="curve" smooth="yes"/>
      <point x="268" y="470" type="line"/>
      <point x="268" y="473"/>
      <point x="264" y="481"/>
      <point x="257" y="493" type="curve" smooth="yes"/>
      <point x="246" y="511"/>
      <point x="233" y="525"/>
      <point x="210" y="532" type="curve"/>
      <point x="210" y="530" type="line"/>
      <point x="233" y="533"/>
      <point x="249" y="549"/>
      <point x="249.343" y="568.872" type="curve" smooth="yes"/>
      <point x="250" y="597"/>
      <point x="234" y="614"/>
      <point x="191.887" y="613.64" type="curve" smooth="yes"/>
      <point x="113.364" y="613.64" type="line"/>
      <point x="116" y="613"/>
      <point x="118" y="609"/>
      <point x="118.391" y="599.276" type="curve" smooth="yes"/>
      <point x="118.391" y="484.364" type="line" smooth="yes"/>
      <point x="118" y="474"/>
      <point x="116" y="470"/>
    </contour>
    <contour>
      <point x="157" y="544" type="line" smooth="yes"/>
      <point x="147" y="544"/>
      <point x="147" y="544"/>
      <point x="147" y="551" type="curve" smooth="yes"/>
      <point x="147" y="586" type="line" smooth="yes"/>
      <point x="147" y="592"/>
      <point x="147" y="592"/>
      <point x="157" y="592" type="curve" smooth="yes"/>
      <point x="187" y="592" type="line" smooth="yes"/>
      <point x="212" y="592"/>
      <point x="220" y="585"/>
      <point x="220" y="569" type="curve" smooth="yes"/>
      <point x="220" y="553"/>
      <point x="210" y="544"/>
      <point x="184" y="544" type="curve" smooth="yes"/>
    </contour>
    <component base="circle" xScale="0.4444" yScale="0.4444" xOffset="17" yOffset="410"/>
  </outline>
</glyph>
<glyph name="degree" format="2">
  <advance width="300"/>
  <unicode hex="00B0"/>
  <outline>
    <contour>
      <point x="150" y="479" type="curve" smooth="yes"/>
      <point x="216" y="479"/>
      <point x="270" y="533"/>
      <point x="270" y="599" type="curve" smooth="yes"/>
      <point x="270" y="665"/>
      <point x="216" y="719"/>
      <point x="150" y="719" type="curve" smooth="yes"/>
      <point x="84" y="719"/>
      <point x="30" y="665"/>
      <point x="30" y="599" type="curve" smooth="yes"/>
      <point x="30" y="533"/>
      <point x="84" y="479"/>
    </contour>
    <contour>
      <point x="150" y="540" type="curve" smooth="yes"/>
      <point x="118" y="540"/>
      <point x="91" y="567"/>
      <point x="91" y="599" type="curve" smooth="yes"/>
      <point x="91" y="631"/>
      <point x="118" y="658"/>
      <point x="150" y="658" type="curve" smooth="yes"/>
      <point x="182" y="658"/>
      <point x="209" y="631"/>
      <point x="209" y="599" type="curve" smooth="yes"/>
      <point x="209" y="567"/>
      <point x="182" y="540"/>
    </contour>
  </outline>
</glyph>
<glyph name="twosuperior" format="2">
  <advance width="313"/>
  <unicode hex="00B2"/>
  <outline>
    <contour>
      <point x="30.0" y="445.0" type="line"/>
      <point x="273.0" y="445.0" type="line"/>
      <point x="273.0" y="460.5" type="line"/>
      <point x="283.0" y="500.5" type="line"/>
      <point x="274.5" y="494.0"/>
      <point x="248.0" y="485.5"/>
      <point x="208.0" y="485.5" type="curve" smooth="yes"/>
      <point x="99.0" y="485.5" type="line"/>
      <point x="99.0" y="487.0" type="line"/>
      <point x="110.0" y="494.0"/>
      <point x="137.0" y="514.5"/>
      <point x="171.5" y="544.5" type="curve" smooth="yes"/>
      <point x="221.0" y="588.0"/>
      <point x="263.0" y="624.0"/>
      <point x="263.0" y="677.0" type="curve" smooth="yes"/>
      <point x="263.0" y="714.0"/>
      <point x="237.0" y="750.0"/>
      <point x="156.5" y="750.0" type="curve" smooth="yes"/>
      <point x="95.0" y="750.0"/>
      <point x="54.0" y="733.0"/>
      <point x="40.0" y="720.0" type="curve"/>
      <point x="50.0" y="673.5" type="line"/>
      <point x="50.0" y="663.5" type="line"/>
      <point x="68.0" y="683.5"/>
      <point x="109.5" y="710.0"/>
      <point x="157.5" y="710.0" type="curve" smooth="yes"/>
      <point x="192.5" y="710.0"/>
      <point x="207.0" y="694.5"/>
      <point x="207.0" y="669.5" type="curve" smooth="yes"/>
      <point x="207.0" y="628.0"/>
      <point x="155.5" y="597.5"/>
      <point x="107.5" y="547.5" type="curve" smooth="yes"/>
      <point x="62.0" y="500.5"/>
      <point x="36.5" y="464.5"/>
      <point x="30.0" y="450.5" type="curve"/>
    </contour>
  </outline>
</glyph>
<glyph name="micro" format="2">
  <advance width="594"/>
  <unicode hex="00B5"/>
  <outline>
    <contour>
      <point x="114" y="-191" type="curve" smooth="yes"/>
      <point x="154" y="-191"/>
      <point x="164" y="-173"/>
      <point x="164" y="-131" type="curve" smooth="yes"/>
      <point x="164" y="-35"/>
      <point x="92" y="55"/>
      <point x="66" y="252" type="curve"/>
      <point x="66" y="-120" type="line" smooth="yes"/>
      <point x="66" y="-163"/>
      <point x="78" y="-191"/>
    </contour>
    <component base="u"/>
  </outline>
</glyph>
<glyph name="paragraph" format="2">
  <advance width="523"/>
  <unicode hex="00B6"/>
  <outline>
    <contour>
      <point x="186" y="-80" type="curve" smooth="yes"/>
      <point x="295" y="-80" type="line" smooth="yes"/>
      <point x="286" y="-80"/>
      <point x="274" y="-63"/>
      <point x="274" y="-20" type="curve" smooth="yes"/>
      <point x="274" y="540" type="line"/>
      <point x="384" y="540" type="line"/>
      <point x="384" y="-20" type="line" smooth="yes"/>
      <point x="384" y="-63"/>
      <point x="373" y="-80"/>
      <point x="364" y="-80" type="curve" smooth="yes"/>
      <point x="473" y="-80" type="line" smooth="yes"/>
      <point x="464" y="-80"/>
      <point x="452" y="-63"/>
      <point x="452" y="-20" type="curve" smooth="yes"/>
      <point x="452" y="539" type="line" smooth="yes"/>
      <point x="452" y="583"/>
      <point x="464" y="600"/>
      <point x="473" y="600" type="curve" smooth="yes"/>
      <point x="206" y="600" type="line" smooth="yes"/>
      <point x="99" y="600"/>
      <point x="50" y="562"/>
      <point x="50" y="463" type="curve" smooth="yes"/>
      <point x="50" y="455" type="line" smooth="yes"/>
      <point x="50" y="365"/>
      <point x="98" y="322"/>
      <point x="206" y="322" type="curve"/>
      <point x="206" y="-20" type="line" smooth="yes"/>
      <point x="206" y="-63"/>
      <point x="195" y="-80"/>
    </contour>
  </outline>
</glyph>
<glyph name="questiondown" format="2">
  <advance width="536"/>
  <unicode hex="00BF"/>
  <outline>
    <contour>
      <point x="263" y="-130" type="curve" smooth="yes"/>
      <point x="363" y="-130"/>
      <point x="432" y="-96"/>
      <point x="456" y="-70" type="curve"/>
      <point x="436" y="3" type="line"/>
      <point x="436" y="33" type="line"/>
      <point x="416" y="-11"/>
      <point x="362" y="-70"/>
      <point x="288" y="-70" type="curve" smooth="yes"/>
      <point x="221" y="-70"/>
      <point x="192" y="-41"/>
      <point x="192" y="11" type="curve" smooth="yes"/>
      <point x="192" y="81"/>
      <point x="266" y="99"/>
      <point x="318" y="151" type="curve" smooth="yes"/>
      <point x="336" y="169"/>
      <point x="349" y="189"/>
      <point x="349" y="224" type="curve" smooth="yes"/>
      <point x="349" y="260"/>
      <point x="333" y="292"/>
      <point x="320" y="292" type="curve" smooth="yes"/>
      <point x="310" y="292"/>
      <point x="312" y="259"/>
      <point x="293" y="229" type="curve" smooth="yes"/>
      <point x="276" y="202"/>
      <point x="258" y="187"/>
      <point x="195" y="155" type="curve" smooth="yes"/>
      <point x="127" y="120"/>
      <point x="80" y="72"/>
      <point x="80" y="6" type="curve" smooth="yes"/>
      <point x="80" y="-62"/>
      <point x="129" y="-130"/>
    </contour>
    <component base="period" xOffset="200" yOffset="380"/>
  </outline>
</glyph>
<glyph name="AE" format="2">
  <advance width="1052"/>
  <unicode hex="00C6"/>
  <anchor x="526" y="0" name="bottom"/>
  <anchor x="526" y="600" name="top"/>
  <outline>
    <contour>
      <point x="8" y="0" type="curve"/>
      <point x="176" y="0" type="line" smooth="yes"/>
      <point x="167" y="0"/>
      <point x="158" y="17"/>
      <point x="170" y="61" type="curve" smooth="yes"/>
      <point x="173" y="74"/>
      <point x="179" y="91"/>
      <point x="184" y="107" type="curve" smooth="yes"/>
      <point x="193" y="135"/>
      <point x="202" y="136"/>
      <point x="241" y="136" type="curve" smooth="yes"/>
      <point x="458" y="136" type="line"/>
      <point x="458" y="216" type="line"/>
      <point x="267" y="216" type="line" smooth="yes"/>
      <point x="228" y="216"/>
      <point x="231" y="224"/>
      <point x="240" y="246" type="curve"/>
      <point x="240" y="247"/>
      <point x="313" y="403"/>
      <point x="368" y="520" type="curve"/>
      <point x="458" y="520" type="line"/>
      <point x="458" y="600" type="line"/>
      <point x="281" y="600" type="line" smooth="yes"/>
      <point x="291" y="600"/>
      <point x="295" y="583"/>
      <point x="271" y="540" type="curve" smooth="yes"/>
      <point x="238" y="481"/>
      <point x="78" y="119"/>
      <point x="48" y="61" type="curve" smooth="yes"/>
      <point x="26" y="19"/>
      <point x="12" y="1"/>
    </contour>
    <component base="E" xOffset="368"/>
  </outline>
</glyph>
<glyph name="multiply" format="2">
  <advance width="388"/>
  <unicode hex="00D7"/>
  <outline>
    <contour>
      <point x="72" y="132" type="line"/>
      <point x="368" y="428" type="line"/>
      <point x="326" y="470" type="line"/>
      <point x="30" y="174" type="line"/>
    </contour>
    <contour>
      <point x="326" y="130" type="line"/>
      <point x="368" y="172" type="line"/>
      <point x="72" y="468" type="line"/>
      <point x="30" y="426" type="line"/>
    </contour>
  </outline>
</glyph>
<glyph name="Thorn" format="2">
  <advance width="673"/>
  <unicode hex="00DE"/>
  <outline>
    <contour>
      <point x="61" y="0" type="curve" smooth="yes"/>
      <point x="214" y="0" type="line" smooth="yes"/>
      <point x="205" y="0"/>
      <point x="193" y="17"/>
      <point x="193" y="60" type="curve" smooth="yes"/>
      <point x="193" y="96" type="line"/>
      <point x="388" y="96" type="line" smooth="yes"/>
      <point x="594" y="96"/>
      <point x="628" y="168"/>
      <point x="628" y="300" type="curve" smooth="yes"/>
      <point x="628" y="421"/>
      <point x="570" y="485"/>
      <point x="388" y="485" type="curve" smooth="yes"/>
      <point x="193" y="485" type="line"/>
      <point x="193" y="600" type="line"/>
      <point x="60" y="600" type="line"/>
      <point x="69" y="599"/>
      <point x="81" y="582"/>
      <point x="81" y="540" type="curve" smooth="yes"/>
      <point x="81" y="60" type="line" smooth="yes"/>
      <point x="81" y="17"/>
      <point x="70" y="0"/>
    </contour>
    <contour>
      <point x="234" y="175" type="line" smooth="yes"/>
      <point x="193" y="175"/>
      <point x="193" y="176"/>
      <point x="193" y="203" type="curve" smooth="yes"/>
      <point x="193" y="376" type="line" smooth="yes"/>
      <point x="193" y="403"/>
      <point x="193" y="403"/>
      <point x="234" y="403" type="curve" smooth="yes"/>
      <point x="388" y="403" type="line" smooth="yes"/>
      <point x="471" y="403"/>
      <point x="517" y="377"/>
      <point x="517" y="300" type="curve" smooth="yes"/>
      <point x="517" y="226"/>
      <point x="498" y="175"/>
      <point x="388" y="175" type="curve" smooth="yes"/>
    </contour>
  </outline>
</glyph>
<glyph name="germandbls" format="2">
  <advance width="682"/>
  <unicode hex="00DF"/>
  <outline>
    <contour>
      <point x="93" y="-110" type="curve" smooth="yes"/>
      <point x="190" y="-110"/>
      <point x="243" y="-51"/>
      <point x="243" y="50" type="curve" smooth="yes"/>
      <point x="243" y="434" type="line" smooth="yes"/>
      <point x="243" y="546"/>
      <point x="281" y="601"/>
      <point x="357" y="601" type="curve" smooth="yes"/>
      <point x="423" y="601"/>
      <point x="445" y="559"/>
      <point x="445" y="512" type="curve" smooth="yes"/>
      <point x="445" y="498" type="line"/>
      <point x="395" y="473"/>
      <point x="354" y="427"/>
      <point x="354" y="369" type="curve" smooth="yes"/>
      <point x="354" y="317"/>
      <point x="382" y="285"/>
      <point x="438" y="248" type="curve" smooth="yes"/>
      <point x="495" y="210"/>
      <point x="535" y="185"/>
      <point x="535" y="130" type="curve" smooth="yes"/>
      <point x="535" y="89"/>
      <point x="511" y="61"/>
      <point x="459" y="61" type="curve" smooth="yes"/>
      <point x="385" y="61"/>
      <point x="329" y="101"/>
      <point x="307" y="132" type="curve"/>
      <point x="307" y="112" type="line"/>
      <point x="297" y="41" type="line"/>
      <point x="308" y="19"/>
      <point x="356" y="-10"/>
      <point x="447" y="-10" type="curve" smooth="yes"/>
      <point x="611" y="-10"/>
      <point x="647" y="71"/>
      <point x="647" y="138" type="curve" smooth="yes"/>
      <point x="647" y="222"/>
      <point x="592" y="264"/>
      <point x="507" y="312" type="curve" smooth="yes"/>
      <point x="462" y="338"/>
      <point x="452" y="359"/>
      <point x="452" y="381" type="curve" smooth="yes"/>
      <point x="452" y="419"/>
      <point x="479" y="448"/>
      <point x="543" y="468" type="curve"/>
      <point x="540" y="468"/>
      <point x="537" y="480"/>
      <point x="537" y="511" type="curve" smooth="yes"/>
      <point x="537" y="600"/>
      <point x="477" y="671"/>
      <point x="355" y="671" type="curve" smooth="yes"/>
      <point x="231" y="671"/>
      <point x="142" y="586"/>
      <point x="142" y="431" type="curve" smooth="yes"/>
      <point x="142" y="61" type="line" smooth="yes"/>
      <point x="142" y="-20"/>
      <point x="117" y="-38"/>
      <point x="65" y="-38" type="curve" smooth="yes"/>
      <point x="47" y="-38"/>
      <point x="29" y="-32"/>
      <point x="20" y="-27" type="curve"/>
      <point x="20" y="-100" type="line"/>
      <point x="28" y="-104"/>
      <point x="53" y="-110"/>
    </contour>
    <contour>
      <point x="70" y="398" type="line"/>
      <point x="190" y="398" type="line"/>
      <point x="190" y="468" type="line"/>
      <point x="70" y="468" type="line"/>
    </contour>
  </outline>
</glyph>
<glyph name="ae" format="2">
  <advance width="970"/>
  <unicode hex="00E6"/>
  <anchor x="503" y="0" name="bottom"/>
  <anchor x="503" y="468" name="top"/>
  <outline>
    <contour>
      <point x="237" y="-10" type="curve" smooth="yes"/>
      <point x="326" y="-10"/>
      <point x="407" y="15"/>
      <point x="455" y="45" type="curve" smooth="yes"/>
      <point x="503" y="75"/>
      <point x="545" y="113"/>
      <point x="545" y="210" type="curve" smooth="yes"/>
      <point x="545" y="260" type="line" smooth="yes"/>
      <point x="545" y="408"/>
      <point x="471" y="478"/>
      <point x="303" y="478" type="curve" smooth="yes"/>
      <point x="183" y="478"/>
      <point x="99" y="455"/>
      <point x="70" y="438" type="curve"/>
      <point x="80" y="363" type="line"/>
      <point x="80" y="333" type="line"/>
      <point x="111" y="365"/>
      <point x="191" y="408"/>
      <point x="295" y="408" type="curve" smooth="yes"/>
      <point x="404" y="408"/>
      <point x="442" y="362"/>
      <point x="443" y="244" type="curve"/>
      <point x="422" y="258"/>
      <point x="359" y="286"/>
      <point x="255" y="286" type="curve" smooth="yes"/>
      <point x="109" y="286"/>
      <point x="40" y="229"/>
      <point x="40" y="136" type="curve" smooth="yes"/>
      <point x="40" y="46"/>
      <point x="91" y="-10"/>
    </contour>
    <contour>
      <point x="270" y="61" type="curve" smooth="yes"/>
      <point x="179" y="61"/>
      <point x="141" y="82"/>
      <point x="141" y="134" type="curve" smooth="yes"/>
      <point x="141" y="187"/>
      <point x="178" y="216"/>
      <point x="281" y="216" type="curve" smooth="yes"/>
      <point x="391" y="216"/>
      <point x="443" y="184"/>
      <point x="443" y="144" type="curve" smooth="yes"/>
      <point x="443" y="96"/>
      <point x="378" y="61"/>
    </contour>
    <component base="e" xOffset="410"/>
  </outline>
</glyph>
<glyph name="divide" format="2">
  <advance width="400"/>
  <unicode hex="00F7"/>
  <outline>
    <contour>
      <point x="217.7304" y="102.736" type="curve" smooth="yes"/>
      <point x="249.96" y="102.736"/>
      <point x="268.1408" y="123.396"/>
      <point x="268.1408" y="148.188" type="curve" smooth="yes"/>
      <point x="268.1408" y="172.98000000000002"/>
      <point x="250.78640000000001" y="193.64"/>
      <point x="217.7304" y="193.64" type="curve" smooth="yes"/>
      <point x="184.6744" y="193.64"/>
      <point x="167.32" y="172.98000000000002"/>
      <point x="167.32" y="148.188" type="curve" smooth="yes"/>
      <point x="167.32" y="123.396"/>
      <point x="185.5008" y="102.736"/>
    </contour>
    <contour>
      <point x="217.7304" y="407.736" type="curve" smooth="yes"/>
      <point x="249.96" y="407.736"/>
      <point x="268.1408" y="428.396"/>
      <point x="268.1408" y="453.188" type="curve" smooth="yes"/>
      <point x="268.1408" y="477.98"/>
      <point x="250.78640000000001" y="498.64"/>
      <point x="217.7304" y="498.64" type="curve" smooth="yes"/>
      <point x="184.6744" y="498.64"/>
      <point x="167.32" y="477.98"/>
      <point x="167.32" y="453.188" type="curve" smooth="yes"/>
      <point x="167.32" y="428.396"/>
      <point x="185.5008" y="407.736"/>
    </contour>
    <component base="minus"/>
  </outline>
</glyph>
<glyph name="idotless" format="2">
  <advance width="228"/>
  <unicode hex="0131"/>
  <anchor x="117" y="0" name="bottom"/>
  <anchor x="193" y="8" name="ogonek"/>
  <anchor x="117" y="468" name="top"/>
  <outline>
    <contour>
      <point x="46" y="0" type="curve" smooth="yes"/>
      <point x="188" y="0" type="line" smooth="yes"/>
      <point x="179" y="0"/>
      <point x="168" y="17"/>
      <point x="168" y="60" type="curve" smooth="yes"/>
      <point x="168" y="468" type="line"/>
      <point x="46" y="468" type="line"/>
      <point x="55" y="467"/>
      <point x="66" y="450"/>
      <point x="66" y="408" type="curve" smooth="yes"/>
      <point x="66" y="60" type="line" smooth="yes"/>
      <point x="66" y="17"/>
      <point x="55" y="0"/>
    </contour>
  </outline>
</glyph>
<glyph name="kgreenlandic" format="2">
  <advance width="561"/>
  <unicode hex="0138"/>
  <outline>
    <contour>
      <point x="46" y="0" type="curve" smooth="yes"/>
      <point x="188" y="0" type="line" smooth="yes"/>
      <point x="179" y="0"/>
      <point x="168" y="17"/>
      <point x="168" y="60" type="curve" smooth="yes"/>
      <point x="168" y="169" type="line" smooth="yes"/>
      <point x="168" y="199"/>
      <point x="168" y="199"/>
      <point x="209" y="199" type="curve" smooth="yes"/>
      <point x="293" y="199"/>
      <point x="348" y="140"/>
      <point x="383" y="70" type="curve" smooth="yes"/>
      <point x="408" y="20"/>
      <point x="407" y="1"/>
      <point x="399" y="0" type="curve"/>
      <point x="561" y="0" type="line" smooth="yes"/>
      <point x="552" y="0"/>
      <point x="530" y="17"/>
      <point x="503" y="60" type="curve" smooth="yes"/>
      <point x="447" y="149"/>
      <point x="400" y="210"/>
      <point x="305" y="242" type="curve"/>
      <point x="385" y="275"/>
      <point x="414" y="323"/>
      <point x="460" y="407" type="curve" smooth="yes"/>
      <point x="484" y="451"/>
      <point x="503" y="468"/>
      <point x="511" y="468" type="curve" smooth="yes"/>
      <point x="348" y="468" type="line" smooth="yes"/>
      <point x="354" y="468"/>
      <point x="358" y="451"/>
      <point x="348" y="407" type="curve" smooth="yes"/>
      <point x="325" y="311"/>
      <point x="270" y="270"/>
      <point x="209" y="270" type="curve" smooth="yes"/>
      <point x="169" y="270"/>
      <point x="168" y="271"/>
      <point x="168" y="301" type="curve" smooth="yes"/>
      <point x="168" y="468" type="line"/>
      <point x="46" y="468" type="line"/>
      <point x="55" y="467"/>
      <point x="66" y="450"/>
      <point x="66" y="408" type="curve" smooth="yes"/>
      <point x="66" y="60" type="line" smooth="yes"/>
      <point x="66" y="17"/>
      <point x="55" y="0"/>
    </contour>
  </outline>
</glyph>
<glyph name="Eng" format="2">
  <advance width="766"/>
  <unicode hex="014A"/>
  <outline>
    <contour>
      <point x="60" y="0" type="curve" smooth="yes"/>
      <point x="214" y="0" type="line" smooth="yes"/>
      <point x="205" y="0"/>
      <point x="193" y="17"/>
      <point x="193" y="60" type="curve" smooth="yes"/>
      <point x="193" y="477" type="line"/>
      <point x="196" y="477" type="line"/>
      <point x="220" y="448"/>
      <point x="466" y="147"/>
      <point x="535" y="62" type="curve" smooth="yes"/>
      <point x="569" y="20"/>
      <point x="573" y="4"/>
      <point x="573" y="-21" type="curve" smooth="yes"/>
      <point x="573" y="-71"/>
      <point x="548" y="-102"/>
      <point x="496" y="-102" type="curve"/>
      <point x="496" y="-173" type="line"/>
      <point x="517" y="-173" type="line" smooth="yes"/>
      <point x="620" y="-173"/>
      <point x="685" y="-109"/>
      <point x="685" y="0" type="curve" smooth="yes"/>
      <point x="685" y="539" type="line" smooth="yes"/>
      <point x="685" y="583"/>
      <point x="697" y="600"/>
      <point x="706" y="600" type="curve" smooth="yes"/>
      <point x="552" y="600" type="line"/>
      <point x="561" y="599"/>
      <point x="573" y="582"/>
      <point x="573" y="540" type="curve" smooth="yes"/>
      <point x="573" y="165" type="line"/>
      <point x="571" y="165" type="line"/>
      <point x="517" y="233"/>
      <point x="286" y="498"/>
      <point x="254" y="538" type="curve" smooth="yes"/>
      <point x="223" y="576"/>
      <point x="214" y="596"/>
      <point x="215" y="600" type="curve"/>
      <point x="60" y="600" type="line"/>
      <point x="69" y="599"/>
      <point x="81" y="582"/>
      <point x="81" y="540" type="curve" smooth="yes"/>
      <point x="81" y="60" type="line" smooth="yes"/>
      <point x="81" y="17"/>
      <point x="69" y="0"/>
    </contour>
  </outline>
</glyph>
<glyph name="eng" format="2">
  <advance width="579"/>
  <unicode hex="014B"/>
  <outline>
    <contour>
      <point x="46" y="0" type="curve" smooth="yes"/>
      <point x="188" y="0" type="line" smooth="yes"/>
      <point x="179" y="0"/>
      <point x="168" y="17"/>
      <point x="168" y="60" type="curve" smooth="yes"/>
      <point x="168" y="247" type="line" smooth="yes"/>
      <point x="168" y="364"/>
      <point x="244" y="408"/>
      <point x="319" y="408" type="curve" smooth="yes"/>
      <point x="388" y="408"/>
      <point x="437" y="374"/>
      <point x="437" y="256" type="curve" smooth="yes"/>
      <point x="437" y="251"/>
      <point x="437" y="119"/>
      <point x="437" y="60" type="curve" smooth="yes"/>
      <point x="437" y="0" type="line"/>
      <point x="539" y="0" type="line"/>
      <point x="539" y="7"/>
      <point x="539" y="29"/>
      <point x="539" y="60" type="curve" smooth="yes"/>
      <point x="539" y="259" type="line" smooth="yes"/>
      <point x="539" y="410"/>
      <point x="471" y="478"/>
      <point x="347" y="478" type="curve" smooth="yes"/>
      <point x="252" y="478"/>
      <point x="197" y="439"/>
      <point x="168" y="402" type="curve"/>
      <point x="166" y="404" type="line"/>
      <point x="168" y="417" type="line"/>
      <point x="168" y="478" type="line"/>
      <point x="150" y="469"/>
      <point x="104" y="458"/>
      <point x="46" y="458" type="curve"/>
      <point x="55" y="457"/>
      <point x="66" y="440"/>
      <point x="66" y="398" type="curve" smooth="yes"/>
      <point x="66" y="60" type="line" smooth="yes"/>
      <point x="66" y="17"/>
      <point x="55" y="0"/>
    </contour>
    <contour>
      <point x="377" y="-173" type="line"/>
      <point x="398" y="-173" type="line" smooth="yes"/>
      <point x="501" y="-173"/>
      <point x="539" y="-109"/>
      <point x="539" y="0" type="curve" smooth="yes"/>
      <point x="539" y="60" type="line"/>
      <point x="437" y="60" type="line"/>
      <point x="437" y="-10" type="line" smooth="yes"/>
      <point x="437" y="-84"/>
      <point x="424" y="-113"/>
      <point x="377" y="-113" type="curve"/>
    </contour>
  </outline>
</glyph>
<glyph name="OE" format="2">
  <advance width="1139"/>
  <unicode hex="0152"/>
  <outline>
    <contour>
      <point x="388" y="-10" type="curve" smooth="yes"/>
      <point x="541" y="-10"/>
      <point x="605" y="19"/>
      <point x="611" y="40" type="curve"/>
      <point x="611" y="151" type="line"/>
      <point x="596" y="117"/>
      <point x="533" y="71"/>
      <point x="419" y="71" type="curve" smooth="yes"/>
      <point x="207" y="71"/>
      <point x="157" y="166"/>
      <point x="157" y="300" type="curve" smooth="yes"/>
      <point x="157" y="434"/>
      <point x="212" y="530"/>
      <point x="390" y="530" type="curve" smooth="yes"/>
      <point x="516" y="530"/>
      <point x="590" y="490"/>
      <point x="611" y="460" type="curve"/>
      <point x="611" y="580" type="line"/>
      <point x="590" y="593"/>
      <point x="515" y="610"/>
      <point x="388" y="610" type="curve" smooth="yes"/>
      <point x="145" y="610"/>
      <point x="45" y="485"/>
      <point x="45" y="300" type="curve" smooth="yes"/>
      <point x="45" y="85"/>
      <point x="158" y="-10"/>
    </contour>
    <component base="E" xOffset="455"/>
  </outline>
</glyph>
<glyph name="Schwa" format="2">
  <advance width="616"/>
  <unicode hex="018F"/>
  <outline>
    <contour>
      <point x="304" y="-10" type="curve" smooth="yes"/>
      <point x="470" y="-10"/>
      <point x="576" y="98"/>
      <point x="576" y="304" type="curve" smooth="yes"/>
      <point x="576" y="486"/>
      <point x="494" y="608"/>
      <point x="284" y="608" type="curve" smooth="yes"/>
      <point x="171" y="608"/>
      <point x="95" y="585"/>
      <point x="70" y="568" type="curve"/>
      <point x="80" y="508" type="line"/>
      <point x="80" y="478" type="line"/>
      <point x="122" y="504"/>
      <point x="207" y="538"/>
      <point x="284" y="538" type="curve" smooth="yes"/>
      <point x="421" y="538"/>
      <point x="464" y="445"/>
      <point x="464" y="305" type="curve"/>
      <point x="40" y="305" type="line"/>
      <point x="40" y="233" type="line" smooth="yes"/>
      <point x="40" y="91"/>
      <point x="117" y="-10"/>
    </contour>
    <contour>
      <point x="304" y="61" type="curve" smooth="yes"/>
      <point x="194" y="61"/>
      <point x="152" y="130"/>
      <point x="152" y="203" type="curve" smooth="yes"/>
      <point x="152" y="235" type="line"/>
      <point x="464" y="235" type="line"/>
      <point x="464" y="131"/>
      <point x="418" y="61"/>
    </contour>
  </outline>
</glyph>
<glyph name="florin" format="2">
  <advance width="589"/>
  <unicode hex="0192"/>
  <outline>
    <contour>
      <point x="147" y="-90" type="curve" smooth="yes"/>
      <point x="286" y="-90"/>
      <point x="336" y="7"/>
      <point x="336" y="150" type="curve" smooth="yes"/>
      <point x="336" y="467" type="line" smooth="yes"/>
      <point x="336" y="596"/>
      <point x="348" y="649"/>
      <point x="417" y="649" type="curve" smooth="yes"/>
      <point x="474" y="649"/>
      <point x="537" y="609"/>
      <point x="569" y="579" type="curve"/>
      <point x="569" y="609" type="line"/>
      <point x="579" y="679" type="line"/>
      <point x="554" y="696"/>
      <point x="495" y="719"/>
      <point x="425" y="719" type="curve" smooth="yes"/>
      <point x="294" y="719"/>
      <point x="224" y="655"/>
      <point x="224" y="467" type="curve" smooth="yes"/>
      <point x="224" y="160" type="line" smooth="yes"/>
      <point x="224" y="13"/>
      <point x="204" y="-20"/>
      <point x="135" y="-20" type="curve" smooth="yes"/>
      <point x="82" y="-20"/>
      <point x="44" y="15"/>
      <point x="30" y="41" type="curve"/>
      <point x="30" y="11" type="line"/>
      <point x="10" y="-59" type="line"/>
      <point x="28" y="-72"/>
      <point x="77" y="-90"/>
    </contour>
    <contour>
      <point x="130" y="398" type="curve"/>
      <point x="139" y="402"/>
      <point x="177" y="408"/>
      <point x="250" y="408" type="curve" smooth="yes"/>
      <point x="456" y="408" type="line"/>
      <point x="456" y="436"/>
      <point x="467" y="464"/>
      <point x="476" y="478" type="curve"/>
      <point x="469" y="474"/>
      <point x="437" y="468"/>
      <point x="376" y="468" type="curve" smooth="yes"/>
      <point x="150" y="468" type="line"/>
      <point x="150" y="442"/>
      <point x="139" y="413"/>
    </contour>
  </outline>
</glyph>
<glyph name="Nhookleft" format="2">
  <advance width="692"/>
  <unicode hex="019D"/>
  <outline>
    <contour>
      <point x="-30" y="-182" type="curve" smooth="yes"/>
      <point x="75" y="-182"/>
      <point x="119" y="-125"/>
      <point x="119" y="-29" type="curve" smooth="yes"/>
      <point x="119" y="477" type="line"/>
      <point x="122" y="477" type="line"/>
      <point x="235" y="339"/>
      <point x="348" y="200"/>
      <point x="461" y="62" type="curve" smooth="yes"/>
      <point x="492" y="24"/>
      <point x="502" y="4"/>
      <point x="501" y="0" type="curve"/>
      <point x="632" y="0" type="line" smooth="yes"/>
      <point x="623" y="0"/>
      <point x="611" y="17"/>
      <point x="611" y="60" type="curve" smooth="yes"/>
      <point x="611" y="539" type="line" smooth="yes"/>
      <point x="611" y="583"/>
      <point x="623" y="600"/>
      <point x="632" y="600" type="curve" smooth="yes"/>
      <point x="478" y="600" type="line"/>
      <point x="487" y="599"/>
      <point x="499" y="582"/>
      <point x="499" y="540" type="curve" smooth="yes"/>
      <point x="499" y="165" type="line"/>
      <point x="497" y="165" type="line"/>
      <point x="473" y="193"/>
      <point x="212" y="498"/>
      <point x="180" y="538" type="curve" smooth="yes"/>
      <point x="149" y="576"/>
      <point x="140" y="596"/>
      <point x="141" y="600" type="curve"/>
      <point x="-14" y="600" type="line"/>
      <point x="-5" y="599"/>
      <point x="7" y="582"/>
      <point x="7" y="540" type="curve" smooth="yes"/>
      <point x="7" y="-18" type="line" smooth="yes"/>
      <point x="7" y="-83"/>
      <point x="-3" y="-102"/>
      <point x="-42" y="-102" type="curve" smooth="yes"/>
      <point x="-64" y="-102"/>
      <point x="-90" y="-91"/>
      <point x="-104" y="-82" type="curve"/>
      <point x="-94" y="-112" type="line"/>
      <point x="-94" y="-172" type="line"/>
      <point x="-87" y="-175"/>
      <point x="-64" y="-182"/>
    </contour>
  </outline>
</glyph>
<glyph name="jdotless" format="2">
  <advance width="228"/>
  <unicode hex="0237"/>
  <anchor x="82" y="0" name="bottom"/>
  <anchor x="112" y="468" name="top"/>
  <outline>
    <contour>
      <point x="6" y="-244" type="curve" smooth="yes"/>
      <point x="127" y="-244"/>
      <point x="168" y="-144"/>
      <point x="168" y="-9" type="curve" smooth="yes"/>
      <point x="168" y="468" type="line"/>
      <point x="46" y="468" type="line"/>
      <point x="55" y="467"/>
      <point x="66" y="450"/>
      <point x="66" y="408" type="curve" smooth="yes"/>
      <point x="66" y="-55" type="line" smooth="yes"/>
      <point x="66" y="-138"/>
      <point x="53" y="-185"/>
      <point x="8" y="-185" type="curve" smooth="yes"/>
      <point x="-37" y="-185"/>
      <point x="-71" y="-150"/>
      <point x="-84" y="-124" type="curve"/>
      <point x="-84" y="-154" type="line"/>
      <point x="-104" y="-224" type="line"/>
      <point x="-91" y="-233"/>
      <point x="-52" y="-244"/>
    </contour>
  </outline>
</glyph>
<glyph name="schwa" format="2">
  <advance width="586"/>
  <unicode hex="0259"/>
  <outline>
    <contour>
      <point x="293" y="-10" type="curve" smooth="yes"/>
      <point x="459" y="-10"/>
      <point x="546" y="89"/>
      <point x="546" y="234" type="curve" smooth="yes"/>
      <point x="546" y="371"/>
      <point x="483" y="478"/>
      <point x="284" y="478" type="curve" smooth="yes"/>
      <point x="169" y="478"/>
      <point x="94" y="455"/>
      <point x="70" y="438" type="curve"/>
      <point x="80" y="378" type="line"/>
      <point x="80" y="348" type="line"/>
      <point x="115" y="374"/>
      <point x="195" y="408"/>
      <point x="284" y="408" type="curve" smooth="yes"/>
      <point x="391" y="408"/>
      <point x="434" y="346"/>
      <point x="434" y="255" type="curve"/>
      <point x="40" y="255" type="line"/>
      <point x="40" y="213" type="line" smooth="yes"/>
      <point x="40" y="76"/>
      <point x="111" y="-10"/>
    </contour>
    <contour>
      <point x="293" y="61" type="curve" smooth="yes"/>
      <point x="199" y="61"/>
      <point x="152" y="99"/>
      <point x="152" y="173" type="curve" smooth="yes"/>
      <point x="152" y="185" type="line"/>
      <point x="434" y="185" type="line"/>
      <point x="434" y="107"/>
      <point x="387" y="61"/>
    </contour>
  </outline>
</glyph>
<glyph name="nhookleft" format="2">
  <advance width="550"/>
  <unicode hex="0272"/>
  <outline>
    <contour>
      <point x="17" y="0" type="line"/>
      <point x="119" y="0" type="line"/>
      <point x="119" y="60" type="line"/>
      <point x="119" y="247" type="line" smooth="yes"/>
      <point x="119" y="364"/>
      <point x="195" y="408"/>
      <point x="270" y="408" type="curve" smooth="yes"/>
      <point x="339" y="408"/>
      <point x="388" y="374"/>
      <point x="388" y="256" type="curve" smooth="yes"/>
      <point x="388" y="60" type="line" smooth="yes"/>
      <point x="388" y="17"/>
      <point x="377" y="0"/>
      <point x="368" y="0" type="curve" smooth="yes"/>
      <point x="510" y="0" type="line" smooth="yes"/>
      <point x="501" y="0"/>
      <point x="490" y="17"/>
      <point x="490" y="60" type="curve" smooth="yes"/>
      <point x="490" y="259" type="line" smooth="yes"/>
      <point x="490" y="410"/>
      <point x="422" y="478"/>
      <point x="298" y="478" type="curve" smooth="yes"/>
      <point x="203" y="478"/>
      <point x="148" y="439"/>
      <point x="119" y="402" type="curve"/>
      <point x="117" y="404" type="line"/>
      <point x="119" y="417" type="line"/>
      <point x="119" y="478" type="line"/>
      <point x="101" y="469"/>
      <point x="55" y="458"/>
      <point x="-3" y="458" type="curve"/>
      <point x="6" y="457"/>
      <point x="17" y="440"/>
      <point x="17" y="398" type="curve" smooth="yes"/>
      <point x="17" y="60" type="line"/>
    </contour>
    <contour>
      <point x="-29" y="-182" type="curve" smooth="yes"/>
      <point x="82" y="-182"/>
      <point x="119" y="-107"/>
      <point x="119" y="-19" type="curve" smooth="yes"/>
      <point x="119" y="1" type="line"/>
      <point x="17" y="1" type="line"/>
      <point x="17" y="-18" type="line" smooth="yes"/>
      <point x="17" y="-86"/>
      <point x="11" y="-112"/>
      <point x="-41" y="-112" type="curve" smooth="yes"/>
      <point x="-64" y="-112"/>
      <point x="-90" y="-101"/>
      <point x="-104" y="-92" type="curve"/>
      <point x="-93" y="-124" type="line"/>
      <point x="-93" y="-173" type="line"/>
      <point x="-83" y="-177"/>
      <point x="-59" y="-182"/>
    </contour>
  </outline>
</glyph>
<glyph name="primemod" format="2">
  <advance width="180"/>
  <unicode hex="02B9"/>
  <outline>
    <contour>
      <point x="70" y="510" type="curve" smooth="yes"/>
      <point x="92" y="510"/>
      <point x="130" y="695"/>
      <point x="130" y="732" type="curve" smooth="yes"/>
      <point x="130" y="746"/>
      <point x="121" y="760"/>
      <point x="100" y="760" type="curve" smooth="yes"/>
      <point x="81" y="760" type="line" smooth="yes"/>
      <point x="59" y="760"/>
      <point x="50" y="750"/>
      <point x="50" y="731" type="curve" smooth="yes"/>
      <point x="50" y="683"/>
      <point x="48" y="510"/>
    </contour>
  </outline>
</glyph>
<glyph name="apostrophemod" format="2">
  <advance width="250"/>
  <unicode hex="02BC"/>
  <outline>
    <contour>
      <point x="70" y="520" type="line"/>
      <point x="130" y="536"/>
      <point x="200" y="577"/>
      <point x="200" y="660" type="curve" smooth="yes"/>
      <point x="200" y="711"/>
      <point x="167" y="760"/>
      <point x="110" y="760" type="curve" smooth="yes"/>
      <point x="70" y="760"/>
      <point x="58" y="735"/>
      <point x="58" y="705" type="curve" smooth="yes"/>
      <point x="58" y="680" type="line"/>
      <point x="99" y="680"/>
      <point x="120" y="663"/>
      <point x="120" y="631" type="curve" smooth="yes"/>
      <point x="120" y="594"/>
      <point x="87" y="571"/>
      <point x="50" y="555" type="curve"/>
    </contour>
  </outline>
</glyph>
<glyph name="gravecomb" format="2">
  <unicode hex="0300"/>
  <anchor x="-252" y="468" name="_top"/>
  <anchor x="-262" y="756" name="top"/>
  <outline>
    <contour>
      <point x="-219" y="560" type="curve" smooth="yes"/>
      <point x="-200" y="560"/>
      <point x="-266" y="672"/>
      <point x="-299" y="720" type="curve" smooth="yes"/>
      <point x="-313" y="740"/>
      <point x="-323" y="750"/>
      <point x="-356" y="750" type="curve" smooth="yes"/>
      <point x="-366" y="750" type="line" smooth="yes"/>
      <point x="-389" y="750"/>
      <point x="-400" y="735"/>
      <point x="-379" y="710" type="curve" smooth="yes"/>
      <point x="-330" y="651"/>
      <point x="-245" y="560"/>
    </contour>
  </outline>
</glyph>
<glyph name="circumflexcomb" format="2">
  <unicode hex="0302"/>
  <anchor x="-255" y="468" name="_top"/>
  <anchor x="-256" y="646" name="top"/>
  <outline>
    <contour>
      <point x="-400" y="556" type="curve"/>
      <point x="-320" y="556" type="line"/>
      <point x="-256" y="624" type="line"/>
      <point x="-199" y="556" type="line"/>
      <point x="-119" y="556" type="line"/>
      <point x="-153" y="590"/>
      <point x="-201" y="640"/>
      <point x="-213" y="655" type="curve" smooth="yes"/>
      <point x="-222" y="667"/>
      <point x="-226" y="674"/>
      <point x="-226" y="676" type="curve"/>
      <point x="-286" y="676" type="line"/>
      <point x="-286" y="674"/>
      <point x="-289" y="667"/>
      <point x="-300" y="655" type="curve" smooth="yes"/>
      <point x="-322" y="632"/>
      <point x="-370" y="585"/>
    </contour>
  </outline>
</glyph>
<glyph name="tildecomb" format="2">
  <unicode hex="0303"/>
  <anchor x="-300" y="478" name="_top"/>
  <anchor x="-300" y="676" name="top"/>
  <outline>
    <contour>
      <point x="-480" y="556" type="curve"/>
      <point x="-429" y="556" type="line"/>
      <point x="-433" y="561"/>
      <point x="-439" y="572"/>
      <point x="-439" y="586" type="curve" smooth="yes"/>
      <point x="-439" y="605"/>
      <point x="-428" y="616"/>
      <point x="-400" y="616" type="curve" smooth="yes"/>
      <point x="-334" y="616"/>
      <point x="-307" y="556"/>
      <point x="-220" y="556" type="curve" smooth="yes"/>
      <point x="-150" y="556"/>
      <point x="-119" y="604"/>
      <point x="-119" y="676" type="curve"/>
      <point x="-170" y="676" type="line"/>
      <point x="-166" y="674"/>
      <point x="-160" y="667"/>
      <point x="-160" y="655" type="curve" smooth="yes"/>
      <point x="-160" y="634"/>
      <point x="-173" y="616"/>
      <point x="-199" y="616" type="curve" smooth="yes"/>
      <point x="-262" y="616"/>
      <point x="-291" y="676"/>
      <point x="-380" y="676" type="curve" smooth="yes"/>
      <point x="-452" y="676"/>
      <point x="-480" y="623"/>
    </contour>
  </outline>
</glyph>
<glyph name="macroncomb" format="2">
  <unicode hex="0304"/>
  <anchor x="-300" y="478" name="_top"/>
  <anchor x="-300" y="706" name="top"/>
  <outline>
    <contour>
      <point x="-478" y="555" type="curve"/>
      <point x="-469" y="559"/>
      <point x="-431" y="565"/>
      <point x="-358" y="565" type="curve" smooth="yes"/>
      <point x="-142" y="565" type="line"/>
      <point x="-142" y="585"/>
      <point x="-131" y="611"/>
      <point x="-122" y="625" type="curve" smooth="yes"/>
      <point x="-125" y="621"/>
      <point x="-154" y="615"/>
      <point x="-222" y="615" type="curve" smooth="yes"/>
      <point x="-458" y="615" type="line"/>
      <point x="-458" y="589"/>
      <point x="-469" y="566"/>
    </contour>
  </outline>
</glyph>
<glyph name="brevecomb" format="2">
  <unicode hex="0306"/>
  <anchor x="-225" y="468" name="_top"/>
  <anchor x="-225" y="636" name="top"/>
  <outline>
    <contour>
      <point x="-225" y="546" type="curve" smooth="yes"/>
      <point x="-105" y="546"/>
      <point x="-70" y="604"/>
      <point x="-70" y="676" type="curve"/>
      <point x="-126" y="676" type="line" smooth="yes"/>
      <point x="-122" y="676"/>
      <point x="-116" y="670"/>
      <point x="-116" y="655" type="curve" smooth="yes"/>
      <point x="-116" y="627"/>
      <point x="-141" y="606"/>
      <point x="-225" y="606" type="curve" smooth="yes"/>
      <point x="-309" y="606"/>
      <point x="-336" y="625"/>
      <point x="-336" y="657" type="curve" smooth="yes"/>
      <point x="-336" y="671"/>
      <point x="-330" y="676"/>
      <point x="-326" y="676" type="curve" smooth="yes"/>
      <point x="-380" y="676" type="line"/>
      <point x="-380" y="611"/>
      <point x="-345" y="546"/>
    </contour>
  </outline>
</glyph>
<glyph name="hookabovecomb" format="2">
  <unicode hex="0309"/>
  <anchor x="-280" y="548" name="_top"/>
  <anchor x="-280" y="730" name="top"/>
  <outline>
    <contour>
      <point x="-310" y="600" type="line"/>
      <point x="-251" y="600" type="line"/>
      <point x="-251" y="644" type="line"/>
      <point x="-198" y="659"/>
      <point x="-160" y="697"/>
      <point x="-160" y="745" type="curve" smooth="yes"/>
      <point x="-160" y="790"/>
      <point x="-198" y="820"/>
      <point x="-256" y="820" type="curve" smooth="yes"/>
      <point x="-306" y="820"/>
      <point x="-356" y="803"/>
      <point x="-380" y="790" type="curve"/>
      <point x="-380" y="720" type="line"/>
      <point x="-355" y="737"/>
      <point x="-308" y="760"/>
      <point x="-269" y="760" type="curve" smooth="yes"/>
      <point x="-247" y="760"/>
      <point x="-236" y="750"/>
      <point x="-236" y="732" type="curve" smooth="yes"/>
      <point x="-236" y="701"/>
      <point x="-268" y="682"/>
      <point x="-310" y="676" type="curve"/>
    </contour>
  </outline>
</glyph>
<glyph name="ringcomb" format="2">
  <unicode hex="030A"/>
  <anchor x="-341" y="468" name="_top"/>
  <anchor x="-341" y="685" name="top"/>
  <outline>
    <contour>
      <point x="-341" y="520" type="curve" smooth="yes"/>
      <point x="-281" y="520"/>
      <point x="-232" y="569"/>
      <point x="-232" y="629" type="curve" smooth="yes"/>
      <point x="-232" y="689"/>
      <point x="-281" y="738"/>
      <point x="-341" y="738" type="curve" smooth="yes"/>
      <point x="-401" y="738"/>
      <point x="-450" y="689"/>
      <point x="-450" y="629" type="curve" smooth="yes"/>
      <point x="-450" y="569"/>
      <point x="-401" y="520"/>
    </contour>
    <contour>
      <point x="-341" y="576" type="curve" smooth="yes"/>
      <point x="-370" y="576"/>
      <point x="-394" y="600"/>
      <point x="-394" y="629" type="curve" smooth="yes"/>
      <point x="-394" y="658"/>
      <point x="-370" y="682"/>
      <point x="-341" y="682" type="curve" smooth="yes"/>
      <point x="-312" y="682"/>
      <point x="-288" y="658"/>
      <point x="-288" y="629" type="curve" smooth="yes"/>
      <point x="-288" y="600"/>
      <point x="-312" y="576"/>
    </contour>
  </outline>
</glyph>
<glyph name="caroncomb" format="2">
  <unicode hex="030C"/>
  <anchor x="-306" y="478" name="_top"/>
  <anchor x="-306" y="676" name="top"/>
  <outline>
    <contour>
      <point x="-450" y="676" type="curve"/>
      <point x="-370" y="676" type="line"/>
      <point x="-306" y="608" type="line"/>
      <point x="-249" y="676" type="line"/>
      <point x="-169" y="676" type="line"/>
      <point x="-203" y="642"/>
      <point x="-251" y="592"/>
      <point x="-263" y="577" type="curve" smooth="yes"/>
      <point x="-272" y="565"/>
      <point x="-276" y="558"/>
      <point x="-276" y="556" type="curve"/>
      <point x="-336" y="556" type="line"/>
      <point x="-336" y="558"/>
      <point x="-339" y="565"/>
      <point x="-350" y="577" type="curve" smooth="yes"/>
      <point x="-372" y="600"/>
      <point x="-420" y="647"/>
    </contour>
  </outline>
</glyph>
<glyph name="dblgravecomb" format="2">
  <unicode hex="030F"/>
  <anchor x="-292" y="468" name="_top"/>
  <anchor x="-292" y="756" name="top"/>
  <outline>
    <contour>
      <point x="-326" y="560" type="curve" smooth="yes"/>
      <point x="-355" y="560"/>
      <point x="-422" y="647"/>
      <point x="-466" y="710" type="curve" smooth="yes"/>
      <point x="-484" y="736"/>
      <point x="-484" y="750"/>
      <point x="-460" y="750" type="curve" smooth="yes"/>
      <point x="-449" y="750" type="line" smooth="yes"/>
      <point x="-418" y="750"/>
      <point x="-401" y="740"/>
      <point x="-384" y="714" type="curve" smooth="yes"/>
      <point x="-359" y="676"/>
      <point x="-307" y="560"/>
    </contour>
    <contour>
      <point x="-196" y="562" type="curve" smooth="yes"/>
      <point x="-225" y="562"/>
      <point x="-292" y="649"/>
      <point x="-336" y="712" type="curve" smooth="yes"/>
      <point x="-354" y="738"/>
      <point x="-354" y="752"/>
      <point x="-330" y="752" type="curve" smooth="yes"/>
      <point x="-319" y="752" type="line" smooth="yes"/>
      <point x="-288" y="752"/>
      <point x="-271" y="742"/>
      <point x="-254" y="716" type="curve" smooth="yes"/>
      <point x="-229" y="678"/>
      <point x="-177" y="562"/>
    </contour>
  </outline>
</glyph>
<glyph name="commaturnedabovecomb" format="2">
  <unicode hex="0312"/>
  <anchor x="-225" y="468" name="_top"/>
  <anchor x="-225" y="760" name="top"/>
  <outline>
    <contour>
      <point x="-203.63629" y="769.0908" type="line"/>
      <point x="-253.63624" y="764.54535"/>
      <point x="-312.72709" y="721.81812"/>
      <point x="-312.72709" y="650.9091" type="curve" smooth="yes"/>
      <point x="-312.72709" y="604.54551"/>
      <point x="-289.09074999999996" y="560.0001"/>
      <point x="-230.90899" y="560.0001" type="curve" smooth="yes"/>
      <point x="-194.54539" y="560.0001"/>
      <point x="-175.4545" y="582.72735"/>
      <point x="-175.4545" y="610.00005" type="curve" smooth="yes"/>
      <point x="-175.4545" y="637.27275"/>
      <point x="-195.45448" y="660.0"/>
      <point x="-230.90899" y="660.0" type="curve" smooth="yes"/>
      <point x="-236.36353" y="660.0"/>
      <point x="-244.54534" y="659.09091"/>
      <point x="-249.09079" y="658.18182" type="curve"/>
      <point x="-254.54532999999998" y="688.18179"/>
      <point x="-237.27262" y="725.45448"/>
      <point x="-185.45449" y="737.27265" type="curve"/>
    </contour>
  </outline>
</glyph>
<glyph name="horncomb" format="2">
  <unicode hex="031B"/>
  <anchor x="176" y="468" name="_topright"/>
  <anchor x="136" y="468" name="topright"/>
  <outline>
    <contour>
      <point x="114" y="418" type="curve" smooth="yes"/>
      <point x="178" y="418"/>
      <point x="232" y="456"/>
      <point x="232" y="526" type="curve" smooth="yes"/>
      <point x="232" y="600" type="line"/>
      <point x="141" y="600" type="line"/>
      <point x="149" y="586"/>
      <point x="151" y="561"/>
      <point x="151" y="541" type="curve" smooth="yes"/>
      <point x="151" y="495"/>
      <point x="141" y="468"/>
      <point x="92" y="468" type="curve" smooth="yes"/>
      <point x="40" y="468" type="line"/>
      <point x="51" y="452" type="line" smooth="yes"/>
      <point x="63" y="434"/>
      <point x="83" y="418"/>
    </contour>
  </outline>
</glyph>
<glyph name="palatalhookcomb" format="2">
  <unicode hex="0321"/>
  <anchor x="-214" y="0" name="_bottom"/>
  <anchor x="-214" y="-173" name="bottom"/>
  <outline>
    <contour>
      <point x="-225" y="-173" type="curve" smooth="yes"/>
      <point x="-161" y="-173"/>
      <point x="-117" y="-129"/>
      <point x="-117" y="-60" type="curve" smooth="yes"/>
      <point x="-117" y="0" type="line"/>
      <point x="-178" y="0" type="line"/>
      <point x="-178" y="-40" type="line" smooth="yes"/>
      <point x="-178" y="-94"/>
      <point x="-195" y="-113"/>
      <point x="-227" y="-113" type="curve" smooth="yes"/>
      <point x="-247" y="-113"/>
      <point x="-278" y="-102"/>
      <point x="-289" y="-91" type="curve"/>
      <point x="-310" y="-123" type="line"/>
      <point x="-297" y="-149"/>
      <point x="-266" y="-173"/>
    </contour>
  </outline>
</glyph>
<glyph name="cedillacomb" format="2">
  <unicode hex="0327"/>
  <anchor x="-222" y="0" name="_bottom"/>
  <anchor x="-225" y="-210" name="bottom"/>
  <outline>
    <contour>
      <point x="-226" y="-220" type="curve" smooth="yes"/>
      <point x="-160" y="-220"/>
      <point x="-120" y="-183"/>
      <point x="-120" y="-135" type="curve" smooth="yes"/>
      <point x="-120" y="-84"/>
      <point x="-163" y="-59"/>
      <point x="-211" y="-56" type="curve"/>
      <point x="-189" y="0" type="line"/>
      <point x="-250" y="0" type="line"/>
      <point x="-270" y="-90" type="line"/>
      <point x="-224" y="-90"/>
      <point x="-185" y="-99"/>
      <point x="-185" y="-128" type="curve" smooth="yes"/>
      <point x="-185" y="-150"/>
      <point x="-201" y="-160"/>
      <point x="-234" y="-160" type="curve" smooth="yes"/>
      <point x="-281" y="-160"/>
      <point x="-316" y="-140"/>
      <point x="-330" y="-125" type="curve"/>
      <point x="-330" y="-185" type="line"/>
      <point x="-318" y="-200"/>
      <point x="-281" y="-220"/>
    </contour>
  </outline>
</glyph>
<glyph name="ogonekcomb" format="2">
  <unicode hex="0328"/>
  <anchor x="-164" y="10" name="_ogonek"/>
  <outline>
    <contour>
      <point x="-235" y="-170" type="curve" smooth="yes"/>
      <point x="-185" y="-170"/>
      <point x="-151" y="-139"/>
      <point x="-144" y="-130" type="curve"/>
      <point x="-144" y="-70" type="line"/>
      <point x="-156" y="-86"/>
      <point x="-188" y="-110"/>
      <point x="-225" y="-110" type="curve" smooth="yes"/>
      <point x="-250" y="-110"/>
      <point x="-265" y="-96"/>
      <point x="-265" y="-74" type="curve" smooth="yes"/>
      <point x="-265" y="-32"/>
      <point x="-218" y="-6"/>
      <point x="-184" y="3" type="curve"/>
      <point x="-264" y="3" type="line"/>
      <point x="-285" y="-4"/>
      <point x="-330" y="-36"/>
      <point x="-330" y="-87" type="curve" smooth="yes"/>
      <point x="-330" y="-138"/>
      <point x="-294" y="-170"/>
    </contour>
  </outline>
</glyph>
<glyph name="strokelongcomb" format="2">
  <unicode hex="0336"/>
  <anchor x="-337" y="300" name="_center"/>
  <outline>
    <contour>
      <point x="-560" y="270" type="line"/>
      <point x="-114" y="270" type="line"/>
      <point x="-114" y="330" type="line"/>
      <point x="-559" y="330" type="line"/>
    </contour>
  </outline>
</glyph>
<glyph name="slashshortcomb" format="2">
  <unicode hex="0337"/>
  <anchor x="-318" y="146" name="_center"/>
  <outline>
    <contour>
      <point x="-510" y="-33" type="line"/>
      <point x="-124" y="251" type="line"/>
      <point x="-124" y="323" type="line"/>
      <point x="-510" y="39" type="line"/>
    </contour>
  </outline>
</glyph>
<glyph name="Delta" format="2">
  <advance width="731"/>
  <unicode hex="0394"/>
  <outline>
    <contour>
      <point x="8" y="0" type="curve"/>
      <point x="727" y="0" type="line"/>
      <point x="722" y="1"/>
      <point x="708" y="19"/>
      <point x="688" y="61" type="curve" smooth="yes"/>
      <point x="657" y="125"/>
      <point x="466" y="570"/>
      <point x="437" y="630" type="curve" smooth="yes"/>
      <point x="417" y="672"/>
      <point x="419" y="689"/>
      <point x="426" y="690" type="curve"/>
      <point x="312" y="690" type="line"/>
      <point x="320" y="689"/>
      <point x="322" y="672"/>
      <point x="302" y="630" type="curve" smooth="yes"/>
      <point x="272" y="569"/>
      <point x="77" y="120"/>
      <point x="48" y="61" type="curve" smooth="yes"/>
      <point x="27" y="18"/>
      <point x="13" y="1"/>
    </contour>
    <contour>
      <point x="204" y="81" type="line" smooth="yes"/>
      <point x="173" y="81"/>
      <point x="168" y="91"/>
      <point x="177" y="111" type="curve" smooth="yes"/>
      <point x="202" y="166"/>
      <point x="300" y="382"/>
      <point x="368" y="530" type="curve"/>
      <point x="370" y="530" type="line"/>
      <point x="437" y="385"/>
      <point x="534" y="171"/>
      <point x="559" y="111" type="curve" smooth="yes"/>
      <point x="567" y="89"/>
      <point x="558" y="81"/>
      <point x="530" y="81" type="curve" smooth="yes"/>
    </contour>
  </outline>
</glyph>
<glyph name="pi" format="2">
  <advance width="622"/>
  <unicode hex="03C0"/>
  <outline>
    <contour>
      <point x="79" y="0" type="curve" smooth="yes"/>
      <point x="233" y="0" type="line" smooth="yes"/>
      <point x="224" y="0"/>
      <point x="212" y="17"/>
      <point x="212" y="60" type="curve" smooth="yes"/>
      <point x="212" y="485" type="line" smooth="yes"/>
      <point x="212" y="514"/>
      <point x="213" y="515"/>
      <point x="253" y="515" type="curve" smooth="yes"/>
      <point x="370" y="515" type="line" smooth="yes"/>
      <point x="409" y="515"/>
      <point x="410" y="515"/>
      <point x="410" y="485" type="curve" smooth="yes"/>
      <point x="410" y="60" type="line" smooth="yes"/>
      <point x="410" y="17"/>
      <point x="398" y="0"/>
      <point x="389" y="0" type="curve" smooth="yes"/>
      <point x="543" y="0" type="line" smooth="yes"/>
      <point x="534" y="0"/>
      <point x="522" y="17"/>
      <point x="522" y="60" type="curve" smooth="yes"/>
      <point x="522" y="498" type="line" smooth="yes"/>
      <point x="522" y="556"/>
      <point x="545" y="590"/>
      <point x="562" y="599" type="curve"/>
      <point x="60" y="599" type="line"/>
      <point x="77" y="590"/>
      <point x="100" y="557"/>
      <point x="100" y="499" type="curve" smooth="yes"/>
      <point x="100" y="60" type="line" smooth="yes"/>
      <point x="100" y="17"/>
      <point x="88" y="0"/>
    </contour>
  </outline>
</glyph>
<glyph name="Germandbls" format="2">
  <advance width="732"/>
  <unicode hex="1E9E"/>
  <outline>
    <contour>
      <point x="475" y="-10" type="curve" smooth="yes"/>
      <point x="647" y="-10"/>
      <point x="687" y="87"/>
      <point x="687" y="154" type="curve" smooth="yes"/>
      <point x="687" y="244"/>
      <point x="639" y="297"/>
      <point x="557" y="362" type="curve" smooth="yes"/>
      <point x="499" y="408"/>
      <point x="472" y="434"/>
      <point x="472" y="471" type="curve" smooth="yes"/>
      <point x="472" y="524"/>
      <point x="526" y="547"/>
      <point x="577" y="559" type="curve"/>
      <point x="577" y="631" type="line"/>
      <point x="544" y="648"/>
      <point x="464" y="671"/>
      <point x="365" y="671" type="curve" smooth="yes"/>
      <point x="203" y="671"/>
      <point x="81" y="610"/>
      <point x="81" y="404" type="curve" smooth="yes"/>
      <point x="81" y="60" type="line" smooth="yes"/>
      <point x="81" y="17"/>
      <point x="69" y="0"/>
      <point x="60" y="0" type="curve" smooth="yes"/>
      <point x="213" y="0" type="line" smooth="yes"/>
      <point x="204" y="0"/>
      <point x="193" y="17"/>
      <point x="193" y="60" type="curve" smooth="yes"/>
      <point x="193" y="397" type="line" smooth="yes"/>
      <point x="193" y="552"/>
      <point x="246" y="591"/>
      <point x="357" y="591" type="curve" smooth="yes"/>
      <point x="410" y="591"/>
      <point x="455" y="586"/>
      <point x="475" y="583" type="curve"/>
      <point x="475" y="580" type="line"/>
      <point x="426" y="563"/>
      <point x="374" y="532"/>
      <point x="374" y="466" type="curve" smooth="yes"/>
      <point x="374" y="408"/>
      <point x="401" y="370"/>
      <point x="458" y="318" type="curve" smooth="yes"/>
      <point x="502" y="278"/>
      <point x="575" y="237"/>
      <point x="575" y="156" type="curve" smooth="yes"/>
      <point x="575" y="105"/>
      <point x="545" y="72"/>
      <point x="477" y="72" type="curve" smooth="yes"/>
      <point x="386" y="72"/>
      <point x="315" y="112"/>
      <point x="287" y="142" type="curve"/>
      <point x="287" y="112" type="line"/>
      <point x="267" y="51" type="line"/>
      <point x="289" y="25"/>
      <point x="360" y="-10"/>
    </contour>
  </outline>
</glyph>
<glyph name="endash" format="2">
  <advance width="556"/>
  <unicode hex="2013"/>
  <outline>
    <contour>
      <point x="30" y="200" type="curve"/>
      <point x="39" y="204"/>
      <point x="77" y="210"/>
      <point x="150" y="210" type="curve" smooth="yes"/>
      <point x="506" y="210" type="line"/>
      <point x="506" y="238"/>
      <point x="517" y="266"/>
      <point x="526" y="280" type="curve" smooth="yes"/>
      <point x="523" y="276"/>
      <point x="494" y="270"/>
      <point x="426" y="270" type="curve" smooth="yes"/>
      <point x="50" y="270" type="line"/>
      <point x="50" y="244"/>
      <point x="39" y="215"/>
    </contour>
  </outline>
</glyph>
<glyph name="emdash" format="2">
  <advance width="896"/>
  <unicode hex="2014"/>
  <outline>
    <contour>
      <point x="30" y="200" type="curve"/>
      <point x="39" y="204"/>
      <point x="77" y="210"/>
      <point x="150" y="210" type="curve" smooth="yes"/>
      <point x="846" y="210" type="line"/>
      <point x="846" y="238"/>
      <point x="857" y="266"/>
      <point x="866" y="280" type="curve" smooth="yes"/>
      <point x="863" y="276"/>
      <point x="834" y="270"/>
      <point x="766" y="270" type="curve" smooth="yes"/>
      <point x="50" y="270" type="line"/>
      <point x="50" y="244"/>
      <point x="39" y="215"/>
    </contour>
  </outline>
</glyph>
<glyph name="quoteright" format="2">
  <advance width="250"/>
  <unicode hex="2019"/>
  <outline>
    <contour>
      <point x="70" y="480" type="line"/>
      <point x="129" y="489"/>
      <point x="200" y="537"/>
      <point x="200" y="620" type="curve" smooth="yes"/>
      <point x="200" y="671"/>
      <point x="174" y="720"/>
      <point x="110" y="720" type="curve" smooth="yes"/>
      <point x="70" y="720"/>
      <point x="58" y="695"/>
      <point x="58" y="665" type="curve" smooth="yes"/>
      <point x="58" y="640" type="line"/>
      <point x="99" y="640"/>
      <point x="120" y="628"/>
      <point x="120" y="591" type="curve" smooth="yes"/>
      <point x="120" y="554"/>
      <point x="86" y="524"/>
      <point x="50" y="515" type="curve"/>
    </contour>
  </outline>
</glyph>
<glyph name="quotedblleft" format="2">
  <advance width="430"/>
  <unicode hex="201C"/>
  <outline>
    <contour>
      <point x="360" y="710" type="line"/>
      <point x="301" y="701"/>
      <point x="230" y="653"/>
      <point x="230" y="570" type="curve" smooth="yes"/>
      <point x="230" y="519"/>
      <point x="256" y="470"/>
      <point x="320" y="470" type="curve" smooth="yes"/>
      <point x="360" y="470"/>
      <point x="372" y="495"/>
      <point x="372" y="525" type="curve" smooth="yes"/>
      <point x="372" y="550" type="line"/>
      <point x="331" y="550"/>
      <point x="310" y="562"/>
      <point x="310" y="599" type="curve" smooth="yes"/>
      <point x="310" y="636"/>
      <point x="344" y="666"/>
      <point x="380" y="675" type="curve"/>
    </contour>
    <contour>
      <point x="180" y="710" type="line"/>
      <point x="121" y="701"/>
      <point x="50" y="653"/>
      <point x="50" y="570" type="curve" smooth="yes"/>
      <point x="50" y="519"/>
      <point x="76" y="470"/>
      <point x="140" y="470" type="curve" smooth="yes"/>
      <point x="180" y="470"/>
      <point x="192" y="495"/>
      <point x="192" y="525" type="curve" smooth="yes"/>
      <point x="192" y="550" type="line"/>
      <point x="151" y="550"/>
      <point x="130" y="562"/>
      <point x="130" y="599" type="curve" smooth="yes"/>
      <point x="130" y="636"/>
      <point x="164" y="666"/>
      <point x="200" y="675" type="curve"/>
    </contour>
  </outline>
</glyph>
<glyph name="daggerdbl" format="2">
  <advance width="396"/>
  <unicode hex="2021"/>
  <outline>
    <contour>
      <point x="143" y="-60" type="curve" smooth="yes"/>
      <point x="254" y="-60" type="line" smooth="yes"/>
      <point x="245" y="-60"/>
      <point x="233" y="-43"/>
      <point x="233" y="0" type="curve" smooth="yes"/>
      <point x="233" y="539" type="line" smooth="yes"/>
      <point x="233" y="583"/>
      <point x="245" y="600"/>
      <point x="254" y="600" type="curve" smooth="yes"/>
      <point x="142" y="600" type="line"/>
      <point x="151" y="599"/>
      <point x="163" y="582"/>
      <point x="163" y="540" type="curve" smooth="yes"/>
      <point x="163" y="0" type="line" smooth="yes"/>
      <point x="163" y="-43"/>
      <point x="152" y="-60"/>
    </contour>
    <contour>
      <point x="30" y="155" type="line"/>
      <point x="366" y="155" type="line"/>
      <point x="366" y="215" type="line"/>
      <point x="30" y="215" type="line"/>
    </contour>
    <contour>
      <point x="30" y="345" type="line"/>
      <point x="366" y="345" type="line"/>
      <point x="366" y="405" type="line"/>
      <point x="30" y="405" type="line"/>
    </contour>
  </outline>
</glyph>
<glyph name="bullet" format="2">
  <advance width="303"/>
  <unicode hex="2022"/>
  <outline>
    <contour>
      <point x="151.5" y="183.0" type="curve" smooth="yes"/>
      <point x="210.0" y="183.0"/>
      <point x="243.0" y="220.5"/>
      <point x="243.0" y="265.5" type="curve" smooth="yes"/>
      <point x="243.0" y="310.5"/>
      <point x="211.5" y="348.0"/>
      <point x="151.5" y="348.0" type="curve" smooth="yes"/>
      <point x="91.5" y="348.0"/>
      <point x="60.0" y="310.5"/>
      <point x="60.0" y="265.5" type="curve" smooth="yes"/>
      <point x="60.0" y="220.5"/>
      <point x="93.0" y="183.0"/>
    </contour>
  </outline>
</glyph>
<glyph name="perthousand" format="2">
  <advance width="990"/>
  <unicode hex="2030"/>
  <outline>
    <contour>
      <point x="800" y="-10" type="curve" smooth="yes"/>
      <point x="896" y="-10"/>
      <point x="940" y="44"/>
      <point x="940" y="110" type="curve" smooth="yes"/>
      <point x="940" y="176"/>
      <point x="896" y="230"/>
      <point x="800" y="230" type="curve" smooth="yes"/>
      <point x="702" y="230"/>
      <point x="660" y="176"/>
      <point x="660" y="110" type="curve" smooth="yes"/>
      <point x="660" y="44"/>
      <point x="702" y="-10"/>
    </contour>
    <contour>
      <point x="800" y="50" type="curve" smooth="yes"/>
      <point x="746" y="50"/>
      <point x="740" y="88"/>
      <point x="740" y="110" type="curve" smooth="yes"/>
      <point x="740" y="132"/>
      <point x="746" y="170"/>
      <point x="800" y="170" type="curve" smooth="yes"/>
      <point x="851" y="170"/>
      <point x="860" y="132"/>
      <point x="860" y="110" type="curve" smooth="yes"/>
      <point x="860" y="88"/>
      <point x="851" y="50"/>
    </contour>
    <component base="percent"/>
  </outline>
</glyph>
<glyph name="fraction" format="2">
  <advance width="239"/>
  <unicode hex="2044"/>
  <outline>
    <contour>
      <point x="-150" y="0" type="curve"/>
      <point x="-28" y="0" type="line"/>
      <point x="-40" y="3"/>
      <point x="-46" y="21"/>
      <point x="-19" y="60" type="curve" smooth="yes"/>
      <point x="21" y="117"/>
      <point x="283" y="475"/>
      <point x="327" y="539" type="curve" smooth="yes"/>
      <point x="358" y="583"/>
      <point x="380" y="600"/>
      <point x="389" y="600" type="curve" smooth="yes"/>
      <point x="266" y="600" type="line" smooth="yes"/>
      <point x="277" y="600"/>
      <point x="282" y="583"/>
      <point x="257" y="540" type="curve" smooth="yes"/>
      <point x="225" y="484"/>
      <point x="-49" y="114"/>
      <point x="-89" y="60" type="curve" smooth="yes"/>
      <point x="-120" y="18"/>
      <point x="-142" y="1"/>
    </contour>
  </outline>
</glyph>
<glyph name="colonmonetary" format="2">
  <advance width="706"/>
  <unicode hex="20A1"/>
  <outline>
    <contour>
      <point x="393" y="-10" type="curve" smooth="yes"/>
      <point x="546" y="-10"/>
      <point x="633" y="19"/>
      <point x="656" y="40" type="curve"/>
      <point x="646" y="70" type="line"/>
      <point x="646" y="151" type="line"/>
      <point x="618" y="117"/>
      <point x="538" y="71"/>
      <point x="424" y="71" type="curve" smooth="yes"/>
      <point x="212" y="71"/>
      <point x="162" y="166"/>
      <point x="162" y="300" type="curve" smooth="yes"/>
      <point x="162" y="434"/>
      <point x="217" y="530"/>
      <point x="395" y="530" type="curve" smooth="yes"/>
      <point x="521" y="530"/>
      <point x="618" y="490"/>
      <point x="656" y="460" type="curve"/>
      <point x="636" y="550" type="line"/>
      <point x="636" y="580" type="line"/>
      <point x="606" y="593"/>
      <point x="520" y="610"/>
      <point x="393" y="610" type="curve" smooth="yes"/>
      <point x="150" y="610"/>
      <point x="50" y="485"/>
      <point x="50" y="300" type="curve" smooth="yes"/>
      <point x="50" y="85"/>
      <point x="163" y="-10"/>
    </contour>
    <contour>
      <point x="110" y="-59" type="curve"/>
      <point x="204" y="-59" type="line"/>
      <point x="203" y="-54"/>
      <point x="207" y="-35"/>
      <point x="223" y="1" type="curve" smooth="yes"/>
      <point x="253" y="68"/>
      <point x="415" y="523"/>
      <point x="449" y="600" type="curve" smooth="yes"/>
      <point x="466" y="638"/>
      <point x="477" y="657"/>
      <point x="481" y="661" type="curve"/>
      <point x="406" y="661" type="line"/>
      <point x="406" y="656"/>
      <point x="400" y="637"/>
      <point x="387" y="601" type="curve" smooth="yes"/>
      <point x="366" y="545"/>
      <point x="192" y="64"/>
      <point x="161" y="1" type="curve" smooth="yes"/>
      <point x="141" y="-39"/>
      <point x="120" y="-57"/>
    </contour>
    <contour>
      <point x="260" y="-59" type="curve"/>
      <point x="334" y="-59" type="line"/>
      <point x="333" y="-54"/>
      <point x="337" y="-35"/>
      <point x="353" y="1" type="curve" smooth="yes"/>
      <point x="383" y="68"/>
      <point x="545" y="523"/>
      <point x="579" y="600" type="curve" smooth="yes"/>
      <point x="596" y="638"/>
      <point x="613" y="657"/>
      <point x="621" y="661" type="curve"/>
      <point x="536" y="661" type="line"/>
      <point x="536" y="656"/>
      <point x="530" y="637"/>
      <point x="517" y="601" type="curve" smooth="yes"/>
      <point x="496" y="545"/>
      <point x="322" y="64"/>
      <point x="291" y="1" type="curve" smooth="yes"/>
      <point x="271" y="-39"/>
      <point x="262" y="-57"/>
    </contour>
  </outline>
</glyph>
<glyph name="franc" format="2">
  <advance width="713"/>
  <unicode hex="20A3"/>
  <outline>
    <contour>
      <point x="140" y="0" type="curve" smooth="yes"/>
      <point x="294" y="0" type="line" smooth="yes"/>
      <point x="285" y="0"/>
      <point x="273" y="16"/>
      <point x="273" y="60" type="curve" smooth="yes"/>
      <point x="273" y="246" type="line" smooth="yes"/>
      <point x="273" y="276"/>
      <point x="274" y="276"/>
      <point x="313" y="276" type="curve" smooth="yes"/>
      <point x="538" y="276" type="line"/>
      <point x="538" y="305"/>
      <point x="549" y="350"/>
      <point x="558" y="376" type="curve"/>
      <point x="543" y="367"/>
      <point x="495" y="356"/>
      <point x="418" y="356" type="curve" smooth="yes"/>
      <point x="313" y="356" type="line" smooth="yes"/>
      <point x="274" y="356"/>
      <point x="273" y="356"/>
      <point x="273" y="386" type="curve" smooth="yes"/>
      <point x="273" y="490" type="line" smooth="yes"/>
      <point x="273" y="518"/>
      <point x="274" y="520"/>
      <point x="314" y="520" type="curve" smooth="yes"/>
      <point x="423" y="520" type="line" smooth="yes"/>
      <point x="541" y="520"/>
      <point x="629" y="499"/>
      <point x="663" y="484" type="curve"/>
      <point x="643" y="580" type="line"/>
      <point x="643" y="600" type="line"/>
      <point x="140" y="600" type="line"/>
      <point x="149" y="599"/>
      <point x="161" y="582"/>
      <point x="161" y="540" type="curve" smooth="yes"/>
      <point x="161" y="60" type="line" smooth="yes"/>
      <point x="161" y="17"/>
      <point x="149" y="0"/>
    </contour>
    <contour>
      <point x="50" y="100" type="curve"/>
      <point x="59" y="104"/>
      <point x="97" y="110"/>
      <point x="170" y="110" type="curve" smooth="yes"/>
      <point x="376" y="110" type="line"/>
      <point x="376" y="138"/>
      <point x="387" y="166"/>
      <point x="396" y="180" type="curve"/>
      <point x="389" y="176"/>
      <point x="357" y="170"/>
      <point x="296" y="170" type="curve" smooth="yes"/>
      <point x="70" y="170" type="line"/>
      <point x="70" y="144"/>
      <point x="59" y="115"/>
    </contour>
  </outline>
</glyph>
